<?xml version="1.0" encoding="UTF-8"?>
<svg id="Camada_2" data-name="Camada 2" xmlns="http://www.w3.org/2000/svg" width="1432.41" height="680.59" viewBox="0 0 1432.41 680.59">
  <g id="Camada_1-2" data-name="Camada 1">
    <path class="cls-1" style="fill: #000;"  d="M1062.93,617.02h28.01l-.71,2.58c-3.82,13.74-11.22,26.39-21.4,36.57-15.75,15.73-36.63,24.41-58.77,24.41h-45.68c-22.14,0-42.99-8.68-58.75-24.41-15.75-15.75-24.43-36.63-24.43-58.77s8.68-42.99,24.43-58.75c15.75-15.75,36.61-24.41,58.75-24.41h45.68c22.16,0,43.01,8.66,58.77,24.41,10.18,10.18,17.58,22.83,21.4,36.57l.71,2.56h-28.01l-.51-1.26c-2.87-7.11-7.07-13.5-12.52-18.95-10.69-10.69-24.84-16.57-39.84-16.57h-45.68c-14.98,0-29.13,5.87-39.82,16.57-10.69,10.69-16.57,24.84-16.57,39.82s5.87,29.15,16.57,39.84c10.69,10.69,24.84,16.57,39.82,16.57h45.68c15,0,29.15-5.87,39.84-16.57,5.45-5.47,9.68-11.83,12.52-18.95l.51-1.28Z"/>
    <path class="cls-1" style="fill: #000;" d="M1288.55,538.66c-15.75-15.75-36.61-24.43-58.77-24.43h-22.3l-5.14.16c-20.35,1.26-39.35,9.84-53.52,24.19l-3.44,3.64-5.61,7.03c-.39.55-.77,1.1-1.18,1.69l-.53.79c-.37.55-.71,1.1-1.16,1.79l-3.72,6.61-2.66,5.83-3.01,8.62-1.48,6.02-1.26,8.23-.45,8.68c-.14,21.55,8.27,42.1,23.7,57.93l2.22,2.17,7.03,6,7.58,5.14,8.07,4.27,8.46,3.33,8.82,2.4,9.09,1.42,30.51.41c21.04,0,40.94-7.85,56.39-22.18v22.18h26.77v-83.53c-.08-22.01-8.76-42.75-24.41-58.4ZM1229.8,655.85h-22.3l-.73-.02h-.73l-.71-.02-.73-.04-.71-.04-.73-.04-.71-.06-.73-.08-.71-.06-.71-.1-.71-.08-.71-.1-.71-.12-.69-.12h-.02l-.69-.12-.71-.14-.69-.14-.69-.14h-.02l-.69-.16-.69-.18-.69-.18-.69-.18-.67-.18-.69-.22-.67-.2-.69-.22-.67-.22-.67-.24-.67-.24-.65-.24-.67-.26-.65-.28-.65-.26h-.02l-.63-.28-.65-.3-.65-.3-.65-.3-.63-.33-.63-.33-.63-.33-.63-.35-.61-.35h-.02l-.61-.35-.61-.37-.61-.39-.61-.37-.59-.39-.61-.41-.59-.41-.59-.41-.57-.41-.59-.43-.57-.43-.57-.45-.57-.45-.55-.45-.55-.47-.55-.47-.55-.47-.55-.49-1.06-.98-.51-.51h-.02l-.51-.51-.51-.53c-.35-.35-.67-.69-1-1.04l-.49-.55c-.49-.53-.98-1.08-1.42-1.63h-.02l-.45-.55-.45-.55h-.02l-.43-.57-.45-.57-.43-.57-.85-1.18-.41-.57-.41-.59v-.02l-.39-.59-.39-.59-.39-.61-.37-.61-.37-.61-.35-.63h-.02l-.35-.61-.33-.63-.35-.63-.33-.63-.3-.65h-.02l-.3-.63-.28-.65h-.02l-.28-.65-.28-.65-.28-.65-.26-.65-.26-.67-.24-.67-.24-.65v-.02l-.24-.65v-.02l-.22-.67-.22-.67-.22-.67-.2-.69-.18-.69-.2-.67v-.02l-.18-.69-.16-.69-.16-.69-.14-.69-.16-.71-.12-.69-.14-.71-.12-.69v-.02l-.1-.69-.2-1.42-.08-.71v-.02l-.08-.71-.06-.71-.06-.71-.04-.73-.04-.71-.04-.73-.02-.73-.02-.71v-1.46l.02-.73.02-.71.04-.73.04-.71.04-.73.06-.71.06-.71.08-.73.08-.71.1-.71.1-.71.1-.71.12-.69v-.02l.14-.69.12-.71.16-.69.14-.69.16-.71.16-.69.18-.69.2-.67.18-.69.2-.69.22-.67.22-.69.22-.67.24-.67.24-.67.24-.65.53-1.32.57-1.3.3-.65.28-.65.33-.65.3-.63.33-.63.35-.63.33-.63.35-.61h.02l.35-.63.73-1.22.39-.61.39-.59.39-.61.41-.59.41-.59.43-.57.43-.59.43-.57.45-.57.43-.57h.02l.45-.55.45-.55.47-.55h.02l.47-.55.49-.55.98-1.06.51-.53,1.02-1.02.53-.51,1.06-.98.55-.49.53-.47h.02l.53-.49h.02l.55-.45.55-.45.57-.45.57-.45.57-.43.57-.43h.02l.57-.43.59-.41.59-.41.61-.39.59-.39.61-.39,1.22-.73.61-.35h.02l.61-.35,1.26-.69.63-.33.63-.3.65-.33.65-.28.63-.3h.02l.63-.28h.02l.65-.28.65-.26.67-.26.65-.24.67-.24.67-.24.67-.22.69-.22.67-.22.69-.2.67-.18.69-.2.69-.18.69-.16.69-.16h.02l.69-.14.69-.16.71-.12.69-.14h.02l.69-.12.71-.1.71-.1.71-.1.71-.08.71-.08.73-.06.71-.06.73-.04.71-.04.73-.04.71-.02.73-.02h23.01c15.53,0,30.31,6.22,41.26,17.18,10.98,10.96,17.18,25.73,17.18,41.26v.37c-.1,15.39-6.28,30-17.18,40.9-10.96,10.96-25.73,17.18-41.24,17.18Z"/>
    <path class="cls-1" style="fill: #000;" d="M1432.41,514.36v26.85l-1.79.22c-12.32,1.54-24.01,7.28-32.87,16.14-10.69,10.69-16.57,24.84-16.57,39.82v83.18h-26.79v-166.34h26.79v22.16c13.5-12.5,30.78-20.21,49.01-21.83l2.22-.2Z"/>
    <path class="cls-1" style="fill: #000;" d="M391.12,594.21c-.8-20.63-9.27-39.98-24.02-54.74-15.54-15.52-36.11-24.08-57.95-24.08h-12.42l-9.09.02-4.28.17c-19.98,1.29-38.65,9.76-52.55,23.85l-4.7,5.08-4.21,5.42c-.38.53-.76,1.06-1.16,1.68l-.53.77c-.35.53-.7,1.07-1.03,1.6l-3.77,6.67-2.65,5.78-2.39,6.63-1.59,5.82-1.16,6.02-.71,6.16-.24,6.43c-.15,21.27,8.15,41.57,23.42,57.19l2.9,2.84,5.38,4.58,5.73,4.1,6.02,3.57,6.32,3.04,5.57,2.15,6.72,2.01,6.9,1.42,7,.82,26.52.23c16.64,0,32.54-4.96,46.06-14.2v14.2h35.97v-81.64l.03-3.48-.09-.11ZM309.15,643.48h-20.41l-5.69-.35-6.07-1.18-5.85-1.98-5.51-2.75-5.14-3.48-4.7-4.21c-.27-.27-.54-.56-.76-.8l-.44-.47c-.38-.42-.76-.85-1.09-1.26l-3.15-4.16-1.42-2.28-2.75-5.52-2.01-5.91-1.1-5.43-.42-6.23.21-4.55,1.16-6.64,2.13-6.41,1.41-3.06,3.15-5.32,3.89-4.9,4.49-4.34,5.02-3.69,5.43-2.98,6.28-2.36,6.6-1.42,26.74-.42c12.24,0,23.78,4.81,32.52,13.54,8.73,8.73,13.54,20.28,13.54,32.52v.3c-.08,12.12-4.89,23.55-13.54,32.2-8.74,8.74-20.28,13.55-32.52,13.55Z"/>
    <path class="cls-1" style="fill: #000;" d="M772.75,629.77c-14.51,14.49-32.24,14.14-54.68,13.69-3.8-.08-7.73-.15-11.72-.15-16.32,0-27.95-.94-40.55-13.54-4.37-4.37-7.7-9.24-9.98-14.54h98.25c27.58,0,50.01-22.43,50.01-50.01s-22.43-50.01-50.01-50.01h-47.71c-25.16,0-46,4.1-65.98,24.08-23.84,23.84-30.63,58.01-17.73,89.16,12.99,31.34,41.99,50.83,75.68,50.83,4.76,0,9.53.08,14.14.17,4.51.08,8.99.15,13.42.15,26.08,0,50.66-2.77,72.31-24.41l5.34-5.34-25.43-25.43-5.34,5.35ZM698.31,551.19h55.74c7.74,0,14.04,6.29,14.04,14.04s-6.29,14.04-14.04,14.04h-97.95c6.4-14.76,20.84-28.07,42.2-28.07Z"/>
    <path class="cls-3" style="fill-rule: evenodd;" d="M156.56,629.76c-14.51,14.51-32.27,14.16-54.71,13.71-3.78-.09-7.71-.15-11.73-.15-16.31,0-27.93-.95-40.52-13.57-4.37-4.34-7.74-9.22-9.99-14.51h98.24c27.57,0,50.01-22.43,50.01-50.01s-22.43-50.04-50.01-50.04h-47.73c-25.12,0-45.99,4.11-65.97,24.09-23.82,23.85-30.62,58.02-17.73,89.17,13,31.33,42,50.83,75.69,50.83,4.76,0,9.52.06,14.13.15,4.52.09,8.98.15,13.42.15,26.1,0,50.69-2.75,72.32-24.41l5.35-5.32-25.45-25.45-5.32,5.35ZM82.11,551.2h55.74c7.74,0,14.04,6.27,14.04,14.04s-6.3,14.04-14.04,14.04H39.88c6.41-14.78,20.87-28.08,42.23-28.08Z"/>
    <path class="cls-1" style="fill: #000;" d="M459.93,563.99c-.05.45-.08.94-.08,1.44,0,.44.03.91.08,1.36l.05.44c.86,7.09,6.63,12.21,13.84,12.21h60.17c13.93,0,27.33,5.91,36.8,16.22l1.72,1.98c.3.36.59.71.86,1.06l6.46,10.85,1.66,4.31.05.17.56,1.83.05.17,1.03,4.61.57,8.27v.88l-.21,4.31-1.89,10.45-5.07,11.03-3.3,4.72-2.48,2.92c-9.47,10.32-22.89,16.23-36.82,16.23h-110.18v-35.97h109.96c7.23,0,13.02-5.14,13.86-12.28l.03-.35c.05-.45.06-.92.06-1.41s-.02-.94-.06-1.39l-.05-.42c-.86-7.09-6.64-12.21-13.84-12.21h-60.17c-13.93,0-27.35-5.91-36.8-16.23l-1.74-1.98c-.18-.21-.36-.44-.54-.67l-1.12-1.45-4.6-7.49-3.31-8.59-.05-.18-1.03-4.61-.59-9.03.23-4.42,1.06-7.55,4.7-11.92,4.73-7.06,2.25-2.62c9.44-10.3,22.86-16.22,36.8-16.22h110.17v35.97h-109.94c-7.23,0-13.02,5.14-13.86,12.28l-.03.35Z"/>
    <path class="cls-2" style="fill: #0455a8;" d="M680.36,401.04c110.74,0,200.52-89.78,200.52-200.52,0-19.1-2.67-37.57-7.66-55.07-8.14,5-17.44,7.64-27.08,7.64h-3.29c4.39,15.05,6.74,30.96,6.74,47.43,0,93.47-75.77,169.24-169.24,169.24-50.34,0-95.55-21.98-126.55-56.86-3.51,1.59-7.41,2.48-11.52,2.48h-26.31c36.26,51.79,96.36,85.66,164.38,85.66"/>
    <path class="cls-2" style="fill: #0455a8;" d="M518.35,245.74c.94-2.39,1.82-4.81,2.65-7.24-.92,2.38-1.8,4.8-2.65,7.24Z"/>
    <path class="cls-2" style="fill: #0455a8;" d="M854.63,101.27h-209.23l-.19.16c-55.86,3.19-102.81,53.63-120.05,122.89-1.19,4.78-2.58,9.51-4.16,14.17,18.79-48.49,53.91-83.73,95.57-92.59,2.14-1.4,4.67-2.18,7.29-2.18h222.29c8.99,0,17.32-2.79,24.18-7.56,11.04-7.67,18.27-20.43,18.27-34.89h0s-33.97,0-33.97,0Z"/>
    <path class="cls-2" style="fill: #0455a8;" d="M520.99,238.5c-.83,2.43-1.71,4.85-2.65,7.24-1.91,5.55-3.62,11.25-5.11,17.1-1.93,7.61-4.38,15.08-7.36,22.33-1.09,2.65-2.25,5.26-3.48,7.84,4.05,7.77,8.58,15.24,13.58,22.37h26.31c4.11,0,8.01-.89,11.52-2.48,7.71-3.5,13.54-10.39,15.58-18.75h151.62c23.45,0,42.45-19.01,42.45-42.45h-175.72c-8.4,0-14.69-7.68-13.08-15.93.84-4.29,1.79-8.53,2.86-12.69,1.5-5.89,6.83-10,12.91-10h182.26c23.45,0,42.45-19.01,42.45-42.45h-191.5c-11.16,0-17.39-12.9-10.44-21.63.07-.08.13-.17.2-.25.9-1.13,1.97-2.08,3.14-2.85-41.66,8.86-76.78,44.11-95.57,92.59Z"/>
    <path class="cls-2" style="fill: #0455a8;" d="M680.36,0c-110.74,0-200.52,89.78-200.52,200.52,0,29.63,6.43,57.76,17.97,83.08,1.45,3.18,2.99,6.32,4.6,9.41,1.23-2.58,2.39-5.2,3.48-7.84,2.98-7.26,5.43-14.73,7.36-22.33,1.48-5.84,3.19-11.55,5.11-17.1-.22.56-.43,1.11-.65,1.66-4.28-14.89-6.58-30.62-6.58-46.88,0-93.47,75.77-169.24,169.24-169.24,52.12,0,98.74,23.57,129.79,60.62h38.78C813.23,36.61,751.07,0,680.36,0Z"/>
  </g>
</svg>