<svg width="21" height="18" viewBox="0 0 21 18" fill="none" xmlns="http://www.w3.org/2000/svg">
<path d="M14.264 0.5C14.8211 0.500019 15.3671 0.655134 15.841 0.947969C16.3148 1.2408 16.6978 1.65979 16.947 2.158L18.33 4.923C18.574 4.823 18.817 4.722 19.053 4.605C19.2904 4.48645 19.5651 4.46705 19.8168 4.55106C20.0685 4.63508 20.2764 4.81563 20.395 5.053C20.5136 5.29037 20.533 5.56511 20.4489 5.81678C20.3649 6.06846 20.1844 6.27645 19.947 6.395C19.453 6.641 19.227 6.717 19.227 6.717L20.183 8.63C20.392 9.047 20.5 9.506 20.5 9.972V12.5C20.5006 12.9222 20.4118 13.3397 20.2395 13.7251C20.0671 14.1105 19.8151 14.455 19.5 14.736V16C19.5 16.3978 19.342 16.7794 19.0607 17.0607C18.7794 17.342 18.3978 17.5 18 17.5C17.6022 17.5 17.2206 17.342 16.9393 17.0607C16.658 16.7794 16.5 16.3978 16.5 16V15.5H4.5V16C4.5 16.3978 4.34197 16.7794 4.06066 17.0607C3.77936 17.342 3.39783 17.5 3 17.5C2.60218 17.5 2.22065 17.342 1.93934 17.0607C1.65804 16.7794 1.5 16.3978 1.5 16V14.736C0.886001 14.186 0.500001 13.388 0.500001 12.5V9.972C0.500187 9.50646 0.608717 9.04735 0.817001 8.631L1.773 6.717C1.53079 6.61655 1.29137 6.50951 1.055 6.396C0.93713 6.33752 0.831958 6.25635 0.745515 6.15715C0.659072 6.05795 0.593056 5.94266 0.551251 5.8179C0.509447 5.69314 0.492676 5.56135 0.501899 5.43009C0.511122 5.29884 0.546159 5.17069 0.605001 5.053C0.726171 4.81686 0.935337 4.63785 1.18735 4.55459C1.43936 4.47134 1.71401 4.49052 1.952 4.608C2.187 4.722 2.428 4.825 2.67 4.923L4.053 2.158C4.30219 1.65979 4.68517 1.2408 5.15904 0.947969C5.63291 0.655134 6.17895 0.500019 6.736 0.5H14.264ZM17.334 7.404C15.634 7.941 13.215 8.5 10.5 8.5C7.785 8.5 5.366 7.94 3.666 7.404L2.606 9.524C2.53631 9.66306 2.50001 9.81645 2.5 9.972V12.5C2.5 12.7652 2.60536 13.0196 2.79289 13.2071C2.98043 13.3946 3.23478 13.5 3.5 13.5H17.5C17.7652 13.5 18.0196 13.3946 18.2071 13.2071C18.3946 13.0196 18.5 12.7652 18.5 12.5V9.972C18.4998 9.81679 18.4635 9.66375 18.394 9.525L17.334 7.404ZM6 9.5C6.39783 9.5 6.77936 9.65804 7.06066 9.93934C7.34197 10.2206 7.5 10.6022 7.5 11C7.5 11.3978 7.34197 11.7794 7.06066 12.0607C6.77936 12.342 6.39783 12.5 6 12.5C5.60218 12.5 5.22064 12.342 4.93934 12.0607C4.65804 11.7794 4.5 11.3978 4.5 11C4.5 10.6022 4.65804 10.2206 4.93934 9.93934C5.22064 9.65804 5.60218 9.5 6 9.5ZM15 9.5C15.3978 9.5 15.7794 9.65804 16.0607 9.93934C16.342 10.2206 16.5 10.6022 16.5 11C16.5 11.3978 16.342 11.7794 16.0607 12.0607C15.7794 12.342 15.3978 12.5 15 12.5C14.6022 12.5 14.2206 12.342 13.9393 12.0607C13.658 11.7794 13.5 11.3978 13.5 11C13.5 10.6022 13.658 10.2206 13.9393 9.93934C14.2206 9.65804 14.6022 9.5 15 9.5ZM14.264 2.5H6.736C6.55034 2.5001 6.36837 2.55188 6.21047 2.64955C6.05258 2.74722 5.92499 2.88692 5.842 3.053L4.572 5.59C6.12 6.055 8.206 6.5 10.5 6.5C12.794 6.5 14.88 6.055 16.427 5.59L15.158 3.053C15.075 2.88692 14.9474 2.74722 14.7895 2.64955C14.6316 2.55188 14.4497 2.5001 14.264 2.5Z" fill="white"/>
</svg>
