<svg width="27" height="19" viewBox="0 0 27 19" fill="none" xmlns="http://www.w3.org/2000/svg">
<path d="M17.4155 18.2485C17.4155 18.2485 17.1845 18.2556 17.0037 18.2485C16.5558 18.2485 16.0719 17.9093 16.0719 17.3603C16.0719 16.8185 16.5487 16.4935 17.0037 16.4935C17.0108 16.4935 17.2348 16.4864 17.4155 16.4935C17.8776 16.4935 18.3474 16.8185 18.3474 17.3603C18.3469 17.9088 17.8629 18.2485 17.4155 18.2485ZM17.8487 16.1538C17.2129 16.1396 16.5629 16.1538 16.5558 16.1538C15.7758 16.1538 15.14 16.6956 15.14 17.3598C15.14 18.0317 15.7758 18.5877 16.5558 18.5877C16.5629 18.5877 17.2129 18.6019 17.8487 18.5877C18.6287 18.5877 19.2645 18.0388 19.2645 17.3598C19.2716 16.7027 18.6429 16.1685 17.8487 16.1538Z" fill="#D9152E"/>
<path d="M26.1558 18.5513H26.95V17.3955C26.95 16.7166 26.3432 16.1895 25.5708 16.1895H23.5558C23.5198 16.1895 23.4476 16.1966 23.4476 16.2763V18.4645C23.4476 18.5223 23.4908 18.5513 23.5345 18.5513H24.3795V16.7242C24.3795 16.645 24.4374 16.6013 24.5024 16.6013H25.4266C25.6866 16.6013 26.0624 16.8323 26.0624 17.3305V18.4573C26.0619 18.4573 26.0619 18.5513 26.1558 18.5513Z" fill="#D9152E"/>
<path d="M9.35723 16.6533H10.5993V16.2775C10.5993 16.2268 10.5633 16.1836 10.5125 16.1836H7.05328C6.99539 16.1836 6.96645 16.2268 6.96645 16.2775V16.6533H7.79723C8.10801 16.6533 8.31723 16.9204 8.31723 17.1662V18.4591C8.31723 18.5023 8.35328 18.5459 8.41117 18.5459H9.24906V16.7691C9.23434 16.7112 9.29223 16.6533 9.35723 16.6533Z" fill="#D9152E"/>
<path d="M5.52943 18.4615C5.52943 18.5123 5.58021 18.5484 5.62338 18.5484C5.63049 18.5484 6.46127 18.5484 6.46127 18.5484V16.2734C6.46127 16.2226 6.41811 16.1865 6.36732 16.1865H5.62338C5.5726 16.1865 5.52943 16.2297 5.52943 16.2734V18.4615Z" fill="#D9152E"/>
<path d="M12.0247 17.2982V16.8289C12.0247 16.6989 12.1187 16.6121 12.2487 16.6121H13.4837C13.6716 16.6121 13.8305 16.7711 13.8305 16.9589C13.8305 17.1539 13.6716 17.3058 13.4837 17.3058H12.0247V17.2982ZM13.8305 18.555H14.7547C14.7329 17.9411 14.0687 17.6882 14.0687 17.6882C14.4876 17.5942 14.7547 17.2982 14.7547 16.9513C14.7547 16.5832 14.3937 16.1855 13.8158 16.1855H11.5839C11.3168 16.1855 11.1 16.3948 11.1 16.6695V18.4605C11.1 18.5113 11.136 18.5545 11.1868 18.5545H12.0247V17.7166H12.8189C13.5197 17.7171 13.8087 18.2229 13.8305 18.555Z" fill="#D9152E"/>
<mask id="mask0_2_512" style="mask-type:luminance" maskUnits="userSpaceOnUse" x="0" y="0" width="27" height="19">
<path d="M26.954 0.230469H0.953995V18.6184H26.954V0.230469Z" fill="white"/>
</mask>
<g mask="url(#mask0_2_512)">
<path d="M4.12063 16.9797C4.12063 16.9797 4.97984 16.9797 5.02352 16.9797C4.82852 16.4815 4.25774 16.1347 3.66563 16.1347C3.34063 16.1347 2.75563 16.1129 2.37274 16.1347C1.92485 16.1565 1.64352 16.2576 1.36879 16.4958C1.10168 16.7268 0.949844 17.0376 0.949844 17.3626C0.949844 18.0415 1.54906 18.5687 2.3509 18.5976C2.89984 18.6194 2.95774 18.6194 3.67274 18.5976C4.33695 18.5758 4.81379 18.2797 5.02352 17.7526C4.98035 17.7526 4.12063 17.7526 4.12063 17.7526C4.08457 17.7526 4.06274 17.7668 4.04141 17.7958C3.87535 18.0776 3.57219 18.2436 3.23246 18.2508C3.11668 18.2508 2.95824 18.2508 2.81352 18.2508C2.3443 18.2436 1.88168 17.9186 1.88168 17.3626C1.88168 16.8136 2.35852 16.4815 2.82063 16.4815C2.87141 16.4815 3.05879 16.4744 3.22485 16.4815C3.55695 16.4815 3.88195 16.6623 4.0409 16.9365C4.04852 16.9508 4.07035 16.9797 4.12063 16.9797Z" fill="#D9152E"/>
</g>
<path d="M22.9554 18.1257C22.9554 18.1257 22.8396 18.1257 20.7672 18.1257C20.6951 18.1257 20.6443 18.075 20.6443 18.01V17.5621H22.5436V17.1502H20.6443V16.7384C20.6443 16.7384 20.6443 16.6155 20.7886 16.6155H22.9625V16.2834C22.9625 16.1895 22.8615 16.1895 22.8543 16.1895H19.8136C19.8065 16.1895 19.7196 16.1895 19.7196 16.2834V18.0745C19.7196 18.3126 19.9004 18.5584 20.2036 18.5584H22.8686C22.9407 18.5584 22.9625 18.4934 22.9625 18.4716V18.1247" fill="#D9152E"/>
<path d="M22.2705 15.3304C22.1836 15.2725 22.0755 15.2512 21.9455 15.2512C21.8226 15.2512 21.7073 15.2801 21.6205 15.3304C21.5336 15.3807 21.4686 15.4533 21.3676 15.4533C21.2665 15.4533 21.2086 15.3812 21.1147 15.3304C21.0207 15.2796 20.9197 15.2512 20.7897 15.2512C20.6668 15.2512 20.5586 15.2801 20.4647 15.3304C20.3778 15.3812 20.3276 15.4533 20.3276 15.5254C20.3276 15.6046 20.3707 15.6696 20.4647 15.7204C20.5515 15.7783 20.6597 15.7996 20.7897 15.7996C20.9126 15.7996 21.0207 15.7707 21.1076 15.7275C21.1868 15.6767 21.2736 15.5975 21.3676 15.5975C21.4615 15.5975 21.5407 15.6696 21.6205 15.7204C21.7002 15.7712 21.8155 15.7996 21.9455 15.7996C22.0755 15.7996 22.1836 15.7707 22.2705 15.7204C22.3573 15.6625 22.4005 15.5975 22.4005 15.5254C22.4076 15.4533 22.3644 15.3807 22.2705 15.3304Z" fill="#D9152E"/>
<path d="M13.951 3.89505C15.8938 3.89505 20.581 7.91794 21.166 8.43083C21.202 8.46689 21.2599 8.51005 21.361 8.49583C21.5052 8.48161 21.5128 8.25767 21.5128 8.25767C21.5128 8.25767 21.5488 7.74478 21.5488 7.23189C21.5488 6.58189 21.0431 6.01872 21.0431 6.01872C21.0431 6.01872 15.7928 0.233215 13.951 0.233215C12.1091 0.233215 6.85885 6.01821 6.85885 6.01821C6.85885 6.01821 6.35307 6.589 6.35307 7.23138C6.35307 7.74427 6.38912 8.25716 6.38912 8.25716C6.38912 8.25716 6.39623 8.48111 6.54096 8.49533C6.64201 8.50954 6.6999 8.45927 6.73596 8.43032C7.32857 7.91794 12.0157 3.89505 13.951 3.89505Z" fill="#231F20"/>
<path d="M13.9508 9.21602C15.8937 9.21602 20.5808 13.2389 21.1658 13.7518C21.2019 13.7879 21.2598 13.831 21.3608 13.8168C21.505 13.8026 21.5126 13.5786 21.5126 13.5786C21.5126 13.5786 21.5487 13.0657 21.5487 12.5529C21.5487 11.9029 21.0429 11.3397 21.0429 11.3397C21.0429 11.3397 15.7926 5.55469 13.9508 5.55469C12.109 5.55469 6.8587 11.3397 6.8587 11.3397C6.8587 11.3397 6.35292 11.9105 6.35292 12.5529C6.35292 13.0657 6.38897 13.5786 6.38897 13.5786C6.38897 13.5786 6.39608 13.8026 6.54081 13.8168C6.64187 13.831 6.69976 13.7807 6.73581 13.7518C7.32843 13.2389 12.0155 9.21602 13.9508 9.21602Z" fill="#231F20"/>
<path d="M8.62395 5.1404C7.56211 6.01434 6.73895 6.83751 6.45711 7.12645C6.44289 7.4804 6.48606 8.24567 6.48606 8.24567C6.48606 8.24567 6.49317 8.51989 6.68817 8.34672L6.88317 8.17356C8.99922 6.23778 11.1803 4.54067 12.9211 3.7825C13.0439 3.73172 13.2461 3.69567 13.145 3.55856C13.0871 3.48645 12.8779 3.47172 12.7479 3.47934C10.9421 3.59512 8.70317 5.08251 8.62395 5.1404Z" fill="url(#paint0_linear_2_512)"/>
<path d="M19.2839 5.1404C20.3458 6.01434 21.1689 6.83751 21.4508 7.12645C21.465 7.4804 21.4218 8.24567 21.4218 8.24567C21.4218 8.24567 21.4147 8.51989 21.2197 8.34672L21.0247 8.17356C18.9087 6.23778 16.7347 4.54067 14.9868 3.7825C14.8639 3.73172 14.6618 3.69567 14.7629 3.55856C14.8208 3.48645 15.03 3.47172 15.16 3.47934C16.9658 3.59512 19.2047 5.08251 19.2839 5.1404Z" fill="url(#paint1_linear_2_512)"/>
<path d="M8.62395 10.4608C7.56211 11.3347 6.73895 12.1579 6.45711 12.4469C6.44289 12.8008 6.48606 13.5661 6.48606 13.5661C6.48606 13.5661 6.49317 13.8403 6.68817 13.6671L6.88317 13.494C8.99922 11.5582 11.1803 9.86107 12.9211 9.10291C13.0439 9.05213 13.2461 9.01607 13.145 8.87896C13.0871 8.80685 12.8779 8.79213 12.7479 8.79974C10.9421 8.91502 8.70317 10.4029 8.62395 10.4608Z" fill="url(#paint2_linear_2_512)"/>
<path d="M19.2834 10.4608C20.3453 11.3347 21.1684 12.1579 21.4503 12.4469C21.4645 12.8008 21.4213 13.5661 21.4213 13.5661C21.4213 13.5661 21.4142 13.8403 21.2192 13.6671L21.0242 13.494C18.9082 11.5582 16.7342 9.86107 14.9863 9.10291C14.8634 9.05213 14.6613 9.01607 14.7624 8.87896C14.8203 8.80685 15.0295 8.79213 15.1595 8.79974C16.9653 8.91502 19.2042 10.4029 19.2834 10.4608Z" fill="url(#paint3_linear_2_512)"/>
<path d="M20.9738 6.07734C20.9088 6.00523 15.7306 0.321289 13.9538 0.321289C12.1769 0.321289 6.99876 6.00523 6.93376 6.07734C6.92665 6.08445 6.50771 6.5684 6.45692 7.12445C6.73876 6.83551 7.56192 6.01234 8.62376 5.1384C8.62376 5.1384 8.94165 4.87129 9.4256 4.50262C10.4945 3.70078 12.3795 2.43684 13.9538 2.43684C15.528 2.43684 17.413 3.69367 18.4819 4.50262C18.9659 4.86367 19.2838 5.1384 19.2838 5.1384C20.3456 6.01234 21.1688 6.83551 21.4506 7.12445C21.3998 6.5684 20.9809 6.08445 20.9738 6.07734Z" fill="url(#paint4_linear_2_512)"/>
<path d="M20.9736 11.4036C20.9086 11.3315 15.7305 5.64755 13.9536 5.64755C12.1768 5.64755 6.99864 11.3315 6.93364 11.4036C6.92653 11.4107 6.50758 11.8947 6.4568 12.4507C6.73864 12.1618 7.5618 11.3386 8.62364 10.4647C8.62364 10.4647 8.94153 10.1976 9.42547 9.82888C10.4944 9.02704 12.3794 7.7631 13.9536 7.7631C15.5279 7.7631 17.4129 9.01994 18.4818 9.82888C18.9657 10.1899 19.2836 10.4647 19.2836 10.4647C20.3455 11.3386 21.1686 12.1618 21.4505 12.4507C21.3997 11.8947 20.9807 11.4107 20.9736 11.4036Z" fill="url(#paint5_linear_2_512)"/>
<path d="M21.0536 6.4413C18.1428 3.10446 14.9725 0.540516 14.0625 0.497352C13.9325 0.490242 13.9325 0.620242 13.9325 0.620242C13.9325 1.71813 13.9975 1.91313 14.7486 2.20208C14.8496 2.24524 17.6807 3.09024 21.0536 6.53524L21.1043 6.58602L21.0536 6.4413Z" fill="url(#paint6_linear_2_512)"/>
<path d="M21.0534 11.7637C18.1427 8.42682 14.9724 5.86287 14.0624 5.81971C13.9324 5.8126 13.9324 5.9426 13.9324 5.9426C13.9324 7.04049 13.9974 7.23549 14.7484 7.52444C14.8495 7.5676 17.6806 8.4126 21.0534 11.8576L21.1042 11.9084L21.0534 11.7637Z" fill="url(#paint7_linear_2_512)"/>
<defs>
<linearGradient id="paint0_linear_2_512" x1="6.46366" y1="5.91948" x2="21.5126" y2="6.02079" gradientUnits="userSpaceOnUse">
<stop stop-color="#B2AAAE"/>
<stop offset="0.5" stop-color="#655B5F"/>
<stop offset="0.9944" stop-color="#D8D4D6"/>
<stop offset="1" stop-color="#D8D4D6"/>
</linearGradient>
<linearGradient id="paint1_linear_2_512" x1="6.05246" y1="5.94115" x2="21.5858" y2="5.94115" gradientUnits="userSpaceOnUse">
<stop stop-color="#B2AAAE"/>
<stop offset="0.5" stop-color="#655B5F"/>
<stop offset="0.9944" stop-color="#D8D4D6"/>
<stop offset="1" stop-color="#D8D4D6"/>
</linearGradient>
<linearGradient id="paint2_linear_2_512" x1="6.4566" y1="11.2556" x2="21.5889" y2="11.2824" gradientUnits="userSpaceOnUse">
<stop stop-color="#B2AAAE"/>
<stop offset="0.5" stop-color="#655B5F"/>
<stop offset="0.9944" stop-color="#D8D4D6"/>
<stop offset="1" stop-color="#D8D4D6"/>
</linearGradient>
<linearGradient id="paint3_linear_2_512" x1="6.16647" y1="11.2612" x2="21.5853" y2="11.2612" gradientUnits="userSpaceOnUse">
<stop stop-color="#B2AAAE"/>
<stop offset="0.5" stop-color="#655B5F"/>
<stop offset="0.9944" stop-color="#D8D4D6"/>
<stop offset="1" stop-color="#D8D4D6"/>
</linearGradient>
<linearGradient id="paint4_linear_2_512" x1="6.4579" y1="3.86031" x2="21.4492" y2="3.67709" gradientUnits="userSpaceOnUse">
<stop stop-color="#655B5F"/>
<stop offset="0.5" stop-color="white"/>
<stop offset="1" stop-color="#655B5F"/>
</linearGradient>
<linearGradient id="paint5_linear_2_512" x1="6.22054" y1="9.04912" x2="21.582" y2="9.04912" gradientUnits="userSpaceOnUse">
<stop stop-color="#655B5F"/>
<stop offset="0.5" stop-color="white"/>
<stop offset="1" stop-color="#655B5F"/>
</linearGradient>
<linearGradient id="paint6_linear_2_512" x1="13.8728" y1="3.54151" x2="21.2174" y2="3.54148" gradientUnits="userSpaceOnUse">
<stop stop-color="#F0EEEF"/>
<stop offset="0.2809" stop-color="#655B5F"/>
<stop offset="0.5899" stop-color="#8B8186"/>
<stop offset="1" stop-color="#655B5F"/>
</linearGradient>
<linearGradient id="paint7_linear_2_512" x1="13.9027" y1="8.79487" x2="21.0722" y2="8.92929" gradientUnits="userSpaceOnUse">
<stop stop-color="#F0EEEF"/>
<stop offset="0.2809" stop-color="#655B5F"/>
<stop offset="0.5899" stop-color="#8B8186"/>
<stop offset="1" stop-color="#655B5F"/>
</linearGradient>
</defs>
</svg>
