<svg width="20" height="20" viewBox="0 0 20 20" fill="none" xmlns="http://www.w3.org/2000/svg">
<path d="M14.2776 3.87124L16.3946 5.98824M15.6386 2.00624L9.9116 7.73324C9.61569 8.02874 9.41387 8.40522 9.3316 8.81524L8.8026 11.4632L11.4506 10.9332C11.8606 10.8512 12.2366 10.6502 12.5326 10.3542L18.2596 4.62724C18.4317 4.45514 18.5682 4.25083 18.6613 4.02597C18.7545 3.80112 18.8024 3.56012 18.8024 3.31674C18.8024 3.07335 18.7545 2.83235 18.6613 2.6075C18.5682 2.38264 18.4317 2.17833 18.2596 2.00624C18.0875 1.83414 17.8832 1.69762 17.6583 1.60449C17.4335 1.51135 17.1925 1.46341 16.9491 1.46341C16.7057 1.46341 16.4647 1.51135 16.2399 1.60449C16.015 1.69762 15.8107 1.83414 15.6386 2.00624Z" stroke="#0455A8" stroke-width="2" stroke-linecap="round" stroke-linejoin="round"/>
<path d="M16.8026 13.4632V16.4632C16.8026 16.9937 16.5919 17.5024 16.2168 17.8774C15.8417 18.2525 15.333 18.4632 14.8026 18.4632H3.8026C3.27216 18.4632 2.76346 18.2525 2.38838 17.8774C2.01331 17.5024 1.8026 16.9937 1.8026 16.4632V5.46323C1.8026 4.93279 2.01331 4.42409 2.38838 4.04901C2.76346 3.67394 3.27216 3.46323 3.8026 3.46323H6.8026" stroke="#0455A8" stroke-width="2" stroke-linecap="round" stroke-linejoin="round"/>
</svg>
