<svg width="32" height="31" viewBox="0 0 32 31" fill="none" xmlns="http://www.w3.org/2000/svg">
<g clip-path="url(#clip0_2_452)">
<path d="M31.454 15.4217C31.454 23.9824 24.5143 30.9219 15.954 30.9219C7.39358 30.9219 0.453995 23.9824 0.453995 15.4217C0.453995 6.86157 7.39358 -0.078125 15.954 -0.078125C24.5143 -0.078125 31.454 6.86157 31.454 15.4217Z" fill="#231F20"/>
<path d="M30.91 15.4218C30.91 23.6823 24.2139 30.3782 15.9538 30.3782C7.69366 30.3782 0.997452 23.6823 0.997452 15.4218C0.997452 7.16192 7.69377 0.46582 15.954 0.46582C24.214 0.46582 30.91 7.16192 30.91 15.4218Z" fill="#BDBCBC"/>
<path d="M3.92522 7.88924C3.92522 7.90164 2.26582 8.15405 2.26751 8.16194C2.2756 8.20313 2.18155 16.6982 3.69697 16.2707C4.69475 15.8012 4.15788 10.2658 4.15788 11.0104C4.15788 12.0481 4.25865 13.7501 4.65682 16.4234C5.10553 19.4345 4.91638 19.8097 5.1256 20.4582C4.63885 19.9855 3.88161 19.7729 3.88161 19.7729L4.95536 23.4022L5.74613 23.3941C5.74613 23.3941 5.75748 23.1503 5.76788 23.1387C5.78921 23.1385 6.54897 23.1949 7.07093 24.1503C10.0915 29.6785 18.0439 27.5527 15.9621 27.6726L19.239 27.2781C9.64183 28.92 7.84152 24.4949 7.35897 23.6115C7.05664 23.1685 6.18748 22.7043 5.64104 22.9686C5.64104 22.9686 6.97478 23.0219 6.91551 22.6683C7.33228 23.073 5.87916 22.0132 5.87916 22.0132L5.9523 22.243C6.17771 22.2658 6.0762 22.0224 6.31358 21.9827L6.01893 21.8478C5.9812 21.8015 6.18265 21.561 5.46313 16.7323C5.0678 14.0793 5.14756 12.0138 5.14756 10.986C5.14756 9.9902 5.08252 9.91979 5.08441 9.91244L4.49961 9.53045L4.38749 9.50776C4.22629 9.47497 4.06656 9.42337 3.99731 9.38502C4.03324 9.33153 4.05395 9.26028 4.05395 9.14269C4.05395 9.02888 4.04176 8.88061 4.02589 8.68915C4.00498 8.43295 4.01528 7.51514 3.97986 7.82178C2.11639 23.9943 4.69591 6.01159 4.37908 6.35711L4.56035 6.15177C5.43812 5.13854 8.5045 2.77225 16.4165 2.5873C24.7835 2.39121 24.8214 5.44739 24.8501 5.49205L27.0175 6.56559C26.989 6.51967 24.1737 1.84729 15.6767 2.04621C7.6696 2.23369 5.29269 4.9765 4.39789 6.00928L4.22093 6.2102C3.85313 6.61141 3.4309 6.61509 3.4309 7.20619C3.4309 7.52187 3.07708 7.94231 3.09862 8.20334C4.1316 10.0178 3.77505 9.12094 3.92522 7.88924ZM26.8057 7.1113C26.6231 7.18969 26.6507 7.48582 26.6888 7.89544C26.7167 8.20071 26.749 8.54676 26.6888 8.78835L26.8977 8.84099C26.9668 8.56368 26.9326 8.19809 26.9029 7.87537C26.8841 7.67024 26.855 7.35982 26.8987 7.30476C26.904 7.3118 26.9643 9.61589 27.4392 10.1652C28.1942 11.0393 27.8177 10.5363 27.8177 12.0595C27.8177 12.8104 28.3794 13.6855 28.357 13.9919C28.0773 13.6377 27.9977 12.7265 27.9265 11.9092C27.8431 10.9574 27.7719 10.1357 27.4335 9.86273C27.8506 9.49693 26.4011 7.58029 26.5 8.87819C26.5681 9.33216 26.3461 7.85887 26.0237 7.3573C25.0363 5.82044 22.9904 4.02475 15.8814 3.77791C9.36461 3.55166 6.13483 6.22649 5.30467 7.04247L5.41248 6.85636L4.35354 6.31055L4.05395 9.48096L4.50718 8.76565C4.50718 8.76565 5.23878 7.43895 5.25223 7.40785C5.36646 7.27323 8.45437 3.73682 15.8738 3.99449C23.7824 4.26897 25.2263 6.51557 25.8432 7.47489C26.1401 7.93748 26.2181 8.45439 26.2874 8.91045C26.3777 9.51112 26.4641 10.0783 27.1385 9.98757C27.2005 9.97948 27.2514 9.99335 27.2988 10.0317C27.566 10.247 27.6399 11.1016 27.7122 11.9278C27.8068 13.0209 27.8974 14.0533 28.3996 14.3063L28.5395 14.377L28.5546 14.2199C28.5735 14.0193 29.0065 9.2938 27.6685 7.74454C27.1416 7.13452 26.9475 7.05014 26.8057 7.1113ZM29.6661 11.0282C29.5307 10.3999 29.3274 9.78817 29.0598 9.20375C29.2118 9.55399 29.4546 10.1783 29.6661 11.0282ZM29.0599 9.20375C29.0296 9.13289 28.998 9.06254 28.9653 8.99274C29.0001 9.06335 29.0282 9.13323 29.0599 9.20375ZM28.386 7.63924C30.1541 9.34414 29.8368 13.7433 29.8368 13.7433L28.9768 12.7441V17.0065L28.3814 18.2051C27.3225 23.8663 24.8088 28.8615 14.9511 28.595C5.09376 28.3286 3.57234 23.0672 2.64602 18.0721C1.7198 13.0771 3.04293 7.61571 3.04293 7.61571C0.131869 16.2737 3.57234 22.8007 3.57234 22.8007C3.57234 22.8007 5.22606 28.9279 15.4144 28.8615C25.6023 28.795 27.1905 23.1338 27.1905 23.1338L27.3756 24.5627C27.3756 24.5627 29.7421 22.3979 30.4696 17.8689C30.8384 15.5762 29.4135 8.62988 28.386 7.63924ZM28.9653 8.99274C28.9311 8.92075 28.9101 8.88114 28.9101 8.88114C28.9294 8.91855 28.9472 8.95575 28.9653 8.99274Z" fill="#231F20"/>
<mask id="mask0_2_452" style="mask-type:luminance" maskUnits="userSpaceOnUse" x="0" y="1" width="32" height="29">
<path d="M29.6257 13.095C29.631 13.1476 29.6372 13.1972 29.643 13.2502C29.8129 14.9429 29.8909 14.4899 29.6257 13.095ZM4.30939 5.99247C4.30939 5.99247 5.65654 4.75006 6.6184 3.83473C6.61845 3.83473 5.33569 4.5538 4.30939 5.99247ZM3.9509 22.4799C4.71365 24.0185 5.46418 25.0198 5.46418 25.0198C5.46418 25.0198 4.74896 23.9409 3.9509 22.4799ZM28.9373 7.69238L28.6866 6.96192L30.9253 7.75775L28.7594 6.64768L30.9591 5.34235L28.5416 6.33349L28.9285 3.91621L28.1437 6.25128L27.5748 6.09059C26.3819 4.31699 24.7428 3.42938 22.6805 2.44011C18.847 0.600723 13.7375 1.0885 13.7375 1.0885C13.7375 1.0885 19.7696 1.16525 24.3837 3.90025C25.3367 4.46509 26.1312 5.24838 26.7907 6.1336L25.7949 6.18851L26.9363 6.33411C27.0439 6.48565 27.1477 6.63979 27.2478 6.79641L25.9227 7.56186L27.3523 6.96172C27.4992 7.19967 27.6388 7.44204 27.771 7.68849L27.2057 9.45798L27.8738 7.88313C28.864 9.79817 29.3856 11.8326 29.6257 13.095C29.3486 10.4525 28.865 8.56887 28.1816 7.15594L28.2315 7.03863C28.2315 7.03863 30.7328 10.3078 30.2841 15.6696C29.8352 21.0314 28.5525 22.9276 27.2695 24.2354L27.2056 23.5813C27.2056 23.5813 25.3459 29.1395 16.1104 29.0085C6.87482 28.8776 6.16937 25.8702 6.16937 25.8702L5.65633 25.6081C5.65633 25.6081 3.47587 23.9086 2.12898 19.3967C0.781997 14.885 2.06476 11.2233 2.06476 11.2233C2.06476 11.2233 1.35937 14.2311 1.87246 17.3042C2.13829 18.8968 3.09241 20.9092 3.95085 22.4798C3.32075 21.2094 2.68191 19.5725 2.44973 17.8273C1.93637 13.9694 2.06476 11.354 2.70604 9.39256C3.34732 7.43113 3.73229 6.58081 3.73229 6.58081C3.73229 6.58081 1.03873 9.7196 0.974557 16.3889C0.910387 23.0585 6.55413 27.6354 9.05534 28.6163C11.5566 29.5971 19.4452 30.9046 24.1911 27.5702C28.9373 24.2354 28.6164 23.3856 30.1556 20.312C31.6953 17.2389 31.0538 11.0272 28.9373 7.69238ZM27.814 6.46932C27.8089 6.46079 27.8042 6.45226 27.799 6.44415L27.8469 6.45018L27.814 6.46932ZM28.0345 6.86297C28.0075 6.81185 27.9805 6.75964 27.9529 6.70967L28.1036 6.64623L28.0345 6.86297ZM5.46418 6.58086C5.84879 5.92694 7.83695 4.75 7.83695 4.75C7.83695 4.75 6.74654 5.40413 5.5282 6.84258C4.3094 8.28094 5.97718 6.71175 8.22196 5.20772C10.4665 3.704 13.6091 3.83483 13.6091 3.83483C13.6091 3.83483 12.5832 3.05009 8.67084 4.2926L12.4548 2.65784C12.4548 2.65784 6.68283 3.9002 5.0152 6.25403C3.34737 8.60787 5.07912 7.23477 5.46418 6.58086ZM24.7699 6.37411C25.4775 7.10899 25.9872 7.75775 25.9872 7.75775C25.9872 7.75775 25.7787 7.09677 24.7699 6.37411ZM2.83448 15.9967C3.53993 22.9277 6.49027 25.8703 6.49027 25.8703C6.49027 25.8703 8.73485 28.0933 15.7256 28.4201C22.716 28.747 24.9612 26.0009 25.1537 25.5432C25.346 25.0855 24.2554 25.8046 23.9348 25.6737C23.6142 25.5432 24.9612 23.1237 24.9612 23.1237C24.2556 25.7392 25.346 22.7314 26.0512 23.0585C26.7568 23.3851 24.6403 24.2354 25.346 24.8893C26.0512 25.5432 27.5259 20.9007 28.4885 18.8082C29.4505 16.7159 29.1297 14.5582 29.0658 13.185C29.0018 11.8118 28.6809 11.2233 28.6809 11.2233L28.4885 14.4929C28.4885 14.4929 28.617 14.9503 27.5905 12.6617L26.7569 10.4387C26.1797 20.6392 23.8705 24.4972 23.8705 24.4972C23.8705 24.4972 23.0369 27.047 16.3027 27.1125C9.56874 27.1775 8.60651 25.4121 8.60651 25.4121C6.4261 22.5352 5.14334 16.3889 5.46429 12.3351C5.78482 8.28104 5.46429 7.1692 8.35015 5.92689C11.2362 4.68474 15.5972 4.5537 15.5972 4.5537C20.8355 4.40643 23.4689 5.44157 24.77 6.374C24.6023 6.19946 24.4307 6.02866 24.2554 5.86174C23.2935 4.94646 14.3786 3.04998 9.69698 4.88078C5.01521 6.71164 4.69451 8.47698 5.0152 13.8388C5.336 19.2006 7.00347 23.6467 8.15785 25.3469C9.31222 27.047 13.4169 27.5701 13.4169 27.5701C7.8371 27.4392 7.19583 24.4972 6.87508 23.9736C6.55434 23.4505 5.59232 22.4042 5.39996 23.2545C5.20766 24.1044 3.48325 18.9068 3.80399 18.6451C4.12453 18.3835 6.10541 21.2931 6.10541 21.2931C6.10541 21.2931 5.39996 19.8544 4.69451 15.8005C3.98901 11.7467 5.07917 9.71965 4.37372 9.58882C3.66827 9.45798 5.25103 15.5707 3.23053 15.8426C2.65482 15.9202 3.13256 10.4363 3.38939 9.32475C3.64576 8.21297 3.92505 7.88853 3.92505 7.88853C3.92505 7.88853 2.12909 9.06579 2.83448 15.9967Z" fill="white"/>
</mask>
<g mask="url(#mask0_2_452)">
<path d="M4.30939 5.99247C4.30939 5.99247 5.65654 4.75006 6.6184 3.83473C6.61845 3.83473 5.33569 4.5538 4.30939 5.99247ZM3.9509 22.4799C4.71365 24.0185 5.46418 25.0198 5.46418 25.0198C5.46418 25.0198 4.74896 23.9409 3.9509 22.4799ZM28.9373 7.69238L28.6866 6.96192L30.9253 7.75775L28.7594 6.64768L30.9591 5.34235L28.5416 6.33349L28.9285 3.91621L28.1437 6.25128L27.5748 6.09059C26.3819 4.31699 24.7428 3.42938 22.6805 2.44011C18.847 0.600723 13.7375 1.0885 13.7375 1.0885C13.7375 1.0885 19.7696 1.16525 24.3837 3.90025C25.3367 4.46509 26.1312 5.24838 26.7907 6.1336L25.7949 6.18851L26.9363 6.33411C27.0439 6.48565 27.1477 6.63979 27.2478 6.79641L25.9227 7.56186L27.3523 6.96172C27.4992 7.19967 27.6388 7.44204 27.771 7.68849L27.2057 9.45798L27.8738 7.88313C28.864 9.79817 29.3856 11.8326 29.6257 13.095C29.3486 10.4525 28.865 8.56887 28.1816 7.15594L28.2315 7.03863C28.2315 7.03863 30.7328 10.3078 30.2841 15.6696C29.8352 21.0314 28.5525 22.9276 27.2695 24.2354L27.2056 23.5813C27.2056 23.5813 25.3459 29.1395 16.1104 29.0085C6.87482 28.8776 6.16937 25.8702 6.16937 25.8702L5.65633 25.6081C5.65633 25.6081 3.47587 23.9086 2.12898 19.3967C0.781997 14.885 2.06476 11.2233 2.06476 11.2233C2.06476 11.2233 1.35937 14.2311 1.87246 17.3042C2.13829 18.8968 3.09241 20.9092 3.95085 22.4798C3.32075 21.2094 2.68191 19.5725 2.44973 17.8273C1.93637 13.9694 2.06476 11.354 2.70604 9.39256C3.34732 7.43113 3.73229 6.58081 3.73229 6.58081C3.73229 6.58081 1.03873 9.7196 0.974557 16.3889C0.910387 23.0585 6.55413 27.6354 9.05534 28.6163C11.5566 29.5971 19.4452 30.9046 24.1911 27.5702C28.9373 24.2354 28.6164 23.3856 30.1556 20.312C31.6953 17.2389 31.0538 11.0272 28.9373 7.69238ZM27.814 6.46932C27.8089 6.46079 27.8042 6.45226 27.799 6.44415L27.8469 6.45018L27.814 6.46932ZM28.0345 6.86297C28.0075 6.81185 27.9805 6.75964 27.9529 6.70967L28.1036 6.64623L28.0345 6.86297ZM5.46418 6.58086C5.84879 5.92694 7.83695 4.75 7.83695 4.75C7.83695 4.75 6.74654 5.40413 5.5282 6.84258C4.3094 8.28094 5.97718 6.71175 8.22196 5.20772C10.4665 3.704 13.6091 3.83483 13.6091 3.83483C13.6091 3.83483 12.5832 3.05009 8.67084 4.2926L12.4548 2.65784C12.4548 2.65784 6.68283 3.9002 5.0152 6.25403C3.34737 8.60787 5.07912 7.23477 5.46418 6.58086ZM24.7699 6.37411C25.4775 7.10899 25.9872 7.75775 25.9872 7.75775C25.9872 7.75775 25.7787 7.09677 24.7699 6.37411ZM2.83448 15.9967C3.53993 22.9277 6.49027 25.8703 6.49027 25.8703C6.49027 25.8703 8.73485 28.0933 15.7256 28.4201C22.716 28.747 24.9612 26.0009 25.1537 25.5432C25.346 25.0855 24.2554 25.8046 23.9348 25.6737C23.6142 25.5432 24.9612 23.1237 24.9612 23.1237C24.2556 25.7392 25.346 22.7314 26.0512 23.0585C26.7568 23.3851 24.6403 24.2354 25.346 24.8893C26.0512 25.5432 27.5259 20.9007 28.4885 18.8082C29.4505 16.7159 29.1297 14.5582 29.0658 13.185C29.0018 11.8118 28.6809 11.2233 28.6809 11.2233L28.4885 14.4929C28.4885 14.4929 28.617 14.9503 27.5905 12.6617L26.7569 10.4387C26.1797 20.6392 23.8705 24.4972 23.8705 24.4972C23.8705 24.4972 23.0369 27.047 16.3027 27.1125C9.56874 27.1775 8.60651 25.4121 8.60651 25.4121C6.4261 22.5352 5.14334 16.3889 5.46429 12.3351C5.78482 8.28104 5.46429 7.1692 8.35015 5.92689C11.2362 4.68474 15.5972 4.5537 15.5972 4.5537C20.8355 4.40643 23.4689 5.44157 24.77 6.374C24.6023 6.19946 24.4307 6.02866 24.2554 5.86174C23.2935 4.94646 14.3786 3.04998 9.69698 4.88078C5.01521 6.71164 4.69451 8.47698 5.0152 13.8388C5.336 19.2006 7.00347 23.6467 8.15785 25.3469C9.31222 27.047 13.4169 27.5701 13.4169 27.5701C7.8371 27.4392 7.19583 24.4972 6.87508 23.9736C6.55434 23.4505 5.59232 22.4042 5.39996 23.2545C5.20766 24.1044 3.48325 18.9068 3.80399 18.6451C4.12453 18.3835 6.10541 21.2931 6.10541 21.2931C6.10541 21.2931 5.39996 19.8544 4.69451 15.8005C3.98901 11.7467 5.07906 9.71965 4.37356 9.58882C3.66806 9.45798 5.25103 15.5707 3.23053 15.8426C2.65482 15.9202 3.13256 10.4363 3.38939 9.32475C3.64576 8.21297 3.92505 7.88853 3.92505 7.88853C3.92505 7.88853 2.12909 9.06579 2.83448 15.9967Z" fill="url(#paint0_linear_2_452)"/>
</g>
<path d="M16.9063 26.6827C16.9172 26.6822 18.5135 26.6039 19.9059 26.2901C21.1159 26.0177 22.1866 25.4971 22.1973 25.492L22.2012 25.4899L22.2055 25.4879C22.2115 25.4854 22.808 25.2278 23.175 24.8771C23.547 24.5214 23.7161 24.0561 23.7178 24.0515C23.7253 24.0313 24.3766 22.2954 24.8692 20.4412C25.3225 18.7349 25.6335 16.8486 25.6367 16.8297C25.6415 16.8049 26.0171 14.8989 26.1226 12.8715C26.2113 11.1676 26.0352 9.23296 26.0331 9.21352C26.032 9.19891 25.9414 8.05328 25.4816 7.30413C25.0684 6.63106 24.2707 6.30046 24.2626 6.2971L24.2557 6.29437L24.249 6.2908C24.2397 6.28617 23.3135 5.82212 21.5564 5.43982C20.155 5.13497 18.2071 4.91734 16.5942 4.88592C14.7502 4.84966 12.7707 4.97829 11.2995 5.22976C9.535 5.53135 8.38863 5.97943 8.37707 5.98395L8.36751 5.98752L8.35763 5.99015C8.34617 5.9932 7.20285 6.30666 6.60187 7.06979C5.99123 7.845 5.89234 9.11852 5.89139 9.13134L5.89066 9.13912C5.88887 9.15215 5.76088 10.2505 5.76088 11.5966C5.76088 11.8379 5.76487 12.0872 5.77475 12.3397C5.84358 14.1326 6.15705 16.1198 6.1601 16.1397C6.16377 16.1593 6.58842 18.4922 7.07276 20.4583C7.43152 21.9158 7.89872 23.2053 7.90345 23.2181L7.9065 23.2273L7.90892 23.2368C7.9107 23.2433 8.06991 23.8975 8.32884 24.3541C8.55435 24.7514 8.88631 24.985 8.88978 24.9869L8.89524 24.9907L8.9006 24.9951C8.90302 24.9969 9.12895 25.1794 9.47573 25.3695C9.87505 25.588 10.4101 25.8226 10.4328 25.832C10.4706 25.8469 11.6501 26.2984 13.2052 26.5036C14.8292 26.718 16.8856 26.683 16.9063 26.6827Z" fill="url(#paint1_radial_2_452)" stroke="#6D0115" stroke-width="1.83704"/>
<path d="M9.85869 25.4329C9.78828 25.4006 9.74993 25.382 9.74993 25.382C9.74593 25.3802 9.72586 25.3715 9.69339 25.3566L9.68162 25.2867C9.40315 23.7512 8.97808 20.9458 8.83905 17.5248C8.66713 13.502 8.67375 8.57162 8.69004 6.18346V6.0107C8.73702 5.99494 8.78567 5.97897 8.8359 5.96289L8.83664 6.13597C8.82014 8.50373 8.81226 13.4715 8.98523 17.5188C9.12656 20.9995 9.56456 23.84 9.84146 25.3491L9.85869 25.4329Z" fill="#6D0115"/>
<path d="M10.3186 25.6298C10.2623 25.607 10.2093 25.585 10.1601 25.5644L10.1464 25.4567C9.94364 24.0107 9.58477 21.0626 9.41422 17.2914C9.23305 13.2824 9.26573 8.24332 9.29411 5.95247L9.29442 5.82374C9.34203 5.81008 9.39078 5.79642 9.44049 5.78265L9.4408 5.92473C9.41243 8.19981 9.3788 13.2621 9.56039 17.2851C9.73483 21.1416 10.1064 24.1349 10.3058 25.5377L10.3186 25.6298ZM13.7573 5.2029C13.794 9.64378 13.9002 22.4542 13.9312 26.1652L13.934 26.4787C13.8865 26.4736 13.8379 26.4682 13.7887 26.4625L13.785 26.1647C13.7541 22.4564 13.6481 9.67919 13.6112 5.22234L13.6075 5.09246C13.6567 5.08825 13.706 5.08415 13.7552 5.08037L13.7573 5.2029ZM15.6611 5.14521L15.7304 26.2708L15.7315 26.5672C15.6802 26.5678 15.631 26.5682 15.5842 26.5684V26.2321C15.5695 21.8233 15.5271 8.91775 15.5146 5.09719L15.5139 4.99777L15.6568 4.99609L15.6611 5.14521ZM16.3921 5.16454L16.2873 26.2711L16.2871 26.557C16.2363 26.5583 16.1872 26.5595 16.1385 26.5605L16.1406 26.3287C16.159 22.5796 16.2241 9.45106 16.2457 5.13596L16.2422 4.99662C16.2932 4.99714 16.3439 4.99767 16.3946 4.99851L16.3921 5.16454ZM18.3681 26.1953C18.4729 24.4584 18.6712 20.7764 18.7527 16.61C18.8357 12.3637 18.7989 7.53126 18.7731 5.26175L18.7648 5.11568C18.824 5.12093 18.8828 5.12619 18.9413 5.13165L18.9494 5.3187C18.9747 7.61333 19.0106 12.4012 18.9284 16.6132C18.8475 20.7449 18.652 24.401 18.5464 26.1584L18.531 26.4094C18.4695 26.4168 18.4162 26.4238 18.3537 26.4304L18.3681 26.1953ZM23.3619 24.4738C23.2926 24.5677 23.2157 24.6557 23.1318 24.7368L23.202 24.3642C23.5076 22.7812 23.9027 20.3325 24.0999 17.4571C24.3343 14.0389 24.3643 9.3651 24.3595 6.70929L24.3626 6.45488C24.4196 6.48641 24.4774 6.51982 24.535 6.55576L24.5354 6.89487C24.5387 9.58126 24.5046 14.1243 24.2754 17.469C24.0817 20.2917 23.6978 22.7054 23.3939 24.2964L23.3619 24.4738ZM25.0511 18.7396C25.191 17.6398 25.299 16.5361 25.375 15.4301C25.5518 12.8232 25.5563 9.87003 25.5338 7.99048L25.53 7.67681C25.6013 7.83758 25.6617 8.00293 25.711 8.17175L25.7144 8.46326C25.7302 10.3451 25.7133 13.04 25.5505 15.4417C25.5171 15.935 25.4769 16.4277 25.4301 16.9198L25.3764 17.4481C25.2465 18.1005 25.1089 18.7514 24.9635 19.4006L25.0511 18.7396Z" fill="#6D0115"/>
<path d="M22.7397 25.0452C22.684 25.083 22.6175 25.1261 22.5424 25.1714L22.5958 24.8716C22.8886 23.259 23.3446 20.3323 23.5239 16.9314C23.7204 13.1953 23.7211 8.75429 23.7046 6.48068L23.6978 6.15881C23.7479 6.17646 23.8071 6.19821 23.8725 6.22438L23.8807 6.52429C23.8968 8.81304 23.8949 13.2247 23.6992 16.9403C23.525 20.2477 23.0894 23.1084 22.7953 24.7538L22.7396 25.0451L22.7397 25.0452ZM20.5827 25.7845C20.7213 24.282 20.9752 21.1718 21.0972 17.4197C21.2342 13.2075 21.2347 8.21584 21.2246 5.80467L21.2194 5.46167C21.2804 5.47428 21.3407 5.48689 21.3999 5.49971L21.4005 5.83168C21.4106 8.25472 21.4095 13.2266 21.2729 17.4254C21.1518 21.1527 20.9004 24.248 20.7612 25.7659L20.7433 25.9504C20.6853 25.9675 20.6272 25.9851 20.5626 26.0031L20.5827 25.7845ZM19.9759 25.9264C20.1279 24.6505 20.3771 22.1773 20.48 18.9607C20.6298 14.2805 20.6113 8.3783 20.5918 5.64694L20.5883 5.34314C20.6465 5.35302 20.704 5.363 20.7607 5.3734L20.7673 5.69097C20.7868 8.44293 20.8045 14.309 20.6552 18.9663C20.5539 22.1335 20.311 24.5819 20.1577 25.8806L20.1293 26.1158C20.071 26.13 20.0086 26.1457 19.947 26.1599L19.9759 25.9264ZM19.4837 26.0298C19.6027 24.6808 19.808 22.0087 19.9044 18.7579C20.0391 14.2148 20.0044 8.46195 19.9719 5.46262L19.9684 5.24825C20.0283 5.25623 20.0875 5.26464 20.1457 5.27315L20.1489 5.55993C20.1808 8.587 20.2134 14.2667 20.08 18.7629C19.9851 21.9634 19.7847 24.604 19.665 25.9766L19.6432 26.2256C19.5827 26.2381 19.5257 26.2497 19.4631 26.2617L19.4837 26.0299V26.0298ZM18.9126 26.1446C19.0135 24.5687 19.2041 21.2763 19.2874 17.7447C19.3982 13.0502 19.4035 7.81336 19.3987 5.36195L19.3937 5.17742C19.4532 5.18414 19.5123 5.19077 19.5711 5.1976L19.5747 5.40566C19.5794 7.8761 19.5735 13.0803 19.4633 17.7487C19.3809 21.2382 19.1941 24.4944 19.0921 26.0946L19.077 26.3308C19.0143 26.3413 18.9637 26.3501 18.8991 26.3599L18.9126 26.1445V26.1446ZM18.3086 5.27988C18.301 7.78867 18.2759 13.4803 18.1947 18.3351C18.1498 20.9431 18.0746 23.5504 17.9691 26.1566L17.9555 26.4675C17.906 26.4717 17.8561 26.4759 17.8065 26.4799L17.821 26.2036C17.8825 24.6969 17.9913 21.7312 18.0483 18.3327C18.1303 13.454 18.1553 7.72993 18.1628 5.24152L18.1638 5.06929C18.213 5.07275 18.2624 5.07601 18.3113 5.07959L18.3086 5.27988ZM17.5854 5.16439C17.6058 7.37852 17.6361 11.7115 17.6091 15.7948C17.5796 20.2148 17.484 24.435 17.4386 26.2522L17.4332 26.5065C17.3833 26.5096 17.3337 26.5128 17.2842 26.5155L17.291 26.2998C17.3362 24.5123 17.4331 20.2549 17.4627 15.7935C17.4897 11.7343 17.4599 7.42749 17.4396 5.20274L17.4381 5.02851C17.4868 5.03072 17.5356 5.03293 17.5842 5.03534L17.5854 5.16439ZM17.0111 5.15472C17.0411 7.69409 17.0829 12.2391 17.0626 16.5255C17.0437 20.5135 16.9583 24.333 16.9069 26.3286L16.9025 26.5351L16.755 26.5414L16.7611 26.2997C16.8126 24.2977 16.8971 20.4948 16.916 16.5249C16.9364 12.2598 16.8952 7.73897 16.865 5.19318L16.8616 5.00781L17.009 5.01202L17.0111 5.15472ZM11.8397 26.1322C11.7887 26.1195 11.7382 26.1065 11.688 26.093L11.6792 25.998C11.5563 24.6721 11.3091 21.6903 11.207 18.1902C11.0764 13.7252 11.1198 8.1448 11.1518 5.51695L11.1507 5.40188C11.1995 5.39347 11.2485 5.38507 11.2982 5.37687L11.2985 5.49341C11.2666 8.10907 11.2224 13.7091 11.3533 18.1862C11.4569 21.7314 11.7093 24.7439 11.8301 26.0392L11.8397 26.1322ZM10.8479 25.8308C10.7952 25.8119 10.7436 25.7933 10.6933 25.7748L10.6813 25.6651C10.4575 23.7988 10.0249 19.7671 9.88775 15.4899C9.77163 11.8712 9.87199 7.83239 9.93956 5.80131L9.94218 5.6524C9.99073 5.64063 10.0399 5.62876 10.0897 5.61709L10.0878 5.7454C10.0204 7.7541 9.91686 11.834 10.034 15.4856C10.1731 19.8231 10.6165 23.9078 10.8367 25.7321L10.8479 25.8308ZM6.68277 18.3919C6.50412 17.5218 6.39967 16.8863 6.39778 16.8751L6.37266 16.494C6.26968 15.192 6.177 13.7334 6.15545 12.4897C6.12992 11.0192 6.14074 9.54884 6.15766 8.44913L6.15157 8.30894C6.19559 8.1352 6.25005 7.96427 6.31466 7.79708L6.30205 8.57891C6.28628 9.66233 6.27725 11.0747 6.30205 12.4875C6.32926 14.061 6.4706 15.9795 6.6028 17.4877L6.68277 18.3919ZM7.95492 23.0353C7.85352 22.7379 7.7374 22.3873 7.61697 22.0041L7.52776 21.4896C7.29972 20.1413 7.09733 18.7091 7.04006 17.609C6.74172 13.9521 6.72659 9.73085 6.7454 7.48382L6.74908 7.07042C6.79542 7.01966 6.84344 6.97164 6.89231 6.92677L6.89315 7.31779C6.87224 9.51458 6.88054 13.8534 7.18602 17.5994C7.25275 18.882 7.51767 20.6182 7.78994 22.1446L7.95492 23.0353ZM8.67412 23.8046C8.37348 22.3223 8.00253 20.1359 7.81054 17.6362C7.51262 13.757 7.52292 9.19229 7.55224 6.93402L7.55571 6.46754C7.51304 6.48951 7.46208 6.51704 7.40554 6.55014L7.40575 6.93895C7.37654 9.20237 7.36666 13.7667 7.66457 17.6471C7.85583 20.1372 8.22426 22.3175 8.5248 23.8043L8.71185 24.6865C8.74422 24.723 8.77847 24.759 8.81483 24.7937C8.8411 24.8187 8.86885 24.8436 8.89732 24.8679L8.67412 23.8046ZM11.3218 25.9074C11.1858 24.6846 10.9453 22.2082 10.8458 19.2194C10.6819 14.302 10.6702 8.16445 10.6735 5.6151L10.6721 5.49078C10.6222 5.50055 10.5728 5.51075 10.5241 5.52084L10.5271 5.62907C10.5238 8.1881 10.5358 14.3139 10.6994 19.2242C10.7969 22.1466 11.0288 24.5804 11.1666 25.8346L11.1781 25.9425C11.2281 25.9588 11.279 25.9747 11.3305 25.9903L11.3218 25.9073V25.9074Z" fill="#6D0115"/>
<path d="M8.21162 6.18259C8.15761 6.20329 8.10791 6.22283 8.06251 6.24112L8.05978 6.46096C8.0107 8.75601 7.94639 13.3445 8.12871 16.3596C8.38743 20.6353 8.92336 23.6661 9.18818 24.9677L9.21287 25.0959C9.26909 25.1313 9.33298 25.169 9.38574 25.1988L9.35284 25.0415C9.09749 23.8074 8.54033 20.7365 8.27499 16.351C8.09141 13.3158 8.15835 8.68108 8.20732 6.40789L8.21162 6.17691M11.9283 5.28075L11.7803 5.30198L11.7827 5.42492C11.7574 7.81518 11.7249 12.5425 11.8022 16.6813C11.8757 20.6167 12.1172 24.2054 12.2533 25.9822L12.2706 26.2293C12.3205 26.2394 12.3705 26.2494 12.4205 26.2589L12.4045 26.0409C12.2696 24.2914 12.023 20.6628 11.9484 16.6786C11.8709 12.5351 11.9037 7.80121 11.9291 5.41526L11.9283 5.28075ZM12.5496 5.20015C12.4996 5.20614 12.4498 5.21213 12.4002 5.21833L12.3998 5.33812C12.3619 7.28713 12.3057 11.3195 12.3878 15.3346C12.4765 19.9006 12.7155 24.2112 12.8309 26.1049L12.8441 26.334C12.8945 26.342 12.9444 26.3501 12.9943 26.3577L12.9777 26.1073C12.8626 24.2209 12.6229 19.9044 12.5342 15.3317C12.4522 11.3105 12.5086 7.27168 12.5465 5.32867L12.5496 5.20015ZM13.1483 5.1351C13.0996 5.13972 13.0508 5.14487 13.0021 5.14981L13.0011 5.27108C12.9848 7.36279 12.9622 11.7603 13.0124 16.0268C13.0612 20.1642 13.186 24.2546 13.2487 26.1279L13.2575 26.3964C13.307 26.4032 13.3563 26.4099 13.4046 26.4163L13.3949 26.127C13.3324 24.256 13.2074 20.1639 13.1587 16.025C13.1082 11.739 13.1313 7.32055 13.1476 5.24187L13.1483 5.1351ZM14.4179 5.03622C14.367 5.03916 14.316 5.042 14.2651 5.04515L14.2688 5.1268C14.2941 8.96124 14.3809 22.0345 14.4089 26.2716L14.4113 26.5252C14.4631 26.5297 14.5123 26.5338 14.5585 26.5374L14.5554 26.2812C14.5272 22.0522 14.4405 8.94379 14.4151 5.11713L14.4179 5.03622ZM15.0341 5.00879C14.9845 5.01037 14.9347 5.01226 14.8848 5.01394L14.8885 5.15528L14.9267 26.2132L14.9244 26.5624C14.9625 26.5648 14.9901 26.5662 15.006 26.567C15.0144 26.567 15.0371 26.5678 15.0729 26.5679L15.0732 26.2038C15.0659 22.2662 15.0423 9.21071 15.0348 5.15528L15.0341 5.00879ZM21.0795 25.586C21.291 23.8063 21.6751 20.1278 21.8374 15.7169C21.9586 12.4332 21.8624 8.02819 21.7992 5.8254L21.7879 5.58833C21.8494 5.60283 21.9091 5.61744 21.9675 5.63194L21.9764 5.87574C22.0396 8.09828 22.1334 12.4621 22.013 15.7232C21.8507 20.1286 21.4676 23.805 21.2555 25.5932L21.2302 25.7971C21.1688 25.8181 21.1073 25.8384 21.0455 25.858L21.0795 25.586Z" fill="#6D0115"/>
<path d="M21.8132 25.3316C21.9843 23.7822 22.2845 20.7197 22.4653 16.8999C22.6391 13.232 22.6301 8.49648 22.6091 5.9858L22.6054 5.80316C22.5487 5.78677 22.4897 5.77006 22.4281 5.75293L22.4333 5.96951C22.4545 8.47357 22.4638 13.2193 22.2901 16.8918C22.1071 20.7579 21.8018 23.8466 21.6322 25.3732L21.5995 25.65C21.652 25.6259 21.7141 25.5974 21.782 25.5658L21.8132 25.3316ZM22.3515 24.9916C22.5585 23.605 22.8401 21.3375 23.0002 18.4413C23.238 14.1332 23.2809 8.6374 23.2877 6.18031L23.2842 6.01722C23.2346 5.99988 23.1766 5.98044 23.1103 5.95837L23.1123 6.12335C23.106 8.54976 23.0643 14.094 22.8248 18.4316C22.6585 21.4458 22.36 23.7762 22.1517 25.1383L22.1112 25.4061C22.1756 25.3739 22.2396 25.341 22.3033 25.3073L22.3515 24.9916ZM23.8886 23.1945C23.8886 23.1945 24.0462 22.7601 24.2407 22.1387L24.3145 21.6558C24.5541 20.0533 24.8069 18.0546 24.9744 15.8888C25.1975 13.0057 25.1486 9.49395 25.0867 7.38006L25.0732 6.98106C25.0149 6.92134 24.9536 6.86466 24.8895 6.81124L24.9037 7.13595C24.9685 9.21022 25.0306 12.8836 24.799 15.8757C24.6046 18.3907 24.2948 20.6797 24.0246 22.3824L23.8886 23.1945Z" fill="#6D0115"/>
<path d="M11.4822 16.8922V15.3709H10.1775L10.1823 11.5416H11.8857L11.8766 10.004H8.33533L8.65542 21.7725H10.2115L10.1775 16.8924L11.4822 16.8922ZM12.4918 10.0039L12.6886 21.7724H14.2953L14.3279 10.0039H12.4918ZM22.8118 21.7724L23.1418 11.4865H24.4007L24.391 10.0039H20.0244V11.4883H21.2937L21.2571 21.7724H22.8118ZM16.7513 15.4505L16.7689 11.4531H17.666C18.0727 12.3434 18.334 13.5208 18.539 15.4505H16.7513ZM15.3176 21.7721H16.8052L16.8218 16.9058H18.6041C18.7443 17.7646 18.7786 20.4162 18.787 21.7722H20.2299C20.3661 15.764 19.943 12.3679 18.7746 10.0038H15.1815L15.3176 21.7721Z" fill="#1A1A1A"/>
<path d="M11.6727 15.1602H10.3646L10.3694 11.3308H12.0772L12.068 9.793H8.51787L8.83881 21.5616H10.3987L10.3646 16.6814H11.6727V15.1602Z" fill="url(#paint2_radial_2_452)"/>
<path d="M14.5255 9.79303H12.6847L12.882 21.5616H14.4929L14.5255 9.79303Z" fill="url(#paint3_radial_2_452)"/>
<path d="M21.472 21.5616H23.0306L23.3615 11.2757H24.6235L24.6138 9.79303H20.2362V11.2774H21.5087L21.472 21.5616Z" fill="url(#paint4_radial_2_452)"/>
<path d="M16.9549 15.2398L16.9724 11.2423H17.8719C18.2796 12.1326 18.5416 13.31 18.747 15.2398H16.9549ZM15.5177 21.5614H17.009L17.0257 16.695H18.8126C18.953 17.554 18.9874 20.2054 18.9959 21.5614H20.4425C20.5788 15.5533 20.1548 12.1571 18.9831 9.79303H15.3812L15.5177 21.5614Z" fill="url(#paint5_radial_2_452)"/>
</g>
<defs>
<linearGradient id="paint0_linear_2_452" x1="1.20669" y1="29.3994" x2="15.7983" y2="15.4509" gradientUnits="userSpaceOnUse">
<stop stop-color="#8C8C8C"/>
<stop offset="0.5" stop-color="#464646"/>
<stop offset="0.75" stop-color="white"/>
<stop offset="1" stop-color="white"/>
</linearGradient>
<radialGradient id="paint1_radial_2_452" cx="0" cy="0" r="1" gradientUnits="userSpaceOnUse" gradientTransform="translate(15.9542 15.7812) scale(10.2983 11.0079)">
<stop stop-color="#E60A47"/>
<stop offset="1" stop-color="#7C0626"/>
</radialGradient>
<radialGradient id="paint2_radial_2_452" cx="0" cy="0" r="1" gradientUnits="userSpaceOnUse" gradientTransform="translate(16.5716 15.6778) scale(11.22 9.73524)">
<stop stop-color="#D3D1D2"/>
<stop offset="0.5" stop-color="#C9C7C8"/>
<stop offset="1" stop-color="#8D8B8C"/>
</radialGradient>
<radialGradient id="paint3_radial_2_452" cx="0" cy="0" r="1" gradientUnits="userSpaceOnUse" gradientTransform="translate(16.5716 15.6779) scale(11.22 9.73524)">
<stop stop-color="#D3D1D2"/>
<stop offset="0.5" stop-color="#C9C7C8"/>
<stop offset="1" stop-color="#8D8B8C"/>
</radialGradient>
<radialGradient id="paint4_radial_2_452" cx="0" cy="0" r="1" gradientUnits="userSpaceOnUse" gradientTransform="translate(16.5716 15.6779) scale(11.22 9.73524)">
<stop stop-color="#D3D1D2"/>
<stop offset="0.5" stop-color="#C9C7C8"/>
<stop offset="1" stop-color="#8D8B8C"/>
</radialGradient>
<radialGradient id="paint5_radial_2_452" cx="0" cy="0" r="1" gradientUnits="userSpaceOnUse" gradientTransform="translate(16.5716 15.6777) scale(11.2196 9.73488)">
<stop stop-color="#D3D1D2"/>
<stop offset="0.5" stop-color="#C9C7C8"/>
<stop offset="1" stop-color="#8D8B8C"/>
</radialGradient>
<clipPath id="clip0_2_452">
<rect width="31" height="31" fill="white" transform="translate(0.453995)"/>
</clipPath>
</defs>
</svg>
