<svg width="46" height="19" viewBox="0 0 46 19" fill="none" xmlns="http://www.w3.org/2000/svg">
<g clip-path="url(#clip0_2_478)">
<path d="M22.9532 0.836151C10.2443 0.836151 0.0570221 4.64545 0.0570221 9.4214C0.0570221 14.1692 10.3285 18.0076 22.9533 18.0076C35.579 18.0076 45.8512 14.1559 45.8512 9.4214C45.8509 4.68785 35.579 0.836151 22.9532 0.836151ZM45.7111 8.75846C45.7193 8.80038 45.725 8.84277 45.7323 8.88342C45.7263 8.84293 45.7179 8.80085 45.7111 8.75846Z" fill="#C9C9CA"/>
<path d="M22.9539 1.1799C10.4979 1.1799 0.407852 4.86171 0.407852 9.41794C0.407852 13.972 10.4979 17.6561 22.9539 17.6561C35.4116 17.6561 45.4991 13.972 45.4991 9.41794C45.4991 4.86203 35.4114 1.1799 22.9539 1.1799Z" fill="url(#paint0_radial_2_478)"/>
<path d="M23.0563 2.90709C33.6463 2.90709 42.3905 5.49429 43.7264 8.84297V8.84233C42.8341 5.3195 33.875 2.55197 22.9521 2.55197C11.4384 2.55197 2.10561 5.62621 2.10561 9.42017C2.10561 9.72941 2.16809 10.0331 2.28736 10.3316C2.23566 10.137 2.20934 9.93648 2.20906 9.73511C2.20937 5.96456 11.5425 2.90709 23.0563 2.90709Z" fill="url(#paint1_linear_2_478)"/>
<path d="M44.4185 8.56076C44.5097 8.83811 44.5563 9.12819 44.5565 9.42015C44.5565 13.5737 34.8843 16.9402 22.9519 16.9402C12.3331 16.9402 3.50476 14.2731 1.68837 10.7614C3.0666 14.4114 12.0944 17.2311 23.0381 17.2431H23.1704C35.0716 17.2314 44.7092 13.8989 44.7092 9.78682C44.7095 9.3697 44.61 8.95906 44.4185 8.56076Z" fill="url(#paint2_linear_2_478)"/>
<path d="M27.1094 10.5774C27.0618 10.4565 27.053 10.3208 27.0803 10.1859C27.09 10.138 27.0281 10.0949 26.9775 10.147C26.4936 10.6514 26.4576 11.3039 26.7746 11.5969C26.8877 11.7022 27.018 11.7495 27.1567 11.7584C26.9503 11.4964 26.8527 10.9828 27.1094 10.5774Z" fill="url(#paint3_linear_2_478)"/>
<path d="M32.0111 11.5489H32.0117C32.0364 11.5012 32.0611 11.4507 32.0875 11.3966C32.1076 11.355 32.0976 11.3433 32.0804 11.3363C32.0307 11.3185 31.9793 11.2803 31.9722 11.241C31.9689 11.2338 31.9685 11.227 31.9679 11.219L31.9685 11.2232C31.9749 11.2993 31.995 11.4426 32.0111 11.5489Z" fill="url(#paint4_linear_2_478)"/>
<path d="M32.5607 9.57346C32.7222 9.72831 32.8207 9.91607 32.8391 10.0888C32.8462 10.1706 32.9085 10.1796 32.9595 10.1083C32.9727 10.0888 32.9879 10.0646 33.0058 10.0374C32.9919 10.0176 32.9765 9.99864 32.9623 9.97998C32.8372 9.83605 32.7031 9.70026 32.5607 9.57346Z" fill="url(#paint5_linear_2_478)"/>
<path d="M25.8588 9.2551C25.9885 9.43242 26.0491 9.68566 26.0401 10.0098C26.0378 10.0938 26.0991 10.0882 26.1389 10.031C26.1617 9.99918 26.1818 9.97102 26.2028 9.94207V9.93954C26.1082 9.64897 25.963 9.36361 25.8588 9.2551Z" fill="url(#paint6_linear_2_478)"/>
<path d="M31.8836 10.1127C31.4847 9.92115 30.876 10.2725 30.3252 10.9503C29.8737 11.5045 29.6305 12.0681 29.6221 12.6177C29.6186 12.8135 29.6928 13.0555 29.8652 13.1438C29.9188 13.1735 29.9771 13.1937 30.0376 13.2034C30.0183 13.1314 30.0082 13.0572 30.0076 12.9826C30.0008 12.4155 30.177 11.8492 30.6295 11.2942C31.1764 10.6197 31.7517 10.2835 32.1511 10.4692C32.1305 10.3209 32.0533 10.1929 31.8836 10.1127Z" fill="url(#paint7_linear_2_478)"/>
<path d="M19.951 11.2359C20.3714 10.6658 20.845 10.4502 21.3851 10.2169C21.4562 10.1857 21.4648 10.1455 21.4512 10.0826C21.4281 9.975 21.3531 9.70799 21.3302 9.64377C21.3473 9.70245 21.3321 9.74738 21.2618 9.77348C20.649 10.0062 20.0347 10.3674 19.6096 10.9367C19.1275 11.5827 18.9983 12.3597 19.3203 12.8074C19.397 12.9121 19.4885 12.9898 19.5894 13.0404C19.4159 12.5057 19.5426 11.7889 19.951 11.2359Z" fill="url(#paint8_linear_2_478)"/>
<path d="M23.0359 14.6178C23.4502 14.6178 23.9594 14.6178 24.3039 14.6157C24.3551 14.6129 24.3917 14.584 24.4185 14.5457C24.9334 13.739 25.4831 12.8637 26.0092 12.0564C26.1245 12.4637 26.1838 12.6532 26.3985 12.8451C26.6169 13.0401 26.8189 13.0914 27.1162 13.0939C27.3862 13.0972 27.6522 12.9893 27.9689 12.8579C28.0757 12.8123 28.1783 12.7573 28.2753 12.6935C28.2753 12.5439 28.2905 12.3935 28.3171 12.2498C28.3193 12.2343 28.3041 12.1348 28.2192 12.1938C28.043 12.3219 27.8503 12.4255 27.6464 12.5018C27.3547 12.6106 27.2188 12.6515 26.9488 12.6489C26.6092 12.6462 26.3031 12.5018 26.088 12.1658C25.9676 11.9844 25.9178 11.7078 25.9064 11.5047C25.9048 11.4823 25.8757 11.4428 25.8438 11.4941C25.2729 12.3666 24.7398 13.2097 24.1732 14.0956C24.1436 14.1374 24.118 14.1646 24.0593 14.1665C23.7093 14.1665 23.3258 14.1656 22.9404 14.1678C22.9 14.1678 22.8711 14.1493 22.8627 14.1211C22.8929 14.2564 22.9424 14.5014 22.9554 14.5586C22.9639 14.5974 22.9929 14.6178 23.0359 14.6178Z" fill="url(#paint9_linear_2_478)"/>
<path d="M28.5787 14.1354C28.6743 14.3189 28.8886 14.5248 29.0186 14.5895C29.7611 14.9554 30.8213 14.5406 31.5022 13.8861C31.509 13.8771 31.5106 13.8764 31.5203 13.8658C31.5514 13.9834 31.5897 14.1262 31.5952 14.146C31.6416 14.298 31.7145 14.4361 31.7782 14.5093C32.2441 15.0357 33.233 14.7961 34.2625 13.9995C34.8379 13.5547 35.2644 13.108 35.787 12.5001C35.8081 12.4748 35.8062 12.4375 35.7944 12.3805C35.7646 12.2483 35.7176 12.0091 35.6913 11.8889C35.6905 11.909 35.6834 11.9283 35.6712 11.9442C35.1257 12.6094 34.5225 13.2382 33.9458 13.683C33.0489 14.3779 32.1536 14.5542 31.7112 14.1088C31.5456 13.9432 31.4551 13.7065 31.4442 13.5058C31.4388 13.397 31.3836 13.3919 31.3314 13.443C30.8027 13.9667 29.8839 14.5466 29.0463 14.1335C28.6145 13.9202 28.3892 13.5202 28.3082 13.08C28.3089 13.0846 28.3105 13.0901 28.3116 13.095C28.3633 13.4069 28.4312 13.8573 28.5787 14.1354Z" fill="url(#paint10_linear_2_478)"/>
<path d="M28.2092 11.294C28.4848 11.1448 28.7268 10.8284 28.6967 10.3152C28.6807 10.0597 28.6069 9.79648 28.4873 9.5842C28.5686 9.73906 28.6026 9.91938 28.5738 10.1094C28.521 10.4406 28.3414 10.7326 28.0363 10.8838C27.7777 11.0105 27.4756 10.9882 27.2639 10.7995C27.2004 10.741 27.1499 10.6698 27.1159 10.5904C27.1703 10.8406 27.2179 11.0246 27.2831 11.1231C27.4825 11.424 27.828 11.4999 28.2092 11.294Z" fill="url(#paint11_linear_2_478)"/>
<path d="M36.4048 6.95927C36.2311 7.25998 32.8772 12.3662 32.6652 12.8944C32.5982 13.0616 32.5903 13.1894 32.6584 13.2814C32.7277 13.3741 32.8286 13.4094 32.9433 13.4075C32.955 13.343 32.9796 13.2704 33.0101 13.1936C33.222 12.6636 36.363 7.89048 36.5354 7.58836C36.5497 7.56258 36.5446 7.53363 36.54 7.51433C36.5299 7.4664 36.4246 6.95896 36.4143 6.91135C36.4171 6.92795 36.4137 6.945 36.4048 6.95927Z" fill="url(#paint12_linear_2_478)"/>
<path d="M22.4848 9.33615C22.4946 9.34675 22.5023 9.35735 22.5109 9.36795C22.7127 9.66833 22.8228 10.0911 22.8339 10.5279C22.8459 10.6199 22.8853 10.6222 22.9299 10.5749C22.9707 10.5334 23.0105 10.4893 23.0498 10.4467C22.9908 10.2122 22.8993 10.0011 22.8052 9.79756C22.7701 9.72417 22.617 9.46096 22.4848 9.33615Z" fill="url(#paint13_linear_2_478)"/>
<path d="M17.0723 14.1083C17.1333 14.1391 17.1964 14.1111 17.2268 14.094C17.4313 13.9893 17.8296 13.6831 18.0013 13.4694C18.0533 13.4208 18.1033 13.4539 18.1199 13.5056C18.1916 13.7327 18.2966 13.9078 18.4143 14.0942C18.5424 14.3017 18.7999 14.5168 19.1335 14.6083C19.5652 14.7293 20.031 14.7506 20.6433 14.5168C21.1343 14.3289 21.6489 13.9461 22.0445 13.516C22.5194 13.0005 22.6912 12.6702 22.871 12.445C23.179 12.0638 23.6584 11.3885 24.3304 10.8153C24.5654 10.6142 24.8228 10.4839 24.9843 10.5471C25.0814 10.2969 25.0354 10.1588 24.9321 10.0924C24.7749 9.99003 24.4604 10.1436 24.195 10.3461C23.4715 10.894 22.8636 11.7476 22.5558 12.1294C22.3742 12.354 22.203 12.6854 21.7288 13.2005C20.9833 14.0097 19.9948 14.4749 19.0413 14.1537C18.5209 13.9787 18.1443 13.5602 18.0009 13.0461C17.9722 12.9469 17.9166 12.9191 17.8625 12.9845C17.7086 13.1771 17.3937 13.4597 17.1306 13.6377C17.1018 13.6584 17.0307 13.7005 16.9696 13.6701C16.9146 13.6451 16.7192 13.3692 16.6809 13.2898C16.6761 13.2816 16.6728 13.2726 16.6713 13.2633V13.2667C16.7399 13.6062 16.7485 13.6457 16.8413 13.8027C16.9465 13.9757 17.049 14.0985 17.0723 14.1083Z" fill="url(#paint14_linear_2_478)"/>
<path d="M11.3225 11.0589C11.5633 10.5734 11.9021 10.3417 12.2352 10.131C12.3785 10.0402 12.4421 9.95223 12.3569 9.71575C12.3327 9.6482 12.3191 9.52672 12.2922 9.41916C12.3007 9.52419 12.2488 9.61451 12.156 9.66292C11.7491 9.87045 11.2594 10.2262 11.0177 10.7115C10.8212 11.1069 10.7814 11.5854 11.0807 12.0401C11.1058 12.0763 11.133 12.113 11.1631 12.1467H11.1634C11.0672 11.7692 11.1707 11.3627 11.3225 11.0589Z" fill="url(#paint15_linear_2_478)"/>
<path d="M15.488 5.16479C16.9671 4.67696 18.616 4.98542 19.9404 5.26888C20.1256 5.15325 20.2878 5.07337 20.4502 4.98431C20.5311 4.94192 20.4406 4.89146 20.4154 4.89146C18.7057 4.57051 16.9288 4.15418 15.2314 4.78279C14.0548 5.2219 13.5393 6.15469 13.7881 6.77744C13.8356 6.89624 13.9114 6.98861 14.0102 7.05426C13.9272 6.47991 14.3578 5.53873 15.488 5.16479Z" fill="url(#paint16_linear_2_478)"/>
<path d="M10.677 14.104C11.1618 14.4456 11.6392 14.5589 12.1961 14.5687C13.3274 14.5885 14.3608 14.1214 15.4567 13.0094C16.5088 11.9416 17.4194 10.4495 18.3174 8.97086C18.3471 8.91882 18.3789 8.89556 18.5294 8.87595C19.0928 8.80651 19.5975 8.77424 20.0952 8.72758C20.2436 8.71366 20.3563 8.70005 20.4108 8.75383C20.5904 8.93369 20.7996 9.09804 20.9378 9.17839C21.0297 9.1795 21.1069 9.19975 21.1608 9.24799C21.2189 9.2404 21.2719 9.20813 21.3062 9.17475C21.3708 9.11164 21.3733 9.03777 21.3627 8.97513C21.3404 8.85222 21.3072 8.61005 21.2678 8.53982C21.295 8.59328 21.2774 8.66889 21.2238 8.72947C21.1844 8.7744 21.1229 8.81695 21.0446 8.816C20.9799 8.81442 20.9416 8.79227 20.8603 8.74767C20.6925 8.65798 20.4853 8.50945 20.3459 8.33402C20.2989 8.27518 20.2747 8.2736 20.1561 8.28024C19.624 8.31125 18.7937 8.39097 18.2307 8.46168C18.095 8.4786 18.0747 8.50407 18.0464 8.55057C17.1494 10.0302 16.1918 11.6251 15.1402 12.693C14.0125 13.8382 13.0745 14.1389 12.0795 14.1467C10.9313 14.1547 9.90963 13.5042 9.65053 12.361V12.3616C9.79052 13.0003 10.2019 13.7688 10.677 14.104Z" fill="url(#paint17_linear_2_478)"/>
<path d="M14.9189 9.13312C14.8937 9.09486 14.8799 9.05029 14.879 9.00452C14.8673 9.19624 14.9447 9.47811 15.0067 9.57223C15.0748 9.67726 15.2667 9.72883 15.4186 9.61557C15.7618 9.3628 16.0717 9.21553 16.4184 9.14989C16.5075 9.02793 16.6036 8.89285 16.7137 8.74099C16.7234 8.72913 16.7259 8.71331 16.7218 8.7054C16.7156 8.69164 16.7046 8.68769 16.6823 8.68674C16.174 8.70082 15.7299 8.85283 15.2996 9.17441C15.1758 9.26489 14.997 9.25207 14.9189 9.13312Z" fill="url(#paint18_linear_2_478)"/>
<path d="M28.7531 5.66876C28.0421 6.05899 27.2991 6.17684 26.5222 6.18364C24.6438 6.19898 22.8938 5.46708 21.0836 5.07384C21.0861 5.15278 21.1067 5.24752 21.0403 5.29751C20.0377 6.03685 19.1312 6.78836 18.5238 7.84295C18.5037 7.86763 18.5148 7.8904 18.55 7.88787C18.7101 7.8806 18.865 7.87332 19.0176 7.86494C19.5708 6.99843 20.1625 6.50174 21.066 5.83485C21.1337 5.7836 21.2013 5.74801 21.1791 5.55519C22.9951 5.95839 24.376 6.62623 26.721 6.6324C27.4208 6.63477 28.4075 6.40145 28.9384 6.08209C29.5485 5.71511 29.7108 5.44525 29.7326 5.16005C29.7397 5.071 29.7161 4.93876 29.7018 4.87058C29.681 4.77393 29.6674 4.65055 29.6399 4.55881C29.6492 4.59614 29.6535 4.63837 29.65 4.68472C29.6315 5.01279 29.3778 5.32804 28.7531 5.66876Z" fill="url(#paint19_linear_2_478)"/>
<path d="M20.9073 6.89294C20.885 6.91414 20.8598 6.93581 20.835 6.95859C20.6558 7.14414 20.6012 7.38979 20.6275 7.57565C20.6422 7.65126 20.6713 7.66597 20.7058 7.65949C20.7413 7.65162 20.776 7.64072 20.8097 7.6269C20.8223 7.52456 20.8652 7.42522 20.9686 7.33411C21.0435 7.26799 21.1373 7.2373 21.2175 7.25059C21.2866 7.11361 21.3064 6.94878 21.2221 6.87523C21.1411 6.80531 21.0118 6.81844 20.9073 6.89294Z" fill="url(#paint20_linear_2_478)"/>
<path d="M21.6295 7.53557C21.4573 7.86506 21.1732 8.04064 20.9006 8.1259C20.9006 8.1259 20.8435 8.13887 20.8521 8.19107C20.8587 8.2496 21.052 8.37203 21.1727 8.45792C21.1903 8.45318 21.2165 8.44353 21.2165 8.44353C21.3564 8.38801 21.5895 8.2458 21.7243 7.9508C21.8107 7.76051 21.8576 7.61118 21.8201 7.28454C21.7929 7.05676 21.7469 6.85081 21.6859 6.74435C21.8037 6.98305 21.7567 7.28944 21.6295 7.53557Z" fill="url(#paint21_linear_2_478)"/>
<path d="M16.5829 6.35965C16.0862 7.52734 15.1371 8.45348 13.9811 8.49176C13.3346 8.51343 12.8399 8.20862 12.5768 7.74373C12.769 8.09078 13.0942 8.39511 13.384 8.5775C13.6344 8.73346 13.9433 8.8203 14.2967 8.80844C15.5012 8.76731 16.4139 7.77457 16.7167 6.9359C16.7975 6.7097 16.7344 6.46737 16.6971 6.30349C16.6819 6.24085 16.6612 6.09802 16.6153 5.99631H16.6148C16.649 6.0803 16.649 6.204 16.5829 6.35965Z" fill="url(#paint22_linear_2_478)"/>
<path d="M22.9532 0.836151C10.2443 0.836151 0.0570221 4.64545 0.0570221 9.4214C0.0570221 14.1692 10.3285 18.0076 22.9533 18.0076C35.579 18.0076 45.8512 14.1559 45.8512 9.4214C45.8509 4.68785 35.579 0.836151 22.9532 0.836151ZM0.213937 9.51615C0.20935 8.51138 0.652255 7.51311 1.58346 6.57336C4.86128 3.26691 13.4498 1.03214 22.9152 0.993541C35.4542 0.941341 45.672 4.6801 45.6938 9.32775C45.6983 10.3328 45.2291 11.3178 44.2977 12.2568C41.0194 15.5639 32.4573 17.8127 22.9927 17.8504C10.4539 17.9027 0.235133 14.1644 0.213937 9.51615ZM45.7111 8.75846C45.7193 8.80038 45.725 8.84277 45.7323 8.88342C45.7263 8.84293 45.7179 8.80085 45.7111 8.75846Z" fill="#4B4B4B"/>
<path d="M0.126114 9.42216C0.126114 9.64646 0.15253 9.86918 0.198402 10.0886C0.163013 9.90026 0.144433 9.70916 0.142881 9.51755C0.138452 8.49934 0.593695 7.47148 1.53265 6.52414C4.82882 3.19934 13.4261 0.962198 22.915 0.922337C24.2298 0.916484 25.5182 0.953182 26.7738 1.02832C25.5019 0.948472 24.2279 0.908486 22.9535 0.908417C10.2954 0.908417 0.126114 4.70412 0.126114 9.42216Z" fill="url(#paint23_linear_2_478)"/>
<path d="M44.3486 12.3102C41.0637 15.6223 32.4688 17.8828 22.9928 17.9222C21.6816 17.929 20.3704 17.8933 19.0614 17.8153C20.3259 17.896 21.6273 17.9368 22.9533 17.9368C35.5394 17.9368 45.7794 14.0941 45.7794 9.42478C45.7794 9.24635 45.7629 9.06966 45.7343 8.89377C45.755 9.03819 45.764 9.18387 45.7654 9.33019C45.771 10.3486 45.2876 11.3628 44.3486 12.3102Z" fill="url(#paint24_linear_2_478)"/>
<path d="M22.9521 1.89963C11.0191 1.89963 1.3456 5.26555 1.3456 9.41969C1.3456 13.5732 11.0191 16.9397 22.9521 16.9397C34.8841 16.9397 44.5564 13.5732 44.5564 9.41969C44.5564 5.26555 34.884 1.89963 22.9521 1.89963ZM22.9521 16.2884C11.4385 16.2884 2.10565 13.214 2.10565 9.41953C2.10565 5.62525 11.4383 2.55117 22.9521 2.55117C34.4665 2.55117 43.7982 5.62541 43.7982 9.41953C43.7982 13.2141 34.4665 16.2884 22.9521 16.2884Z" fill="white"/>
<path d="M36.4049 6.95999C36.4348 6.90763 36.404 6.86935 36.3379 6.86935C35.9918 6.86935 35.5395 6.87046 35.1805 6.87046C35.0946 6.87046 35.0511 6.87995 35.0106 6.95999C34.8777 7.2145 33.2605 9.63767 32.9595 10.1079C32.9085 10.1796 32.8462 10.1704 32.8391 10.0885C32.8093 9.80882 32.5675 9.48661 32.1872 9.33381C31.8971 9.21596 31.6138 9.19477 31.3199 9.23415C30.788 9.30549 30.3144 9.58674 29.8976 9.90262C29.2694 10.3803 28.7277 10.9987 28.0288 11.4556C27.6473 11.7041 27.1242 11.9213 26.7748 11.5974C26.4578 11.3041 26.4943 10.6519 26.9777 10.1475C27.0283 10.0954 27.0902 10.1385 27.0805 10.1864C27.0345 10.4153 27.0903 10.6418 27.2635 10.8003C27.4753 10.989 27.7773 11.0115 28.0361 10.8846C28.3417 10.7335 28.5209 10.4409 28.5734 10.1102C28.6544 9.5948 28.258 9.14114 27.7621 9.10492C27.3599 9.07645 26.9737 9.21659 26.5978 9.5271C26.4098 9.6837 26.302 9.79838 26.1392 10.0314C26.099 10.0885 26.038 10.0943 26.0403 10.0102C26.0588 9.35168 25.7866 8.98075 25.2417 8.96904C24.819 8.95813 24.3677 9.18844 24.0155 9.46842C23.6298 9.77766 23.2926 10.1891 22.9302 10.5747C22.8856 10.622 22.8462 10.6198 22.8342 10.5278C22.8231 10.0909 22.713 9.66804 22.5112 9.36781C22.4389 9.26357 22.2892 9.21185 22.1628 9.2824C22.1045 9.31403 21.9017 9.40768 21.753 9.52694C21.6804 9.58753 21.6521 9.67469 21.6837 9.78668C21.8783 10.4396 21.8357 11.1804 21.5713 11.8073C21.3289 12.3797 20.8569 12.8981 20.3017 13.0724C19.9368 13.188 19.556 13.1314 19.3208 12.8073C18.9988 12.3596 19.128 11.5827 19.6101 10.9366C20.0352 10.3674 20.6495 10.0061 21.2623 9.77339C21.3346 9.74508 21.3496 9.69904 21.3289 9.63783C21.2957 9.53723 21.2427 9.40024 21.2209 9.33792C21.1649 9.18875 21.0069 9.1636 20.8145 9.1848C20.3692 9.23668 19.9676 9.38901 19.5707 9.60161C18.5318 10.1581 18.0109 11.2348 17.7822 11.8114C17.6726 12.0887 17.5783 12.2608 17.4562 12.4144C17.2922 12.6203 17.0872 12.8076 16.7107 13.1379C16.6768 13.1684 16.6522 13.2312 16.6805 13.2902C16.7187 13.3696 16.9143 13.6455 16.9691 13.6705C17.0302 13.7009 17.1014 13.6588 17.1303 13.6381C17.3934 13.4601 17.7083 13.1774 17.8622 12.9849C17.9162 12.9194 17.9717 12.9473 18.0006 13.0465C18.144 13.5605 18.5206 13.9791 19.041 14.154C19.9944 14.4747 20.9827 14.0101 21.7285 13.2008C22.2025 12.6858 22.3737 12.3544 22.5554 12.1298C22.8634 11.748 23.4713 10.8941 24.1945 10.3465C24.4603 10.1443 24.7746 9.99025 24.932 10.0928C25.0587 10.175 25.0998 10.365 24.8959 10.7353C24.1585 12.083 23.0727 13.6661 22.8729 14.0488C22.837 14.1156 22.8691 14.1684 22.9387 14.1684C23.3244 14.1665 23.7076 14.1675 24.0577 14.1675C24.1164 14.1648 24.142 14.1377 24.1714 14.0966C24.738 13.2102 25.2709 12.3669 25.8421 11.4949C25.8739 11.4441 25.9033 11.4836 25.9048 11.5053C25.9162 11.7086 25.9665 11.9848 26.0862 12.1667C26.3015 12.5026 26.6076 12.6471 26.9472 12.6496C27.2172 12.6527 27.3531 12.6116 27.6447 12.5026C27.8486 12.4261 28.0412 12.3226 28.2175 12.1948C28.3025 12.1358 28.3176 12.2353 28.3154 12.2508C28.1848 12.9542 28.3456 13.7883 29.0453 14.1332C29.883 14.546 30.8019 13.9661 31.3304 13.4427C31.3824 13.3922 31.4376 13.397 31.4431 13.5057C31.4537 13.7067 31.5448 13.9435 31.7101 14.1086C32.1529 14.5536 33.0479 14.3774 33.9448 13.683C34.5215 13.238 35.1246 12.6094 35.6702 11.9441C35.6893 11.9182 35.7052 11.8762 35.6662 11.8351C35.5838 11.7483 35.4636 11.6491 35.381 11.5722C35.3434 11.5409 35.2887 11.5499 35.2562 11.574C34.698 12.1045 34.196 12.711 33.469 13.2111C33.2239 13.3829 32.8337 13.5207 32.658 13.2834C32.5896 13.1914 32.5975 13.0631 32.6648 12.8963C32.8774 12.3669 36.2314 7.26085 36.4049 6.95999ZM31.9726 11.2416C31.9797 11.2808 32.0303 11.3185 32.0808 11.3368C32.0977 11.3438 32.108 11.3555 32.0876 11.397C31.9457 11.7029 31.8144 11.8786 31.6356 12.1447C31.4718 12.3899 31.2859 12.5817 31.0622 12.7657C30.7239 13.0455 30.2543 13.3495 29.8659 13.1447C29.6935 13.0558 29.6188 12.8144 29.6228 12.6186C29.6317 12.0689 29.8748 11.5051 30.3259 10.9509C30.8762 10.2731 31.4851 9.92176 31.8843 10.1133C32.297 10.3104 32.1654 10.7889 31.9806 11.1647C31.9664 11.1932 31.9648 11.2182 31.9726 11.2416Z" fill="white"/>
<path d="M12.0804 14.1477C10.83 14.1568 9.72902 13.3831 9.60232 12.0462C9.53225 11.3051 9.74168 10.6439 10.1612 10.0996C10.5332 9.6146 11.1637 9.21187 11.6958 9.11317C11.8703 9.08169 12.1032 9.10225 12.2 9.21677C12.3509 9.39283 12.3069 9.58644 12.1566 9.66316C11.7498 9.87069 11.2601 10.2264 11.0184 10.7117C10.8219 11.1072 10.782 11.5857 11.0813 12.0403C11.5842 12.798 12.9834 12.8193 14.2848 11.6099C14.6073 11.3136 14.8955 11.0294 15.1894 10.6932C15.7623 10.0373 15.9526 9.79793 16.7147 8.74144C16.7244 8.72958 16.7269 8.71376 16.7228 8.70585C16.7166 8.69209 16.7056 8.68814 16.6833 8.68719C16.175 8.70126 15.7312 8.85328 15.3006 9.17486C15.1764 9.26518 14.9977 9.25237 14.9196 9.13341C14.8327 8.99864 14.8949 8.82322 15.0382 8.72452C15.7312 8.2427 16.4889 8.15475 17.2625 8.02394C17.2621 8.02394 17.3166 8.02615 17.3604 7.96762C17.6779 7.56047 17.9176 7.19286 18.2565 6.78032C18.5977 6.36241 19.0379 5.9793 19.3747 5.68998C19.8447 5.28567 20.146 5.1498 20.4522 4.98323C20.5331 4.94084 20.4424 4.89038 20.4173 4.89038C18.7075 4.56943 16.9307 4.1531 15.2331 4.78171C14.0567 5.22082 13.541 6.15361 13.7898 6.77637C13.9654 7.21832 14.547 7.28998 15.0912 7.02392C15.5665 6.7893 15.9697 6.43075 16.2582 5.9861C16.4239 5.73095 16.7731 5.91492 16.5844 6.35845C16.0877 7.52614 15.1386 8.45229 13.9827 8.49057C12.9983 8.52315 12.3632 7.79948 12.3657 6.90623C12.3691 5.14442 14.331 3.98401 16.3916 3.81032C18.8736 3.60564 21.2245 4.26683 23.6883 4.56564C25.5766 4.79389 27.3872 4.79864 29.2847 4.36301C29.5087 4.31429 29.6669 4.45712 29.6514 4.6838C29.6329 5.01139 29.379 5.32664 28.7545 5.66768C28.0433 6.05791 27.3003 6.17576 26.5235 6.18256C24.6451 6.1979 22.8952 5.466 21.085 5.07276C21.0875 5.15169 21.1081 5.24644 21.0416 5.29643C20.0391 6.03577 19.1325 6.78728 18.5251 7.84187C18.505 7.86655 18.5161 7.88932 18.5514 7.88679C19.0784 7.85911 19.553 7.84582 20.0446 7.80644C20.1303 7.79932 20.1335 7.77812 20.1264 7.71517C20.0832 7.35151 20.189 6.9366 20.5089 6.65109C20.836 6.35798 21.246 6.32476 21.5174 6.53546C21.8263 6.77637 21.7991 7.20962 21.6305 7.53453C21.4583 7.86402 21.1742 8.0396 20.9016 8.12486C20.9016 8.12486 20.8445 8.13783 20.8531 8.19003C20.8637 8.2726 21.2352 8.47886 21.267 8.53375C21.2977 8.58548 21.2824 8.66647 21.2251 8.72831C21.1857 8.77324 21.1242 8.81579 21.0459 8.81468C20.9812 8.81326 20.9429 8.79111 20.8616 8.7465C20.6939 8.65666 20.4866 8.50829 20.3472 8.33286C20.3002 8.27402 20.276 8.27244 20.1574 8.27908C19.6253 8.31008 18.795 8.38981 18.232 8.46051C18.0963 8.47744 18.076 8.50291 18.0477 8.54941C17.1507 10.029 16.1931 11.624 15.1415 12.6918C14.0133 13.839 13.0753 14.1395 12.0804 14.1477ZM20.6277 7.57565C20.6424 7.65126 20.6715 7.66597 20.706 7.65949C20.8766 7.62532 21.0633 7.48454 21.1743 7.32225C21.2756 7.17435 21.3225 6.96096 21.2223 6.87523C21.1329 6.79883 20.9875 6.82097 20.8795 6.91604C20.6655 7.1057 20.6005 7.37445 20.6277 7.57565Z" fill="white"/>
</g>
<defs>
<radialGradient id="paint0_radial_2_478" cx="0" cy="0" r="1" gradientUnits="userSpaceOnUse" gradientTransform="translate(22.8023 29.1659) scale(98.6595 50.1092)">
<stop stop-color="#00082E"/>
<stop offset="0.155" stop-color="#000A30"/>
<stop offset="0.242" stop-color="#010F39"/>
<stop offset="0.312" stop-color="#011946"/>
<stop offset="0.373" stop-color="#02275A"/>
<stop offset="0.414" stop-color="#03346C"/>
<stop offset="0.439" stop-color="#0B4F87"/>
<stop offset="0.48" stop-color="#1676AF"/>
<stop offset="0.513" stop-color="#1C8EC7"/>
<stop offset="0.533" stop-color="#1F97D0"/>
<stop offset="1" stop-color="#1F97D0"/>
</radialGradient>
<linearGradient id="paint1_linear_2_478" x1="22.912" y1="18.1972" x2="22.912" y2="0.755928" gradientUnits="userSpaceOnUse">
<stop stop-color="#00082E"/>
<stop offset="0.321" stop-color="#010A30"/>
<stop offset="0.501" stop-color="#030F39"/>
<stop offset="0.647" stop-color="#071846"/>
<stop offset="0.773" stop-color="#0D245A"/>
<stop offset="0.809" stop-color="#0F2961"/>
<stop offset="0.839" stop-color="#0B386E"/>
<stop offset="0.896" stop-color="#054E83"/>
<stop offset="0.951" stop-color="#015B90"/>
<stop offset="1" stop-color="#006094"/>
</linearGradient>
<linearGradient id="paint2_linear_2_478" x1="4163.46" y1="18.2011" x2="4163.46" y2="0.743848" gradientUnits="userSpaceOnUse">
<stop stop-color="#00082E"/>
<stop offset="0.321" stop-color="#010A30"/>
<stop offset="0.501" stop-color="#030F39"/>
<stop offset="0.647" stop-color="#071846"/>
<stop offset="0.773" stop-color="#0D245A"/>
<stop offset="0.809" stop-color="#0F2961"/>
<stop offset="0.839" stop-color="#0B386E"/>
<stop offset="0.896" stop-color="#054E83"/>
<stop offset="0.951" stop-color="#015B90"/>
<stop offset="1" stop-color="#006094"/>
</linearGradient>
<linearGradient id="paint3_linear_2_478" x1="26.8634" y1="15.2397" x2="26.8634" y2="2.98517" gradientUnits="userSpaceOnUse">
<stop stop-color="#00082E"/>
<stop offset="0.321" stop-color="#010A30"/>
<stop offset="0.501" stop-color="#030F39"/>
<stop offset="0.647" stop-color="#071846"/>
<stop offset="0.773" stop-color="#0D245A"/>
<stop offset="0.809" stop-color="#0F2961"/>
<stop offset="0.839" stop-color="#0B386E"/>
<stop offset="0.896" stop-color="#054E83"/>
<stop offset="0.951" stop-color="#015B90"/>
<stop offset="1" stop-color="#006094"/>
</linearGradient>
<linearGradient id="paint4_linear_2_478" x1="32.0362" y1="15.2211" x2="32.0362" y2="3.0469" gradientUnits="userSpaceOnUse">
<stop stop-color="#00082E"/>
<stop offset="0.321" stop-color="#010A30"/>
<stop offset="0.501" stop-color="#030F39"/>
<stop offset="0.647" stop-color="#071846"/>
<stop offset="0.773" stop-color="#0D245A"/>
<stop offset="0.809" stop-color="#0F2961"/>
<stop offset="0.839" stop-color="#0B386E"/>
<stop offset="0.896" stop-color="#054E83"/>
<stop offset="0.951" stop-color="#015B90"/>
<stop offset="1" stop-color="#006094"/>
</linearGradient>
<linearGradient id="paint5_linear_2_478" x1="32.7863" y1="15.1859" x2="32.7863" y2="3.0718" gradientUnits="userSpaceOnUse">
<stop stop-color="#00082E"/>
<stop offset="0.321" stop-color="#010A30"/>
<stop offset="0.501" stop-color="#030F39"/>
<stop offset="0.647" stop-color="#071846"/>
<stop offset="0.773" stop-color="#0D245A"/>
<stop offset="0.809" stop-color="#0F2961"/>
<stop offset="0.839" stop-color="#0B386E"/>
<stop offset="0.896" stop-color="#054E83"/>
<stop offset="0.951" stop-color="#015B90"/>
<stop offset="1" stop-color="#006094"/>
</linearGradient>
<linearGradient id="paint6_linear_2_478" x1="26.0293" y1="15.266" x2="26.0293" y2="2.98291" gradientUnits="userSpaceOnUse">
<stop stop-color="#00082E"/>
<stop offset="0.321" stop-color="#010A30"/>
<stop offset="0.501" stop-color="#030F39"/>
<stop offset="0.647" stop-color="#071846"/>
<stop offset="0.773" stop-color="#0D245A"/>
<stop offset="0.809" stop-color="#0F2961"/>
<stop offset="0.839" stop-color="#0B386E"/>
<stop offset="0.896" stop-color="#054E83"/>
<stop offset="0.951" stop-color="#015B90"/>
<stop offset="1" stop-color="#006094"/>
</linearGradient>
<linearGradient id="paint7_linear_2_478" x1="30.8884" y1="15.2379" x2="30.8884" y2="3.00268" gradientUnits="userSpaceOnUse">
<stop stop-color="#00082E"/>
<stop offset="0.321" stop-color="#010A30"/>
<stop offset="0.501" stop-color="#030F39"/>
<stop offset="0.647" stop-color="#071846"/>
<stop offset="0.773" stop-color="#0D245A"/>
<stop offset="0.809" stop-color="#0F2961"/>
<stop offset="0.839" stop-color="#0B386E"/>
<stop offset="0.896" stop-color="#054E83"/>
<stop offset="0.951" stop-color="#015B90"/>
<stop offset="1" stop-color="#006094"/>
</linearGradient>
<linearGradient id="paint8_linear_2_478" x1="20.3061" y1="15.2288" x2="20.3061" y2="3.00645" gradientUnits="userSpaceOnUse">
<stop stop-color="#00082E"/>
<stop offset="0.321" stop-color="#010A30"/>
<stop offset="0.501" stop-color="#030F39"/>
<stop offset="0.647" stop-color="#071846"/>
<stop offset="0.773" stop-color="#0D245A"/>
<stop offset="0.809" stop-color="#0F2961"/>
<stop offset="0.839" stop-color="#0B386E"/>
<stop offset="0.896" stop-color="#054E83"/>
<stop offset="0.951" stop-color="#015B90"/>
<stop offset="1" stop-color="#006094"/>
</linearGradient>
<linearGradient id="paint9_linear_2_478" x1="25.5874" y1="15.2386" x2="25.5874" y2="2.99418" gradientUnits="userSpaceOnUse">
<stop stop-color="#00082E"/>
<stop offset="0.321" stop-color="#010A30"/>
<stop offset="0.501" stop-color="#030F39"/>
<stop offset="0.647" stop-color="#071846"/>
<stop offset="0.773" stop-color="#0D245A"/>
<stop offset="0.809" stop-color="#0F2961"/>
<stop offset="0.839" stop-color="#0B386E"/>
<stop offset="0.896" stop-color="#054E83"/>
<stop offset="0.951" stop-color="#015B90"/>
<stop offset="1" stop-color="#006094"/>
</linearGradient>
<linearGradient id="paint10_linear_2_478" x1="32.0628" y1="15.2678" x2="32.0628" y2="2.93099" gradientUnits="userSpaceOnUse">
<stop stop-color="#00082E"/>
<stop offset="0.321" stop-color="#010A30"/>
<stop offset="0.501" stop-color="#030F39"/>
<stop offset="0.647" stop-color="#071846"/>
<stop offset="0.773" stop-color="#0D245A"/>
<stop offset="0.809" stop-color="#0F2961"/>
<stop offset="0.839" stop-color="#0B386E"/>
<stop offset="0.896" stop-color="#054E83"/>
<stop offset="0.951" stop-color="#015B90"/>
<stop offset="1" stop-color="#006094"/>
</linearGradient>
<linearGradient id="paint11_linear_2_478" x1="27.9044" y1="15.2781" x2="27.9044" y2="2.97224" gradientUnits="userSpaceOnUse">
<stop stop-color="#00082E"/>
<stop offset="0.321" stop-color="#010A30"/>
<stop offset="0.501" stop-color="#030F39"/>
<stop offset="0.647" stop-color="#071846"/>
<stop offset="0.773" stop-color="#0D245A"/>
<stop offset="0.809" stop-color="#0F2961"/>
<stop offset="0.839" stop-color="#0B386E"/>
<stop offset="0.896" stop-color="#054E83"/>
<stop offset="0.951" stop-color="#015B90"/>
<stop offset="1" stop-color="#006094"/>
</linearGradient>
<linearGradient id="paint12_linear_2_478" x1="34.5746" y1="15.2417" x2="34.5746" y2="3.01615" gradientUnits="userSpaceOnUse">
<stop stop-color="#00082E"/>
<stop offset="0.321" stop-color="#010A30"/>
<stop offset="0.501" stop-color="#030F39"/>
<stop offset="0.647" stop-color="#071846"/>
<stop offset="0.773" stop-color="#0D245A"/>
<stop offset="0.809" stop-color="#0F2961"/>
<stop offset="0.839" stop-color="#0B386E"/>
<stop offset="0.896" stop-color="#054E83"/>
<stop offset="0.951" stop-color="#015B90"/>
<stop offset="1" stop-color="#006094"/>
</linearGradient>
<linearGradient id="paint13_linear_2_478" x1="22.7686" y1="15.2493" x2="22.7686" y2="2.99136" gradientUnits="userSpaceOnUse">
<stop stop-color="#00082E"/>
<stop offset="0.321" stop-color="#010A30"/>
<stop offset="0.501" stop-color="#030F39"/>
<stop offset="0.647" stop-color="#071846"/>
<stop offset="0.773" stop-color="#0D245A"/>
<stop offset="0.809" stop-color="#0F2961"/>
<stop offset="0.839" stop-color="#0B386E"/>
<stop offset="0.896" stop-color="#054E83"/>
<stop offset="0.951" stop-color="#015B90"/>
<stop offset="1" stop-color="#006094"/>
</linearGradient>
<linearGradient id="paint14_linear_2_478" x1="20.8599" y1="15.2397" x2="20.8599" y2="3.01249" gradientUnits="userSpaceOnUse">
<stop stop-color="#00082E"/>
<stop offset="0.321" stop-color="#010A30"/>
<stop offset="0.501" stop-color="#030F39"/>
<stop offset="0.647" stop-color="#071846"/>
<stop offset="0.773" stop-color="#0D245A"/>
<stop offset="0.809" stop-color="#0F2961"/>
<stop offset="0.839" stop-color="#0B386E"/>
<stop offset="0.896" stop-color="#054E83"/>
<stop offset="0.951" stop-color="#015B90"/>
<stop offset="1" stop-color="#006094"/>
</linearGradient>
<linearGradient id="paint15_linear_2_478" x1="11.6275" y1="15.2436" x2="11.6275" y2="3.00777" gradientUnits="userSpaceOnUse">
<stop stop-color="#00082E"/>
<stop offset="0.321" stop-color="#010A30"/>
<stop offset="0.501" stop-color="#030F39"/>
<stop offset="0.647" stop-color="#071846"/>
<stop offset="0.773" stop-color="#0D245A"/>
<stop offset="0.809" stop-color="#0F2961"/>
<stop offset="0.839" stop-color="#0B386E"/>
<stop offset="0.896" stop-color="#054E83"/>
<stop offset="0.951" stop-color="#015B90"/>
<stop offset="1" stop-color="#006094"/>
</linearGradient>
<linearGradient id="paint16_linear_2_478" x1="17.105" y1="15.3138" x2="17.105" y2="2.96214" gradientUnits="userSpaceOnUse">
<stop stop-color="#00082E"/>
<stop offset="0.321" stop-color="#010A30"/>
<stop offset="0.501" stop-color="#030F39"/>
<stop offset="0.647" stop-color="#071846"/>
<stop offset="0.773" stop-color="#0D245A"/>
<stop offset="0.809" stop-color="#0F2961"/>
<stop offset="0.839" stop-color="#0B386E"/>
<stop offset="0.896" stop-color="#054E83"/>
<stop offset="0.951" stop-color="#015B90"/>
<stop offset="1" stop-color="#006094"/>
</linearGradient>
<linearGradient id="paint17_linear_2_478" x1="15.5087" y1="15.2412" x2="15.5087" y2="3.00244" gradientUnits="userSpaceOnUse">
<stop stop-color="#00082E"/>
<stop offset="0.321" stop-color="#010A30"/>
<stop offset="0.501" stop-color="#030F39"/>
<stop offset="0.647" stop-color="#071846"/>
<stop offset="0.773" stop-color="#0D245A"/>
<stop offset="0.809" stop-color="#0F2961"/>
<stop offset="0.839" stop-color="#0B386E"/>
<stop offset="0.896" stop-color="#054E83"/>
<stop offset="0.951" stop-color="#015B90"/>
<stop offset="1" stop-color="#006094"/>
</linearGradient>
<linearGradient id="paint18_linear_2_478" x1="15.8015" y1="15.2696" x2="15.8015" y2="2.98817" gradientUnits="userSpaceOnUse">
<stop stop-color="#00082E"/>
<stop offset="0.321" stop-color="#010A30"/>
<stop offset="0.501" stop-color="#030F39"/>
<stop offset="0.647" stop-color="#071846"/>
<stop offset="0.773" stop-color="#0D245A"/>
<stop offset="0.809" stop-color="#0F2961"/>
<stop offset="0.839" stop-color="#0B386E"/>
<stop offset="0.896" stop-color="#054E83"/>
<stop offset="0.951" stop-color="#015B90"/>
<stop offset="1" stop-color="#006094"/>
</linearGradient>
<linearGradient id="paint19_linear_2_478" x1="24.1264" y1="15.2491" x2="24.1264" y2="3.00186" gradientUnits="userSpaceOnUse">
<stop stop-color="#00082E"/>
<stop offset="0.321" stop-color="#010A30"/>
<stop offset="0.501" stop-color="#030F39"/>
<stop offset="0.647" stop-color="#071846"/>
<stop offset="0.773" stop-color="#0D245A"/>
<stop offset="0.809" stop-color="#0F2961"/>
<stop offset="0.839" stop-color="#0B386E"/>
<stop offset="0.896" stop-color="#054E83"/>
<stop offset="0.951" stop-color="#015B90"/>
<stop offset="1" stop-color="#006094"/>
</linearGradient>
<linearGradient id="paint20_linear_2_478" x1="20.9451" y1="15.2522" x2="20.9451" y2="2.99977" gradientUnits="userSpaceOnUse">
<stop stop-color="#00082E"/>
<stop offset="0.321" stop-color="#010A30"/>
<stop offset="0.501" stop-color="#030F39"/>
<stop offset="0.647" stop-color="#071846"/>
<stop offset="0.773" stop-color="#0D245A"/>
<stop offset="0.809" stop-color="#0F2961"/>
<stop offset="0.839" stop-color="#0B386E"/>
<stop offset="0.896" stop-color="#054E83"/>
<stop offset="0.951" stop-color="#015B90"/>
<stop offset="1" stop-color="#006094"/>
</linearGradient>
<linearGradient id="paint21_linear_2_478" x1="21.3477" y1="15.242" x2="21.3477" y2="3.00827" gradientUnits="userSpaceOnUse">
<stop stop-color="#00082E"/>
<stop offset="0.321" stop-color="#010A30"/>
<stop offset="0.501" stop-color="#030F39"/>
<stop offset="0.647" stop-color="#071846"/>
<stop offset="0.773" stop-color="#0D245A"/>
<stop offset="0.809" stop-color="#0F2961"/>
<stop offset="0.839" stop-color="#0B386E"/>
<stop offset="0.896" stop-color="#054E83"/>
<stop offset="0.951" stop-color="#015B90"/>
<stop offset="1" stop-color="#006094"/>
</linearGradient>
<linearGradient id="paint22_linear_2_478" x1="14.6689" y1="15.267" x2="14.6689" y2="3.0042" gradientUnits="userSpaceOnUse">
<stop stop-color="#00082E"/>
<stop offset="0.321" stop-color="#010A30"/>
<stop offset="0.501" stop-color="#030F39"/>
<stop offset="0.647" stop-color="#071846"/>
<stop offset="0.773" stop-color="#0D245A"/>
<stop offset="0.809" stop-color="#0F2961"/>
<stop offset="0.839" stop-color="#0B386E"/>
<stop offset="0.896" stop-color="#054E83"/>
<stop offset="0.951" stop-color="#015B90"/>
<stop offset="1" stop-color="#006094"/>
</linearGradient>
<linearGradient id="paint23_linear_2_478" x1="17.9375" y1="22.1177" x2="12.6457" y2="2.36852" gradientUnits="userSpaceOnUse">
<stop stop-color="#A5A5A6"/>
<stop offset="0.35" stop-color="#D7D7D7"/>
<stop offset="0.65" stop-color="#D7D7D7"/>
<stop offset="1" stop-color="#A5A5A6"/>
</linearGradient>
<linearGradient id="paint24_linear_2_478" x1="31.8201" y1="11.1981" x2="26.5399" y2="-8.50767" gradientUnits="userSpaceOnUse">
<stop stop-color="#A5A5A6"/>
<stop offset="0.35" stop-color="#D7D7D7"/>
<stop offset="0.65" stop-color="#D7D7D7"/>
<stop offset="1" stop-color="#A5A5A6"/>
</linearGradient>
<clipPath id="clip0_2_478">
<rect width="45.8149" height="17.1714" fill="white" transform="translate(0.046524 0.914276)"/>
</clipPath>
</defs>
</svg>
