<svg width="23" height="19" viewBox="0 0 23 19" fill="none" xmlns="http://www.w3.org/2000/svg">
<path d="M11.9612 0.866189C11.8281 0.7689 11.6641 0.716064 11.4953 0.716064C11.3266 0.716064 11.1626 0.7689 11.0295 0.866189L0.25 8.74617L1.18242 9.85169L2.50042 8.88823V17.5938C2.50121 17.9666 2.65953 18.324 2.94072 18.5876C3.2219 18.8512 3.60304 18.9996 4.0007 19.0004H19.0035C19.4012 18.9996 19.7823 18.8512 20.0635 18.5876C20.3447 18.324 20.503 17.9666 20.5038 17.5938V8.89456L21.8218 9.85802L22.7542 8.7525L11.9612 0.866189ZM13.0024 17.5938H10.0018V11.9678H13.0024V17.5938ZM14.5027 17.5938V11.9678C14.5023 11.5949 14.3441 11.2373 14.0628 10.9736C13.7815 10.71 13.4002 10.5617 13.0024 10.5613H10.0018C9.60404 10.5617 9.22267 10.71 8.9414 10.9736C8.66013 11.2373 8.50194 11.5949 8.50154 11.9678V17.5938H4.0007V7.79186L11.5021 2.31349L19.0035 7.79889V17.5938H14.5027Z" fill="white"/>
</svg>
