<svg width="38" height="25" viewBox="0 0 38 25" fill="none" xmlns="http://www.w3.org/2000/svg">
<g clip-path="url(#clip0_2_582)">
<path d="M4.92713 20.2426L5.48217 20.3092C5.73527 20.3358 5.76191 20.5489 5.76191 20.6822V21.3304H3.2043V20.6822C3.2043 20.5489 3.23094 20.3358 3.48404 20.3092L4.03908 20.2426V19.6875H0.722183V20.2426L1.27722 20.3092C1.53032 20.3358 1.55696 20.5489 1.55696 20.6822V22.8313C1.55696 22.9645 1.53032 23.1776 1.27722 23.2042L0.722183 23.2708V23.8259H4.03464V23.2708L3.4796 23.2042C3.2265 23.1776 3.19986 22.9645 3.19986 22.8313V22.183H5.74415V22.8313C5.74415 22.9645 5.7175 23.1776 5.46441 23.2042L4.90937 23.2708V23.8259H8.22182V23.2708L7.66679 23.2042C7.41369 23.1776 7.38705 22.9645 7.38705 22.8313V20.6822C7.38705 20.5489 7.41369 20.3358 7.66679 20.3092L8.22182 20.2426V19.6875H4.90937V20.2426H4.92269H4.92713ZM26.9998 19.6875H22.9147V20.2426L23.4032 20.2958C23.5763 20.3225 23.6962 20.3891 23.6962 20.6289V22.8179C23.6962 22.9511 23.6696 23.1643 23.4165 23.1909L22.8614 23.2575V23.8126H26.9998C28.4828 23.8126 29.7039 23.2176 29.7039 21.7434C29.7039 20.2692 28.4828 19.6875 26.9998 19.6875ZM26.6934 23.0266H25.2992V20.4823H26.6934C27.5149 20.4823 27.7946 20.8686 27.7946 21.7567C27.7946 22.6448 27.5149 23.0311 26.6934 23.0311" fill="#E52323"/>
<path d="M36.653 23.1988C36.3865 23.1721 36.3066 22.9989 36.2267 22.8791L34.3174 19.9618C34.1842 19.7487 34.0776 19.6821 33.8778 19.6821H30.7474V20.2371L31.5022 20.317C31.6088 20.3303 31.7553 20.4769 31.6354 20.6634L30.219 22.959C30.1657 23.0522 30.0858 23.1588 29.9259 23.1854L29.3709 23.252V23.8071H32.0084V23.252L31.5555 23.2121C31.3557 23.1854 31.2491 23.0522 31.3557 22.8924L31.5688 22.546H34.1131L34.2996 22.8258C34.4728 23.0789 34.2597 23.1854 34.0732 23.1988L33.6069 23.252V23.8071H37.1858V23.252L36.6441 23.1988H36.653ZM32.0129 21.8178L32.7944 20.5435L33.6291 21.8178H32.0129ZM19.9575 20.2415L20.5125 20.3081C20.7656 20.3348 20.7923 20.5479 20.7923 20.6811V22.7503L18.6032 19.8597C18.51 19.7265 18.4167 19.6865 18.1769 19.6865H15.3396V20.2415L15.8946 20.3081C16.1477 20.3348 16.1744 20.5479 16.1744 20.6811V22.8302C16.1744 22.9634 16.1477 23.1766 15.8946 23.2032L15.3396 23.2698V23.8248H17.9904V23.2698L17.4354 23.2032C17.1823 23.1766 17.1557 22.9634 17.1557 22.8302V20.761L19.3447 23.6384C19.4513 23.7716 19.5312 23.8115 19.771 23.8115H21.7869V20.6678C21.7869 20.5346 21.8135 20.3215 22.0666 20.2948L22.6217 20.2282V19.6732H19.9841L19.9575 20.2415ZM11.7785 19.54C9.08767 19.54 8.39943 20.7211 8.39943 21.7423C8.39943 22.7636 9.08767 23.958 11.7785 23.958C14.4693 23.958 15.1575 22.7769 15.1575 21.7557C15.1575 20.7344 14.4693 19.54 11.7785 19.54ZM11.7785 23.1721C10.7306 23.1721 10.3088 22.7325 10.3088 21.7557C10.3088 20.7788 10.7483 20.3392 11.7785 20.3392C12.8086 20.3392 13.2482 20.7788 13.2482 21.7557C13.2482 22.7325 12.822 23.1721 11.7785 23.1721ZM23.5408 2.25394C23.0879 4.28315 22.9058 5.22449 22.5329 6.6809C22.1732 8.08847 21.8979 9.39836 21.4183 10.0333C20.9432 10.6816 20.2905 10.8148 19.8554 10.8681C19.6289 10.8947 19.4557 10.9081 18.9673 10.9081C18.4789 10.9081 18.3057 10.8947 18.0793 10.8681C17.6397 10.8148 16.9914 10.6816 16.5163 10.0333C16.0412 9.39836 15.7614 8.08403 15.4151 6.6809C15.0421 5.21117 14.86 4.28315 14.4071 2.25394C14.4071 2.25394 13.9542 2.26726 13.7589 2.28058C13.4791 2.2939 13.2704 2.32054 13.044 2.34718C13.044 2.34718 13.3104 6.52549 13.4303 8.30161C13.5502 10.1576 13.7766 13.3014 13.972 15.6725C13.972 15.6725 14.3583 15.7391 14.9933 15.7657C15.6549 15.8057 15.9612 15.8057 15.9612 15.8057C16.241 14.7578 16.5696 13.3147 16.9559 12.6886C17.2756 12.1869 17.7507 12.1336 18.0304 12.0936C18.4567 12.0403 18.8252 12.027 18.9851 12.027C19.1582 12.027 19.5135 12.027 19.9397 12.0936C20.2195 12.1336 20.6946 12.1869 21.0143 12.6886C21.4006 13.3102 21.7425 14.7578 22.0089 15.8057C22.0089 15.8057 22.302 15.8057 22.9636 15.7657C23.5985 15.7258 23.9848 15.6725 23.9848 15.6725C24.1846 13.3014 24.4111 10.171 24.5265 8.30161C24.6464 6.53881 24.9129 2.34718 24.9129 2.34718C24.6864 2.32054 24.4599 2.2939 24.198 2.28058C23.9982 2.26726 23.5497 2.25394 23.5497 2.25394" fill="#E52323"/>
<path d="M28.8025 4.71872C28.5361 2.06787 26.76 1.50839 25.2103 1.24641C24.4288 1.1132 23.0346 1.00664 22.1465 0.966674C21.365 0.913391 19.5356 0.886749 18.9762 0.886749C18.4167 0.886749 16.5917 0.913391 15.8058 0.966674C14.9177 1.00664 13.5235 1.1132 12.742 1.24641C11.1923 1.51283 9.41623 2.06787 9.14981 4.71872C9.06988 5.44692 9.05656 6.38826 9.06988 7.39621C9.09653 9.07908 9.24306 10.2069 9.32298 11.0017C9.37626 11.5434 9.60272 13.1641 9.89134 13.9989C10.291 15.1534 10.6462 15.482 11.0725 15.8283C11.8406 16.45 13.115 16.6498 13.3814 16.703C14.8112 16.9561 17.7018 17.0094 18.9895 17.0094C20.2772 17.0094 23.1678 16.9695 24.5976 16.703C24.864 16.6498 26.1339 16.4633 26.9065 15.8283C27.3328 15.482 27.688 15.1534 28.0876 13.9989C28.3807 13.1641 28.6027 11.5346 28.656 11.0017C28.7359 10.2202 28.8824 9.07908 28.9091 7.39621C28.8958 6.37494 28.8691 5.4336 28.8025 4.71872ZM27.8212 9.17232C27.6614 11.2948 27.4749 12.5647 27.2129 13.4794C26.9731 14.2875 26.6845 14.8204 26.2582 15.2022C25.5433 15.8505 24.562 15.9837 23.9759 16.077C22.7282 16.2635 20.6235 16.3301 18.9762 16.3301C17.3288 16.3301 15.2241 16.2635 13.9764 16.077C13.3947 15.9837 12.4134 15.8505 11.6941 15.2022C11.2678 14.8159 10.9792 14.2742 10.7394 13.4794C10.473 12.5647 10.2732 11.2903 10.1311 9.17232C10.0379 7.89796 10.0512 5.83323 10.1977 4.71872C10.3975 3.04917 11.219 2.21439 12.9818 1.90802C13.8032 1.76149 14.9177 1.65492 15.9656 1.60164C16.8137 1.54835 18.1947 1.52171 18.9762 1.52171C19.7443 1.50839 21.1386 1.54835 21.9734 1.60164C23.0213 1.65492 24.1358 1.76149 24.9572 1.90802C26.72 2.22772 27.5415 3.06249 27.7546 4.71872C27.9011 5.81991 27.9145 7.88908 27.8212 9.17232Z" fill="#E52323"/>
</g>
<defs>
<clipPath id="clip0_2_582">
<rect width="36.4636" height="23.0742" fill="white" transform="translate(0.722183 0.962921)"/>
</clipPath>
</defs>
</svg>
