<svg width="32" height="33" viewBox="0 0 32 33" fill="none" xmlns="http://www.w3.org/2000/svg">
<g clip-path="url(#clip0_2_259)">
<path d="M3.30013 21.6449V23.3802H1.33791V21.6449H0.256241V26.1887H1.33791V24.3656H3.30013V26.1887H4.38119V21.6449H4.32907H3.30013Z" fill="#002D73"/>
<path d="M8.34907 21.6449L7.21527 23.4416L6.08148 21.6449H4.80849L6.67505 24.6189V26.1887H7.75611V24.6189L9.62267 21.6449H9.5264H8.34907Z" fill="#002D73"/>
<path d="M13.102 21.6449V24.9764C13.102 25.0984 13.0064 25.2033 12.8751 25.2033H11.1398V21.6449H10.0581V26.1887H13.2498C13.5374 26.1887 13.7643 26.1016 13.9298 25.9361C14.0954 25.7705 14.1825 25.5436 14.1825 25.256V21.637H14.1304H13.1014V21.6449H13.102Z" fill="#002D73"/>
<path d="M18.3873 21.6449H15.1864V26.1887H16.2681V22.6303H18.0034C18.1432 22.6303 18.2303 22.7437 18.2303 22.8572V26.1887H19.312V22.5782C19.312 22.2906 19.2249 22.0637 19.0593 21.8981C18.8932 21.732 18.6663 21.6449 18.3873 21.6449Z" fill="#002D73"/>
<path d="M23.5063 21.6449H20.3146V26.1887H23.5155C23.7945 26.1887 24.0299 26.1016 24.1955 25.936C24.3611 25.7705 24.4481 25.5436 24.4481 25.256V22.5702C24.4481 22.2826 24.3611 22.0557 24.1955 21.8902C24.0213 21.732 23.7945 21.6449 23.5063 21.6449ZM23.3585 22.8658V24.9678C23.3585 25.0898 23.2714 25.2033 23.1316 25.2033H21.3963V22.6303H23.123C23.2622 22.6303 23.3585 22.7266 23.3585 22.8658Z" fill="#002D73"/>
<path d="M26.3229 21.6455C26.0354 21.6455 25.8085 21.7326 25.6429 21.8981C25.4773 22.0637 25.3903 22.2906 25.3903 22.5782V26.1887H26.4719V24.7844H28.4342V26.1887H29.5158V21.6449H26.3229V21.6455ZM28.4336 22.6309V23.7997H26.4713V22.8578C26.4713 22.7444 26.5584 22.6309 26.6982 22.6309H28.4336Z" fill="#002D73"/>
<path d="M31.6519 21.6449H30.5702V26.1887H31.6519V21.6449Z" fill="#002D73"/>
<path d="M14.7597 12.3316C15.0038 12.3316 15.2742 12.2967 15.5532 12.2446C16.565 12.0263 17.5418 11.678 18.4487 11.3199C20.899 10.3866 22.1027 9.4625 22.4081 9.20925C22.4694 9.16572 22.5037 9.13076 22.5301 9.1044C22.5914 9.04308 22.6607 8.96459 22.6607 8.84256C22.6607 8.61568 22.3989 8.54578 22.2419 8.50224C22.2247 8.49366 22.2069 8.49366 22.1898 8.48507C20.376 7.94423 18.2825 7.65665 16.129 7.65665H15.9984C15.6758 7.66523 15.379 7.73514 15.1436 7.84858C14.3851 8.22385 14.0184 9.1044 13.8007 9.62745C13.7743 9.67957 13.7571 9.73231 13.7394 9.77584C13.3383 10.7091 13.277 11.4069 13.556 11.8337C13.7829 12.1661 14.1839 12.3316 14.7597 12.3316ZM13.9049 9.84575C13.9221 9.80221 13.9485 9.75009 13.9662 9.69735C14.1753 9.20005 14.5242 8.36305 15.2221 8.01414C15.4312 7.90928 15.7102 7.84858 15.9984 7.83999H16.1204C18.2568 7.83999 20.3416 8.12758 22.1291 8.65983C22.1462 8.66842 22.164 8.66842 22.1812 8.677C22.286 8.70337 22.4688 8.75549 22.4688 8.84256C22.4688 8.8861 22.4516 8.92964 22.3903 8.98237C22.3731 8.99954 22.3382 9.02591 22.2854 9.06945C21.9801 9.32208 20.7942 10.2382 18.3696 11.1537C17.4713 11.5026 16.4944 11.8601 15.5005 12.0692C15.23 12.1213 14.9682 12.1563 14.7419 12.1563C14.2275 12.1563 13.87 12.0165 13.6866 11.7374C13.4597 11.3634 13.5296 10.7269 13.9049 9.84575Z" fill="url(#paint0_radial_2_259)"/>
<path d="M16.094 6.65372C9.27402 6.65372 3.72768 9.50568 3.72768 13.0113C3.72768 16.5169 9.27402 19.3689 16.094 19.3689C22.9139 19.3689 28.4602 16.5169 28.4602 13.0113C28.4602 9.50568 22.9133 6.65372 16.094 6.65372ZM16.094 19.1856C9.38746 19.1856 3.9282 16.4213 3.9282 13.0199C3.9282 9.61851 9.38746 6.85423 16.094 6.85423C22.8005 6.85423 28.2683 9.61851 28.2683 13.0199C28.2683 16.4127 22.809 19.1856 16.094 19.1856Z" fill="url(#paint1_radial_2_259)"/>
<path d="M12.1951 8.45072C12.2736 8.32011 12.2387 8.21525 12.1865 8.15393C12.1081 8.05827 11.899 8.04907 11.585 8.11039C7.43368 8.9566 4.74789 10.8839 4.74789 13.0202C4.74789 14.1976 5.56773 15.3228 7.11973 16.2732C7.23317 16.3345 7.32883 16.3689 7.4251 16.3689C7.57349 16.3603 7.64339 16.2732 7.7041 16.177C7.73047 16.142 7.75622 16.0813 7.78259 16.02L7.80896 15.9764C9.16043 12.8541 10.6346 10.3081 12.0823 8.60708C12.143 8.53779 12.1694 8.49425 12.1951 8.45072ZM12.0467 8.35444C12.0204 8.39798 11.9946 8.43293 11.9511 8.48505C10.4947 10.1946 9.00346 12.7584 7.65137 15.8894L7.6342 15.9329C7.60783 15.9942 7.58207 16.0463 7.56429 16.0813C7.52076 16.1512 7.4858 16.1862 7.43368 16.1862C7.37236 16.1862 7.31166 16.1598 7.22458 16.1162C5.7333 15.2008 4.93982 14.1277 4.93982 13.0116C4.93982 10.9624 7.56491 9.10438 11.6285 8.27596C11.742 8.24959 11.8468 8.241 11.9253 8.241C12.0302 8.241 12.0559 8.26737 12.0651 8.26737C12.0731 8.28515 12.0731 8.32011 12.0467 8.35444Z" fill="url(#paint2_radial_2_259)"/>
<path d="M17.4715 13.682C17.2275 13.682 16.9571 13.717 16.6781 13.7691C15.6228 13.996 14.611 14.3707 13.8003 14.6846L13.7832 14.6932C11.3237 15.6265 10.1206 16.5506 9.8152 16.8124C9.79803 16.8296 9.78025 16.8473 9.76308 16.8559C9.73671 16.8731 9.71954 16.8909 9.70176 16.908C9.64964 16.9602 9.57973 17.0479 9.57973 17.1699C9.57973 17.3968 9.86732 17.4838 10.0243 17.5274L10.0507 17.536C11.8559 18.0682 13.9487 18.3558 16.1115 18.3558H16.1286C16.1458 18.3558 16.1636 18.3558 16.1808 18.3558C16.1979 18.3558 16.2157 18.3558 16.2329 18.3558C16.5383 18.3472 16.8522 18.2773 17.0877 18.1639C17.8554 17.78 18.2129 16.8995 18.4306 16.3758C18.4477 16.3237 18.4655 16.2801 18.4827 16.2452C18.8837 15.3119 18.945 14.6141 18.666 14.1873C18.4484 13.8476 18.0467 13.682 17.4715 13.682ZM18.3171 16.1679C18.3 16.2115 18.2822 16.255 18.2558 16.3077C18.0467 16.8136 17.6978 17.6592 16.9914 18.0081C16.686 18.1565 16.4156 18.1823 16.0845 18.1823C13.9481 18.1823 11.8725 17.9033 10.0758 17.371L10.0409 17.3624C9.9452 17.3361 9.7269 17.2668 9.7269 17.1791C9.7269 17.1355 9.74407 17.1006 9.7968 17.0485C9.81397 17.0313 9.83176 17.0221 9.84893 17.0049C9.8661 16.9878 9.88388 16.9786 9.90105 16.9614C10.2064 16.7088 11.3837 15.8012 13.8169 14.8686L13.8341 14.86C14.6361 14.5546 15.6393 14.1708 16.686 13.9531C16.9565 13.9009 17.2183 13.866 17.4446 13.866C17.959 13.866 18.3165 14.0058 18.4999 14.2848C18.7709 14.6589 18.701 15.2868 18.3171 16.1679Z" fill="url(#paint3_radial_2_259)"/>
<path d="M25.1023 9.75816C24.9974 9.68826 24.9104 9.66251 24.8319 9.66251C24.8147 9.66251 24.8055 9.66251 24.7969 9.66251C24.6749 9.67109 24.5786 9.73241 24.5265 9.84585C24.483 9.90717 24.4394 10.0028 24.4216 10.0464C23.6717 11.8081 22.1105 15.1132 20.1483 17.4157C20.0962 17.477 20.0612 17.5206 20.0349 17.5727C19.9735 17.6861 19.9735 17.791 20.0434 17.8695C20.0956 17.9216 20.1741 17.948 20.2961 17.948C20.3832 17.948 20.4794 17.9394 20.61 17.913C24.7614 17.0668 27.4386 15.1395 27.4386 13.0032C27.4398 11.8252 26.6285 10.7 25.1023 9.75816ZM20.5677 17.7468C20.4543 17.7732 20.3586 17.7818 20.2887 17.7818C20.1931 17.7818 20.1753 17.7646 20.1667 17.7554C20.1403 17.7291 20.1667 17.6855 20.1753 17.6598C20.1925 17.6248 20.2188 17.5899 20.2709 17.5292C22.2503 15.2009 23.8115 11.8866 24.5707 10.1163C24.6056 10.0378 24.6406 9.97646 24.6663 9.92434C24.7013 9.85444 24.7362 9.82868 24.8061 9.82868C24.8147 9.82868 24.8147 9.82868 24.8233 9.82868C24.8668 9.82868 24.9281 9.85505 24.9974 9.89859C26.4716 10.8055 27.2472 11.878 27.2472 13.0032C27.265 15.0604 24.6314 16.9184 20.5677 17.7468Z" fill="url(#paint4_radial_2_259)"/>
<mask id="mask0_2_259" style="mask-type:luminance" maskUnits="userSpaceOnUse" x="3" y="6" width="26" height="14">
<path d="M16.0943 19.2711C22.8615 19.2711 28.3557 16.4719 28.3557 13.0184C28.3557 9.56487 22.87 6.75644 16.0943 6.75644C9.32705 6.75644 3.83284 9.55567 3.83284 13.0184C3.84081 16.4713 9.32644 19.2711 16.0943 19.2711ZM18.4048 16.2008C18.2043 16.6718 17.8468 17.6835 17.0441 18.0846C16.8 18.2066 16.4947 18.2587 16.2243 18.2679C16.1629 18.2765 16.1194 18.2679 16.1022 18.2679C13.8874 18.2679 11.8117 17.9711 10.0672 17.4567C9.93657 17.4217 9.65756 17.3518 9.65756 17.1777C9.65756 17.0992 9.7011 17.0379 9.75322 16.9771C9.77959 16.9508 9.81454 16.925 9.86666 16.8815C10.2677 16.5412 11.5063 15.652 13.8083 14.7795C14.6195 14.4741 15.6307 14.0816 16.6952 13.864C17.3151 13.7242 19.6263 13.3753 18.4048 16.2008ZM24.5968 9.89599C24.6403 9.8175 24.7017 9.75618 24.7973 9.7476C24.8586 9.73901 24.9279 9.75618 25.0499 9.82609C26.4891 10.7158 27.3433 11.8147 27.3433 13.0092C27.3433 15.1719 24.5612 17.0207 20.5847 17.8319C20.332 17.8841 20.1573 17.8841 20.1052 17.8148C20.0702 17.7712 20.053 17.7013 20.1052 17.6228C20.1315 17.5793 20.1573 17.5358 20.21 17.4744C22.3813 14.9279 24.0296 11.169 24.5005 10.0793C24.5269 10.018 24.571 9.93953 24.5968 9.89599ZM13.8267 9.80892C14.0272 9.33798 14.3847 8.32622 15.1873 7.92519C15.4314 7.80316 15.7368 7.75104 16.0072 7.74184C16.0685 7.74184 16.112 7.74184 16.1292 7.74184C18.3533 7.74184 20.4197 8.04721 22.1643 8.56168C22.2949 8.59663 22.5739 8.64875 22.5739 8.8321C22.5739 8.91059 22.5303 8.97191 22.469 9.03261C22.4426 9.05898 22.4077 9.09393 22.3556 9.12827C21.946 9.46859 20.7245 10.3491 18.414 11.2303C17.6027 11.5443 16.5824 11.9281 15.5271 12.155C14.9169 12.2856 12.6058 12.6345 13.8267 9.80892ZM11.6112 8.18641C11.873 8.13429 12.065 8.13428 12.1257 8.20358C12.1606 8.24711 12.1778 8.30843 12.1257 8.39551C12.0993 8.43904 12.0735 8.48258 12.0208 8.5439C9.84949 11.0905 8.20123 14.8494 7.73888 15.9304C7.70393 16.0089 7.66898 16.0788 7.64322 16.1309C7.5911 16.2094 7.53837 16.2708 7.43413 16.2793C7.382 16.2793 7.30351 16.2622 7.18149 16.1923C5.74232 15.3117 4.85319 14.2037 4.85319 13.0092C4.844 10.855 7.63464 8.99766 11.6112 8.18641Z" fill="white"/>
</mask>
<g mask="url(#mask0_2_259)">
<mask id="mask1_2_259" style="mask-type:luminance" maskUnits="userSpaceOnUse" x="3" y="6" width="26" height="14">
<path d="M16.0942 19.1409C9.40547 19.1409 3.96338 16.3938 3.96338 13.0102C3.96338 9.62659 9.40547 6.87949 16.0942 6.87949C22.7829 6.87949 28.225 9.62659 28.225 13.0102C28.225 16.3938 22.7829 19.1409 16.0942 19.1409ZM17.472 13.6467C17.228 13.6467 16.949 13.6816 16.67 13.7338C15.6061 13.9606 14.6029 14.3445 13.7923 14.6493L13.7751 14.6578C11.307 15.5997 10.1033 16.5244 9.79853 16.7856L9.74641 16.8292C9.72004 16.8463 9.70287 16.8727 9.68509 16.8813C9.62377 16.9334 9.54528 17.0297 9.54528 17.1689C9.54528 17.4215 9.85065 17.5092 10.0162 17.5613L10.0426 17.5699C11.8564 18.1022 13.9498 18.3897 16.1126 18.3897C16.1389 18.3897 16.1561 18.3897 16.1825 18.3897C16.1997 18.3897 16.226 18.3897 16.2438 18.3897C16.5406 18.3812 16.8631 18.3113 17.1072 18.1978C17.8835 17.8054 18.2496 16.9156 18.4764 16.384L18.5286 16.2534C18.9382 15.3029 18.9995 14.6051 18.7119 14.1605C18.4746 13.8214 18.0564 13.6467 17.472 13.6467ZM24.8322 9.62659C24.815 9.62659 24.8058 9.62659 24.7887 9.62659C24.6666 9.63518 24.5618 9.70508 24.4919 9.83569C24.4569 9.88781 24.4134 9.98408 24.387 10.0276C23.6285 11.7893 22.0759 15.0859 20.1223 17.3884C20.0701 17.4497 20.0352 17.4933 20.0002 17.554C19.9132 17.6938 19.9567 17.8244 20.0174 17.8943C20.0695 17.9556 20.1658 17.9899 20.2964 17.9899C20.3835 17.9899 20.4883 17.9814 20.6189 17.955C24.7874 17.1002 27.4824 15.1643 27.4824 13.0102C27.4824 11.8065 26.6712 10.6727 25.1278 9.72225C25.007 9.65296 24.9193 9.62659 24.8322 9.62659ZM11.9251 8.03045C11.8294 8.03045 11.716 8.04762 11.5848 8.07399C7.41627 8.92019 4.72129 10.8646 4.72129 13.0188C4.72129 14.2133 5.54971 15.3471 7.1109 16.3067C7.22434 16.3766 7.3292 16.4116 7.43344 16.4116C7.60759 16.403 7.69527 16.2981 7.7474 16.2111C7.77376 16.1675 7.79952 16.1062 7.83447 16.0455L7.85164 16.002C9.20312 12.8796 10.6772 10.3336 12.1164 8.64119C12.1777 8.57129 12.2035 8.52775 12.2298 8.47563C12.3169 8.32724 12.282 8.20521 12.2127 8.13531C12.1605 8.05682 12.0649 8.03045 11.9251 8.03045ZM16.0065 7.62084C15.684 7.62942 15.37 7.70791 15.1345 7.82135C14.3582 8.20521 13.9922 9.08576 13.7739 9.61801L13.7125 9.7664C13.3029 10.7169 13.2416 11.4147 13.5292 11.8592C13.7561 12.1996 14.1657 12.3737 14.7586 12.3737C15.0027 12.3737 15.2817 12.3387 15.5607 12.2866C16.5725 12.0683 17.5579 11.7108 18.4648 11.3619C20.9151 10.4286 22.1274 9.50457 22.4414 9.24273C22.5027 9.1992 22.537 9.16425 22.5634 9.12929C22.6247 9.06797 22.694 8.9809 22.694 8.85029C22.694 8.59765 22.4064 8.51917 22.2494 8.47502L22.1973 8.45785C20.3835 7.91701 18.2814 7.62942 16.1273 7.62942H16.0053V7.62084H16.0065Z" fill="white"/>
</mask>
<g mask="url(#mask1_2_259)">
<mask id="mask2_2_259" style="mask-type:luminance" maskUnits="userSpaceOnUse" x="3" y="6" width="26" height="14">
<path d="M16.0941 19.1423C9.41402 19.1423 3.97192 16.3952 3.97192 13.0202C3.97192 9.64515 9.40482 6.89804 16.0941 6.89804C22.7743 6.89804 28.2164 9.64515 28.2164 13.0202C28.2164 16.3952 22.7743 19.1423 16.0941 19.1423ZM17.4628 13.6481C17.2187 13.6481 16.9397 13.683 16.6607 13.7351C15.6054 13.962 14.5937 14.3367 13.783 14.6506L13.7659 14.6592C11.2977 15.6011 10.1032 16.5258 9.78929 16.7784L9.73717 16.8306C9.7108 16.8477 9.69363 16.8741 9.67585 16.8827C9.61453 16.9348 9.53604 17.0311 9.53604 17.1703C9.53604 17.4229 9.84141 17.5106 10.007 17.5627L10.0333 17.5713C11.8386 18.1035 13.9406 18.3911 16.0941 18.3911C16.1205 18.3911 16.1377 18.3911 16.1641 18.3911C16.1812 18.3911 16.2076 18.3911 16.2254 18.3911C16.5222 18.3825 16.8447 18.3126 17.0887 18.1992C17.865 17.8068 18.2311 16.9262 18.4494 16.394L18.5015 16.2633C18.9112 15.3215 18.9725 14.6151 18.6849 14.1705C18.4746 13.8228 18.0564 13.6481 17.4628 13.6481ZM24.8236 9.62798C24.8064 9.62798 24.7972 9.62798 24.78 9.62798C24.658 9.63656 24.5532 9.70647 24.4832 9.83708C24.4483 9.8892 24.4048 9.98547 24.3784 10.029C23.6285 11.7907 22.0758 15.0872 20.1136 17.3806C20.0615 17.4419 20.0266 17.4854 19.9916 17.5461C19.9045 17.686 19.9481 17.8166 20.0088 17.8865C20.0609 17.9478 20.1572 17.9821 20.2878 17.9821C20.3749 17.9821 20.4797 17.9735 20.6103 17.9472C24.7702 17.101 27.4652 15.1565 27.4652 13.0024C27.4652 11.7987 26.654 10.6649 25.1105 9.72302C24.9977 9.66293 24.9021 9.62798 24.8236 9.62798ZM11.925 8.03184C11.8294 8.03184 11.7159 8.049 11.5847 8.07537C7.41623 8.92158 4.72983 10.8574 4.72983 13.0116C4.72983 14.1975 5.54967 15.3399 7.11086 16.2909C7.2243 16.3608 7.32916 16.3958 7.42482 16.3958C7.59896 16.3872 7.68665 16.2824 7.73877 16.1953C7.76514 16.1517 7.79089 16.0904 7.82585 16.0297L7.84301 15.9862C9.18591 12.8638 10.66 10.3264 12.1078 8.6346C12.1691 8.5647 12.1948 8.52116 12.2212 8.46904C12.3083 8.32065 12.2733 8.19862 12.204 8.12872C12.1697 8.06679 12.0734 8.03184 11.925 8.03184ZM16.0065 7.63081C15.6839 7.63939 15.3785 7.7093 15.1431 7.83132C14.3668 8.21518 14.0007 9.09573 13.7824 9.62798L13.7211 9.77637C13.3115 10.7268 13.2502 11.4246 13.5377 11.8692C13.7646 12.2095 14.1742 12.3837 14.7672 12.3837C15.0112 12.3837 15.2902 12.3487 15.5693 12.2966C16.581 12.0783 17.5578 11.73 18.4733 11.3719C20.9237 10.4386 22.1274 9.51454 22.4413 9.2527C22.5026 9.20917 22.537 9.17422 22.5633 9.13926C22.6247 9.08714 22.6939 8.99087 22.6939 8.86026C22.6939 8.60762 22.4064 8.52914 22.2494 8.48499L22.1973 8.46782C20.3834 7.92698 18.29 7.63939 16.1273 7.63939L16.0065 7.63081Z" fill="white"/>
</mask>
<g mask="url(#mask2_2_259)">
<path d="M16.0941 19.2621C22.8527 19.2621 28.3383 16.4629 28.3383 13.0094C28.3383 9.55588 22.8613 6.75665 16.0941 6.75665C9.33547 6.75665 3.84985 9.55588 3.84985 13.0094C3.84985 16.4629 9.33486 19.2621 16.0941 19.2621ZM18.396 16.2011C18.1955 16.672 17.8466 17.6752 17.0353 18.0762C16.7913 18.1982 16.4859 18.2504 16.2155 18.2596C16.1542 18.2681 16.1106 18.2596 16.0935 18.2596C13.8345 18.2596 11.7331 17.9456 9.97136 17.4133C9.95419 17.4048 9.91924 17.387 9.91924 17.387C9.74509 17.3349 9.6574 17.2564 9.6574 17.1601C9.6574 17.0816 9.70094 17.0203 9.75306 16.9596C9.77943 16.9332 9.81438 16.9075 9.8665 16.8639C10.2675 16.5236 11.4976 15.6345 13.7995 14.7619C14.6108 14.4565 15.6219 14.0641 16.6772 13.8464C17.315 13.7244 19.6169 13.3755 18.396 16.2011ZM24.588 9.8962C24.6316 9.81771 24.6929 9.7564 24.7886 9.74781C24.8499 9.73923 24.9192 9.7564 25.0412 9.8263C26.4804 10.7068 27.3345 11.8057 27.3345 13.0008C27.3345 15.155 24.5525 17.0123 20.5845 17.8236C20.3319 17.8757 20.1571 17.8757 20.105 17.8064C20.07 17.7629 20.0529 17.693 20.105 17.6145C20.1314 17.5709 20.1571 17.5274 20.2098 17.4747C22.3726 14.9281 24.0294 11.1784 24.4918 10.0881C24.5181 10.0182 24.5617 9.94832 24.588 9.8962ZM13.8265 9.81771C14.027 9.34678 14.3759 8.3436 15.1872 7.93398C15.4312 7.81196 15.7366 7.75984 16.007 7.75064C16.0683 7.75064 16.1119 7.75064 16.129 7.75064C18.3881 7.75064 20.4895 8.0646 22.2512 8.60543C22.2683 8.60543 22.3033 8.6226 22.3211 8.6226C22.4866 8.67472 22.5651 8.75321 22.5737 8.8409C22.5737 8.91939 22.5302 8.98071 22.4689 9.04141C22.4425 9.06778 22.4075 9.10273 22.3554 9.13707C21.9458 9.47739 20.7243 10.3579 18.4224 11.2391C17.6111 11.5531 16.6 11.9369 15.5447 12.1546C14.9168 12.2858 12.6142 12.6347 13.8265 9.81771ZM11.6202 8.1952C11.8821 8.14308 12.074 8.14308 12.1347 8.21237C12.1697 8.25591 12.1868 8.31723 12.1347 8.4043C12.1083 8.44784 12.0826 8.49138 12.0298 8.5527C9.86711 11.0993 8.21885 14.849 7.74792 15.9306C7.71297 16.0091 7.67801 16.079 7.65226 16.1312C7.60014 16.2096 7.5474 16.271 7.44316 16.271C7.39104 16.271 7.31255 16.2538 7.19052 16.1839C5.76056 15.3033 4.87081 14.2045 4.87081 13.0094C4.861 10.8552 7.64306 8.99787 11.6202 8.1952Z" fill="white"/>
</g>
<mask id="mask3_2_259" style="mask-type:luminance" maskUnits="userSpaceOnUse" x="3" y="6" width="26" height="14">
<path d="M16.0941 19.1423C9.41402 19.1423 3.97192 16.3952 3.97192 13.0202C3.97192 9.64515 9.40482 6.89804 16.0941 6.89804C22.7743 6.89804 28.2164 9.64515 28.2164 13.0202C28.2164 16.3952 22.7743 19.1423 16.0941 19.1423ZM17.4628 13.6481C17.2187 13.6481 16.9397 13.683 16.6607 13.7351C15.6054 13.962 14.5937 14.3367 13.783 14.6506L13.7659 14.6592C11.2977 15.6011 10.1032 16.5258 9.78929 16.7784L9.73717 16.8306C9.7108 16.8477 9.69363 16.8741 9.67585 16.8827C9.61453 16.9348 9.53604 17.0311 9.53604 17.1703C9.53604 17.4229 9.84141 17.5106 10.007 17.5627L10.0333 17.5713C11.8386 18.1035 13.9406 18.3911 16.0941 18.3911C16.1205 18.3911 16.1377 18.3911 16.1641 18.3911C16.1812 18.3911 16.2076 18.3911 16.2254 18.3911C16.5222 18.3825 16.8447 18.3126 17.0887 18.1992C17.865 17.8068 18.2311 16.9262 18.4494 16.394L18.5015 16.2633C18.9112 15.3215 18.9725 14.6151 18.6849 14.1705C18.4746 13.8228 18.0564 13.6481 17.4628 13.6481ZM24.8236 9.62798C24.8064 9.62798 24.7972 9.62798 24.78 9.62798C24.658 9.63656 24.5532 9.70647 24.4832 9.83708C24.4483 9.8892 24.4048 9.98547 24.3784 10.029C23.6285 11.7907 22.0758 15.0872 20.1136 17.3806C20.0615 17.4419 20.0266 17.4854 19.9916 17.5461C19.9045 17.686 19.9481 17.8166 20.0088 17.8865C20.0609 17.9478 20.1572 17.9821 20.2878 17.9821C20.3749 17.9821 20.4797 17.9735 20.6103 17.9472C24.7702 17.101 27.4652 15.1565 27.4652 13.0024C27.4652 11.7987 26.654 10.6649 25.1105 9.72302C24.9977 9.66293 24.9021 9.62798 24.8236 9.62798ZM11.925 8.03184C11.8294 8.03184 11.7159 8.049 11.5847 8.07537C7.41623 8.92158 4.72983 10.8574 4.72983 13.0116C4.72983 14.1975 5.54967 15.3399 7.11086 16.2909C7.2243 16.3608 7.32916 16.3958 7.42482 16.3958C7.59896 16.3872 7.68665 16.2824 7.73877 16.1953C7.76514 16.1517 7.79089 16.0904 7.82585 16.0297L7.84301 15.9862C9.18591 12.8638 10.66 10.3264 12.1078 8.6346C12.1691 8.5647 12.1948 8.52116 12.2212 8.46904C12.3083 8.32065 12.2733 8.19862 12.204 8.12872C12.1697 8.06679 12.0734 8.03184 11.925 8.03184ZM16.0065 7.63081C15.6839 7.63939 15.3785 7.7093 15.1431 7.83132C14.3668 8.21518 14.0007 9.09573 13.7824 9.62798L13.7211 9.77637C13.3115 10.7268 13.2502 11.4246 13.5377 11.8692C13.7646 12.2095 14.1742 12.3837 14.7672 12.3837C15.0112 12.3837 15.2902 12.3487 15.5693 12.2966C16.581 12.0783 17.5578 11.73 18.4733 11.3719C20.9237 10.4386 22.1274 9.51454 22.4413 9.2527C22.5026 9.20917 22.537 9.17422 22.5633 9.13926C22.6247 9.08714 22.6939 8.99087 22.6939 8.86026C22.6939 8.60762 22.4064 8.52914 22.2494 8.48499L22.1973 8.46782C20.3834 7.92698 18.29 7.63939 16.1273 7.63939L16.0065 7.63081Z" fill="white"/>
</mask>
<g mask="url(#mask3_2_259)">
<path d="M16.0941 19.2621C22.8527 19.2621 28.3383 16.4629 28.3383 13.0094C28.3383 9.55588 22.8613 6.75665 16.0941 6.75665C9.33547 6.75665 3.84985 9.55588 3.84985 13.0094C3.84985 16.4629 9.33486 19.2621 16.0941 19.2621ZM18.396 16.2011C18.1955 16.672 17.8466 17.6752 17.0353 18.0762C16.7913 18.1982 16.4859 18.2504 16.2155 18.2596C16.1542 18.2681 16.1106 18.2596 16.0935 18.2596C13.8345 18.2596 11.7331 17.9456 9.97136 17.4133C9.95419 17.4048 9.91924 17.387 9.91924 17.387C9.74509 17.3349 9.6574 17.2564 9.6574 17.1601C9.6574 17.0816 9.70094 17.0203 9.75306 16.9596C9.77943 16.9332 9.81438 16.9075 9.8665 16.8639C10.2675 16.5236 11.4976 15.6345 13.7995 14.7619C14.6108 14.4565 15.6219 14.0641 16.6772 13.8464C17.315 13.7244 19.6169 13.3755 18.396 16.2011ZM24.588 9.8962C24.6316 9.81771 24.6929 9.7564 24.7886 9.74781C24.8499 9.73923 24.9192 9.7564 25.0412 9.8263C26.4804 10.7068 27.3345 11.8057 27.3345 13.0008C27.3345 15.155 24.5525 17.0123 20.5845 17.8236C20.3319 17.8757 20.1571 17.8757 20.105 17.8064C20.07 17.7629 20.0529 17.693 20.105 17.6145C20.1314 17.5709 20.1571 17.5274 20.2098 17.4747C22.3726 14.9281 24.0294 11.1784 24.4918 10.0881C24.5181 10.0182 24.5617 9.94832 24.588 9.8962ZM13.8265 9.81771C14.027 9.34678 14.3759 8.3436 15.1872 7.93398C15.4312 7.81196 15.7366 7.75984 16.007 7.75064C16.0683 7.75064 16.1119 7.75064 16.129 7.75064C18.3881 7.75064 20.4895 8.0646 22.2512 8.60543C22.2683 8.60543 22.3033 8.6226 22.3211 8.6226C22.4866 8.67472 22.5651 8.75321 22.5737 8.8409C22.5737 8.91939 22.5302 8.98071 22.4689 9.04141C22.4425 9.06778 22.4075 9.10273 22.3554 9.13707C21.9458 9.47739 20.7243 10.3579 18.4224 11.2391C17.6111 11.5531 16.6 11.9369 15.5447 12.1546C14.9168 12.2858 12.6142 12.6347 13.8265 9.81771ZM11.6202 8.1952C11.8821 8.14308 12.074 8.14308 12.1347 8.21237C12.1697 8.25591 12.1868 8.31723 12.1347 8.4043C12.1083 8.44784 12.0826 8.49138 12.0298 8.5527C9.86711 11.0993 8.21885 14.849 7.74792 15.9306C7.71297 16.0091 7.67801 16.079 7.65226 16.1312C7.60014 16.2096 7.5474 16.271 7.44316 16.271C7.39104 16.271 7.31255 16.2538 7.19052 16.1839C5.76056 15.3033 4.87081 14.2045 4.87081 13.0094C4.861 10.8552 7.64306 8.99787 11.6202 8.1952Z" fill="url(#paint5_linear_2_259)"/>
</g>
</g>
<path d="M19.7047 17.5019C20.7771 16.2025 22.0072 13.9349 22.4082 13.1586L19.2515 14.2225C19.2687 15.0945 19.086 17.0131 17.3506 18.3474C17.3506 18.3474 16.7313 18.5565 15.5889 18.5565L15.2921 19.0189C16.0598 19.0802 18.2312 19.1673 21.3358 18.4866L21.6148 17.8501C20.7594 18.1819 18.6579 18.7834 19.7047 17.5019Z" fill="url(#paint6_linear_2_259)"/>
<path d="M15.7623 12.1025C15.6924 12.1196 15.6139 12.1374 15.544 12.1546C15.2037 12.2245 14.393 12.3551 13.8872 12.0326C13.4512 11.7536 13.2592 11.1257 13.8258 9.80852C14.0178 9.37254 14.3403 8.44784 15.0467 8.00328L14.2704 7.349C14.2183 7.37537 14.1747 7.41032 14.1398 7.44466C13.7995 7.88064 13.5033 8.36015 13.2329 8.84029C12.9802 9.30263 12.7534 9.77357 12.5614 10.2617C12.413 10.6455 12.1954 11.2299 12.1426 11.7793C12.0813 12.3986 12.2297 12.9738 12.9011 13.175C12.9447 13.1921 12.9968 13.2013 13.0581 13.2185C13.4506 13.3141 14.2005 13.3926 15.9009 12.9309L15.7623 12.1025Z" fill="url(#paint7_linear_2_259)"/>
<path d="M23.7859 8.70068L22.5737 8.83129V8.83988C22.5737 8.91837 22.5301 8.97969 22.4688 9.04039C22.4424 9.06676 22.4075 9.10171 22.3554 9.13605C21.9457 9.47637 20.7243 10.3569 18.4137 11.2381C17.8557 11.4564 17.2015 11.7004 16.4951 11.9095C16.251 11.9794 15.9978 12.0493 15.7451 12.11C15.6752 12.1272 15.5967 12.145 15.5268 12.1622C15.2129 12.2321 14.4801 12.3455 13.9742 12.1008L12.9275 13.1911C12.971 13.1997 13.0146 13.2175 13.0673 13.2261C13.4598 13.3217 14.2097 13.4002 15.9101 12.9385C16.6778 12.7294 17.6454 12.4154 18.8577 11.9353C20.9334 11.124 23.3579 9.73759 23.7853 8.76078C23.7859 8.74422 23.7945 8.71847 23.7859 8.70068Z" fill="url(#paint8_linear_2_259)"/>
<path d="M7.42524 16.2797C7.37312 16.2797 7.29463 16.2626 7.1726 16.1927C5.73344 15.3121 4.84431 14.2041 4.84431 13.0096C4.84431 10.8554 7.63495 8.99807 11.6115 8.18681C11.8733 8.13469 12.0653 8.13469 12.126 8.20398C12.1346 8.21257 12.1431 8.22115 12.1431 8.23035L13.8699 7.35839C13.8613 7.32343 13.8178 7.31485 13.7565 7.31485C11.4453 7.54173 9.32614 8.11691 7.63434 8.9717C5.46302 10.0705 4.27649 11.5005 4.27649 13.001C4.27649 14.5015 5.47099 15.9314 7.63434 17.0303C7.73 17.0824 7.82627 17.1259 7.92193 17.1701C7.98324 17.1965 8.04395 17.1965 8.08749 17.1787L7.49453 16.2368C7.48594 16.2712 7.46019 16.2712 7.42524 16.2797Z" fill="url(#paint9_linear_2_259)"/>
<path d="M19.2944 12.8361C18.8149 12.6877 17.6462 12.3916 13.3465 14.0748C11.2708 14.886 8.84624 16.2725 8.41884 17.2493C8.40168 17.2842 8.40168 17.3192 8.41884 17.3449L9.6483 17.2051C9.6483 17.1965 9.6483 17.188 9.6483 17.1702C9.6483 17.0917 9.69183 17.0304 9.74396 16.9697C9.77032 16.9433 9.80528 16.9175 9.8574 16.874C10.2584 16.5337 11.4971 15.6445 13.799 14.772C14.6103 14.4666 15.6214 14.0742 16.6859 13.8565C17.3138 13.7259 19.6164 13.377 18.3955 16.2026C18.195 16.6649 17.8461 17.6503 17.0698 18.0691L17.9332 18.6707C17.9853 18.6443 18.0288 18.6093 18.0552 18.575C18.3955 18.139 18.6917 17.6595 18.9621 17.1794C19.2147 16.717 19.4416 16.2461 19.6335 15.758C19.7819 15.3741 19.9996 14.7898 20.0524 14.2403C20.1143 13.621 19.9745 13.0452 19.2944 12.8361Z" fill="url(#paint10_linear_2_259)"/>
<path d="M17.0447 18.0856C16.8006 18.2077 16.4952 18.2598 16.2248 18.269C16.1635 18.2776 16.12 18.269 16.1028 18.269C13.8438 18.269 11.7338 17.955 9.97209 17.4228C9.95492 17.4142 9.91997 17.3964 9.91997 17.3964C9.76299 17.3443 9.6845 17.283 9.66733 17.2045L8.43788 17.3443C8.46425 17.3964 8.52495 17.4399 8.61203 17.4749C10.7312 18.3383 13.3477 18.8092 16.112 18.8092C16.548 18.8092 16.984 18.8006 17.4199 18.7742C17.664 18.7571 17.8296 18.7221 17.9522 18.6608L17.0888 18.0593C17.0618 18.0685 17.0533 18.077 17.0447 18.0856Z" fill="url(#paint11_linear_2_259)"/>
<path d="M20.1058 17.6224C20.1322 17.5788 20.1579 17.5353 20.2107 17.474C22.382 14.9274 24.0302 11.1685 24.5012 10.0789C24.5361 10.009 24.5711 9.93047 24.606 9.88693C24.641 9.82561 24.6845 9.77349 24.7458 9.74712L24.1179 8.81384C24.083 8.83101 24.048 8.85738 24.0394 8.89233C22.7401 11.6744 21.3537 14.2124 19.6355 16.7326C19.2167 17.3434 18.7721 17.9363 18.3625 18.5642C18.3275 18.6164 18.3275 18.6513 18.3539 18.6691L20.0978 17.7971C20.0623 17.7616 20.0623 17.7009 20.1058 17.6224Z" fill="url(#paint12_linear_2_259)"/>
<path d="M15.1867 7.9256C15.4307 7.80357 15.7361 7.75145 16.0065 7.74225C16.0678 7.74225 16.1114 7.74225 16.1285 7.74225C18.3875 7.74225 20.4889 8.05621 22.2592 8.59704C22.2764 8.59704 22.3114 8.61421 22.3291 8.61421C22.4861 8.66634 22.5646 8.73624 22.5732 8.82331L23.7855 8.6927C23.7683 8.63138 23.6984 8.57926 23.6021 8.53573C21.4829 7.67235 18.8664 7.20142 16.1022 7.20142C15.6662 7.20142 15.2302 7.21 14.7942 7.23637C14.5587 7.25354 14.3846 7.28849 14.262 7.34981L15.0383 8.00409C15.091 7.97772 15.1431 7.95135 15.1867 7.9256Z" fill="url(#paint13_linear_2_259)"/>
<path d="M27.9281 13.0088C27.9281 11.5089 26.7336 10.0784 24.5703 8.97951C24.4746 8.92739 24.3784 8.88385 24.2827 8.8397C24.2214 8.81333 24.1607 8.81333 24.1171 8.83112L24.745 9.7644C24.7622 9.75581 24.78 9.75581 24.8064 9.75581C24.8677 9.74723 24.937 9.7644 25.059 9.8343C26.4982 10.724 27.3523 11.8229 27.3523 13.0174C27.3523 13.0609 27.3523 13.1045 27.3523 13.1394H27.9367C27.9281 13.0959 27.9281 13.0523 27.9281 13.0088Z" fill="url(#paint14_linear_2_259)"/>
<path d="M27.3438 13.1233C27.2389 15.2253 24.4918 17.0392 20.5851 17.8326C20.3325 17.8848 20.1577 17.8848 20.1056 17.8155C20.097 17.8069 20.097 17.8069 20.097 17.7983L18.3531 18.6703C18.3703 18.6874 18.4052 18.6966 18.458 18.6966C20.7691 18.4698 22.8883 17.8946 24.5801 17.0398C26.6907 15.9673 27.8766 14.5803 27.9379 13.1239L27.3438 13.1233Z" fill="url(#paint15_linear_2_259)"/>
<path d="M23.7859 8.7013C23.7688 8.63998 23.6989 8.58786 23.6026 8.54432C23.315 8.43088 23.0182 8.31744 22.722 8.2132L22.199 8.57927C22.2162 8.58786 22.2425 8.58786 22.2603 8.59644C22.2775 8.59644 22.3124 8.61361 22.3302 8.61361C22.4872 8.66573 22.5657 8.73564 22.5743 8.82271V8.8313C22.5743 8.90978 22.5307 8.9711 22.4694 9.03181C22.443 9.05818 22.4081 9.09313 22.356 9.12747C22.321 9.15383 22.2861 9.17959 22.2425 9.21454L23.2801 9.39789C23.5155 9.171 23.6811 8.96191 23.7682 8.76139C23.7859 8.74483 23.7945 8.71908 23.7859 8.7013Z" fill="url(#paint16_linear_2_259)"/>
<path d="M9.97191 17.4224C9.86706 17.3789 9.69291 17.3354 9.66654 17.2041C9.66654 17.1955 9.66654 17.187 9.66654 17.1692C9.66654 17.0907 9.71008 17.0294 9.7622 16.9687C9.78857 16.9423 9.82352 16.9165 9.87564 16.873C9.91059 16.8381 9.95413 16.8031 10.0063 16.7682L9.00307 16.5327C8.73265 16.7853 8.53213 17.0208 8.43648 17.2477C8.41931 17.2826 8.41931 17.3176 8.43648 17.3433C8.46284 17.3954 8.52355 17.439 8.61062 17.4739C8.87246 17.5788 9.15146 17.683 9.43046 17.7793L10.067 17.439C10.024 17.4396 9.99767 17.431 9.97191 17.4224Z" fill="url(#paint17_linear_2_259)"/>
<path d="M24.571 8.97951C24.4754 8.92739 24.3791 8.88385 24.2835 8.8397C24.2221 8.81333 24.1614 8.81333 24.1179 8.83112C24.0829 8.84829 24.048 8.87465 24.0394 8.90961C23.9346 9.13649 23.8303 9.35417 23.7255 9.57247L24.4668 10.2004C24.484 10.1654 24.5018 10.1305 24.5103 10.0955C24.5453 10.0256 24.5802 9.94713 24.6152 9.90359C24.6502 9.84227 24.6937 9.79015 24.755 9.76378C24.7722 9.7552 24.79 9.7552 24.8163 9.7552C24.8776 9.74661 24.9469 9.76378 25.069 9.83369C25.1125 9.86006 25.1646 9.89501 25.2088 9.92076L25.2701 9.36276C25.0328 9.22417 24.8065 9.10215 24.571 8.97951Z" fill="url(#paint18_linear_2_259)"/>
<path d="M14.794 7.24528C14.5585 7.26245 14.3844 7.2974 14.2617 7.35872C14.2096 7.38509 14.1661 7.42004 14.1311 7.45438C13.9827 7.64631 13.8435 7.83824 13.7123 8.03875L14.4536 8.56181C14.6106 8.35271 14.8026 8.15219 15.0294 8.01238C15.073 7.98602 15.1251 7.96026 15.1778 7.9339C15.3348 7.85541 15.509 7.81187 15.6837 7.77692V7.21033C15.3961 7.21033 15.0993 7.22811 14.794 7.24528Z" fill="url(#paint19_linear_2_259)"/>
<path d="M17.0702 18.0671C17.0616 18.0756 17.053 18.0756 17.0353 18.0842C16.7912 18.2062 16.4858 18.2584 16.2154 18.2676C16.1541 18.2762 16.1106 18.2676 16.0934 18.2676C15.6746 18.2676 15.2564 18.2504 14.8547 18.2326L14.7499 18.782C15.1945 18.8084 15.6482 18.817 16.1014 18.817C16.5374 18.817 16.9733 18.8084 17.4093 18.782C17.6534 18.7649 17.8189 18.7299 17.9416 18.6686C17.9937 18.6422 18.0372 18.6073 18.0636 18.5729C18.4039 18.137 18.7001 17.6574 18.9705 17.1773C18.9969 17.1338 19.014 17.0902 19.0404 17.0467L18.2469 16.5844C18.0299 17.0731 17.681 17.7445 17.0702 18.0671Z" fill="url(#paint20_linear_2_259)"/>
<path d="M12.1432 8.23036C12.1604 8.2739 12.1604 8.32602 12.1261 8.39592C12.0997 8.43946 12.0739 8.483 12.0212 8.54432C9.84988 11.0909 8.20162 14.8498 7.73927 15.9308C7.70432 16.0093 7.66937 16.0792 7.64361 16.1314C7.60866 16.1835 7.57371 16.227 7.513 16.2534L8.10596 17.1953C8.14091 17.1781 8.17586 17.1517 8.18445 17.1168C9.4838 14.3347 10.8702 11.7967 12.5884 9.27647C13.0072 8.66573 13.4518 8.07277 13.8614 7.44486C13.8878 7.40991 13.8878 7.37496 13.8786 7.35779L12.1432 8.23036Z" fill="url(#paint21_linear_2_259)"/>
<path d="M7.86977 15.6263C7.81765 15.7484 7.77411 15.8446 7.73916 15.9317C7.70421 16.0102 7.66926 16.0801 7.6435 16.1322C7.60855 16.1843 7.5736 16.2279 7.51289 16.2543C7.48653 16.2628 7.46077 16.2714 7.4344 16.2714C7.38228 16.2714 7.30379 16.2543 7.18177 16.1843C7.06833 16.1144 6.95489 16.0445 6.84145 15.9661L6.89357 16.6203C7.12903 16.7687 7.38167 16.9079 7.6435 17.0391C7.73916 17.0913 7.83543 17.1348 7.93109 17.1789C7.99241 17.2053 8.05312 17.2053 8.09665 17.1875C8.13161 17.1704 8.16656 17.144 8.17514 17.109C8.33212 16.7779 8.4891 16.4462 8.64607 16.1236L7.86977 15.6263Z" fill="url(#paint22_linear_2_259)"/>
<path d="M13.8701 7.36715C13.8616 7.33219 13.818 7.32361 13.7567 7.32361C13.0938 7.39351 12.4396 7.48917 11.8208 7.60261L11.3934 8.23911C11.4634 8.22194 11.5418 8.20415 11.6117 8.19557C11.8736 8.14345 12.0655 8.14345 12.1262 8.21274C12.1348 8.22132 12.1434 8.22991 12.1434 8.23911C12.1606 8.28264 12.1606 8.33476 12.1262 8.40467C12.0998 8.44821 12.0741 8.49174 12.0214 8.55306C12.0042 8.57023 11.995 8.57943 11.9864 8.5966H13.0681C13.3385 8.22132 13.6003 7.84666 13.853 7.4628C13.8787 7.41988 13.8787 7.38493 13.8701 7.36715Z" fill="url(#paint23_linear_2_259)"/>
<path d="M16.0941 6.7572C9.32687 6.7572 3.83266 9.55643 3.83266 13.0099C3.83266 16.4634 9.31828 19.2719 16.0941 19.2719C22.8613 19.2719 28.3555 16.4726 28.3555 13.0099C28.3555 9.55643 22.8699 6.7572 16.0941 6.7572ZM24.5794 17.0742C22.3204 18.2251 19.3121 18.8623 16.1027 18.8623C12.8932 18.8623 9.88488 18.2258 7.62587 17.0742C5.45455 15.9668 4.25944 14.5276 4.25944 13.0191C4.25944 11.5107 5.45394 10.0715 7.62587 8.96409C9.88488 7.81312 12.8932 7.17601 16.1027 7.17601C19.3121 7.17601 22.3204 7.81251 24.5794 8.96409C26.7508 10.0715 27.9459 11.5107 27.9459 13.0191C27.9459 14.5276 26.7508 15.9661 24.5794 17.0742Z" fill="url(#paint24_linear_2_259)"/>
<path d="M15.7622 12.1024C15.6923 12.1195 15.6139 12.1373 15.5439 12.1545C15.2036 12.2244 14.393 12.355 13.8871 12.0325C13.5903 11.8405 13.4076 11.483 13.5032 10.8637L12.2302 11.3261C12.1953 11.483 12.1689 11.64 12.1518 11.797C12.0904 12.4163 12.2388 12.9915 12.9103 13.1926C12.9538 13.2098 13.0059 13.219 13.0673 13.2362C13.4597 13.3318 14.2182 13.4103 15.91 12.9486C16.0842 12.905 16.2761 12.8437 16.468 12.7916L16.5116 11.9196C16.2681 11.9803 16.0155 12.0502 15.7622 12.1024Z" fill="url(#paint25_linear_2_259)"/>
<path d="M20.053 14.2398C20.1144 13.6205 19.966 13.0453 19.2945 12.8442C18.8757 12.7136 17.9253 12.4689 14.8035 13.5506L14.8991 14.379C15.4572 14.1871 16.0679 13.9951 16.6958 13.8645C17.2888 13.7425 19.3644 13.42 18.5795 15.7568L19.7305 15.5214C19.8617 15.1473 20.0095 14.685 20.053 14.2398Z" fill="url(#paint26_linear_2_259)"/>
<path d="M19.5913 12.9654L18.2742 13.9337C18.4661 14.0385 18.6231 14.1955 18.7016 14.4395L20.0009 13.4713C19.9224 13.2794 19.7918 13.096 19.5913 12.9654Z" fill="url(#paint27_linear_2_259)"/>
<path d="M20.5852 17.8323C20.3326 17.8845 20.1578 17.8845 20.1057 17.8152C20.0971 17.8066 20.0971 17.8066 20.0971 17.798C20.0707 17.7545 20.0622 17.6931 20.1057 17.6146C20.1321 17.5711 20.1578 17.5276 20.2105 17.4663C20.289 17.3706 20.3761 17.2743 20.4546 17.1695L19.4171 17.0297C19.0596 17.5355 18.6935 18.0328 18.3618 18.5473C18.3268 18.5994 18.3268 18.6344 18.3532 18.6522C18.3704 18.6693 18.4053 18.6785 18.458 18.6785C19.2693 18.6001 20.0542 18.4694 20.8127 18.3125V17.7716C20.7336 17.806 20.6637 17.8237 20.5852 17.8323Z" fill="url(#paint28_linear_2_259)"/>
<path d="M13.7396 13.3416C13.2858 13.3416 13.0332 13.2631 12.9026 13.2196C12.3096 13.0362 12.0392 12.5567 12.1177 11.7896C12.1698 11.2751 12.3617 10.7343 12.5365 10.2634C12.7198 9.79244 12.9375 9.33009 13.2079 8.83341C13.5305 8.25762 13.8187 7.81305 14.1148 7.42919C14.2283 7.28938 14.4374 7.22868 14.7949 7.20231C15.2308 7.17594 15.6754 7.16736 16.1028 7.16736C18.8763 7.16736 21.475 7.62971 23.6206 8.51025C23.6819 8.53662 23.8824 8.63228 23.8125 8.78926C23.3851 9.77466 20.9434 11.1703 18.8677 11.9809C16.5652 12.8793 14.847 13.3416 13.7396 13.3416ZM16.1028 7.24523C15.6754 7.24523 15.2394 7.25382 14.8035 7.28019C14.4631 7.29736 14.2712 7.35867 14.1755 7.4807C13.8788 7.85597 13.5998 8.30054 13.2772 8.87633C13.0068 9.36443 12.7891 9.82678 12.6058 10.2977C12.4923 10.6031 12.2483 11.231 12.187 11.8062C12.1171 12.5389 12.3611 12.9921 12.9197 13.1668C13.0503 13.2104 13.3036 13.2803 13.7396 13.2803C14.8298 13.2803 16.548 12.8265 18.8413 11.9196C20.9084 11.1176 23.3238 9.73909 23.7426 8.77147C23.7598 8.72794 23.7598 8.66662 23.5856 8.58813C21.4572 7.699 18.8671 7.24523 16.1028 7.24523Z" fill="url(#paint29_linear_2_259)"/>
<path d="M13.085 8.50076C12.9109 8.74481 12.7275 9.00664 12.5528 9.25928C11.0002 11.544 9.64868 13.9251 8.31437 16.7421L8.37569 16.7684C9.70141 13.96 11.0529 11.571 12.6055 9.29484C12.7796 9.04221 12.963 8.78037 13.1377 8.53632C13.3119 8.29227 13.4952 8.03902 13.6608 7.78639L13.5823 7.7778C13.4253 8.02124 13.2506 8.26529 13.085 8.50076Z" fill="url(#paint30_linear_2_259)"/>
<path d="M19.1201 17.5263C19.2942 17.2736 19.4776 17.0204 19.6523 16.7678C21.1872 14.5087 22.53 12.1455 23.8558 9.36344L23.7773 9.35486C22.4601 12.1283 21.1258 14.483 19.591 16.7328C19.4169 16.9854 19.2335 17.2473 19.0588 17.4913C18.9018 17.7182 18.7362 17.9451 18.5792 18.1714H18.6663C18.8233 17.9537 18.9717 17.736 19.1201 17.5263Z" fill="url(#paint31_linear_2_259)"/>
<path d="M16.1026 18.8611C13.3291 18.8611 10.7304 18.3988 8.58484 17.5182C8.52352 17.4919 8.32301 17.3962 8.39291 17.2392C8.82031 16.2538 11.262 14.8582 13.3377 14.0476C15.6402 13.1407 17.3578 12.6869 18.4658 12.6869C18.9196 12.6869 19.1722 12.7654 19.3028 12.8089C19.8958 12.9923 20.1662 13.4718 20.0877 14.2481C20.0356 14.7625 19.8437 15.312 19.6689 15.7743C19.4942 16.2367 19.2679 16.7162 18.9975 17.1957C18.6749 17.7715 18.3867 18.2161 18.0906 18.5999C17.9771 18.7397 17.768 18.8004 17.4105 18.8268C16.9746 18.844 16.5386 18.8611 16.1026 18.8611ZM18.4658 12.7654C17.3756 12.7654 15.6574 13.2191 13.3641 14.1169C11.297 14.9189 8.88163 16.2974 8.46282 17.265C8.44565 17.3085 8.44565 17.3698 8.61979 17.4483C10.7476 18.3203 13.3377 18.7826 16.1112 18.7826C16.5472 18.7826 16.9831 18.7741 17.4105 18.7477C17.7509 18.7305 17.9428 18.6692 18.0384 18.5472C18.3352 18.1719 18.6142 17.7273 18.9368 17.1516C19.2072 16.672 19.4341 16.1925 19.6082 15.7388C19.7824 15.2764 19.9743 14.7448 20.0178 14.2303C20.0877 13.4975 19.8437 13.0444 19.2851 12.8696C19.1551 12.8353 18.9018 12.7654 18.4658 12.7654Z" fill="url(#paint32_linear_2_259)"/>
<path d="M13.9051 7.34092C13.8879 7.31455 13.853 7.2796 13.7745 7.2796H13.7659C11.4376 7.51507 9.3184 8.09086 7.63518 8.94504C5.45466 10.0525 4.25158 11.4916 4.25158 13.0093C4.25158 14.5269 5.45528 15.9655 7.63518 17.0735C7.73084 17.1257 7.82711 17.1692 7.92277 17.2133C7.95772 17.2305 8.00126 17.2397 8.03621 17.2397C8.1147 17.2397 8.1846 17.1962 8.21955 17.1263C8.28087 17.0042 8.33299 16.8822 8.3937 16.7602L8.33238 16.7338C8.27106 16.8558 8.21894 16.9779 8.15824 17.0999C8.13187 17.1612 8.04479 17.187 7.95772 17.1434C7.86206 17.0999 7.76579 17.0478 7.67013 17.0036C5.51598 15.9134 4.33007 14.492 4.33007 13.0007C4.33007 11.518 5.51598 10.0966 7.67013 8.99777C9.34476 8.14298 11.464 7.57639 13.7837 7.34092C13.8272 7.34092 13.845 7.34951 13.8536 7.35809C13.8622 7.36668 13.8536 7.39304 13.8364 7.41941C13.7579 7.53285 13.688 7.64629 13.6095 7.76832L13.688 7.7769C13.7579 7.67205 13.8278 7.5678 13.8971 7.46295C13.9223 7.41021 13.9137 7.36668 13.9051 7.34092Z" fill="url(#paint33_linear_2_259)"/>
<path d="M24.5883 8.95509C24.4926 8.90297 24.3964 8.85943 24.3007 8.81528C24.1787 8.76316 24.0481 8.79811 24.0039 8.90235C23.934 9.05933 23.8641 9.20773 23.7856 9.35612L23.8641 9.3647C23.934 9.2249 24.0039 9.07712 24.0732 8.92872C24.0904 8.88519 24.1345 8.85882 24.1866 8.85882C24.213 8.85882 24.2388 8.8674 24.2737 8.87599C24.3694 8.91952 24.4656 8.97165 24.5613 9.0158C26.7155 10.1061 27.9014 11.5274 27.9014 13.0187C27.9014 14.5014 26.7155 15.9228 24.5613 17.0217C22.8867 17.8679 20.7853 18.443 18.4827 18.6785C18.4306 18.6871 18.3429 18.6785 18.3956 18.6C18.4913 18.4602 18.5876 18.3124 18.6832 18.1726H18.5962C18.5091 18.3032 18.422 18.4253 18.3343 18.5565C18.2908 18.6178 18.2994 18.6613 18.3172 18.6871C18.3521 18.757 18.4478 18.7484 18.5091 18.7392C20.8202 18.5037 22.9216 17.9279 24.5963 17.0824C26.7768 15.9749 27.9799 14.5358 27.9799 13.0181C27.9633 11.5017 26.7688 10.0625 24.5883 8.95509Z" fill="url(#paint34_linear_2_259)"/>
</g>
</g>
<defs>
<radialGradient id="paint0_radial_2_259" cx="0" cy="0" r="1" gradientUnits="userSpaceOnUse" gradientTransform="translate(16.7929 8.98296) scale(11.6502)">
<stop stop-color="#8B9394"/>
<stop offset="1" stop-color="#727A79"/>
</radialGradient>
<radialGradient id="paint1_radial_2_259" cx="0" cy="0" r="1" gradientUnits="userSpaceOnUse" gradientTransform="translate(16.1307 6.72482) scale(14.4714 14.4891)">
<stop stop-color="#969D9D"/>
<stop offset="0.6135" stop-color="#7A8182"/>
<stop offset="1" stop-color="#4B5050"/>
</radialGradient>
<radialGradient id="paint2_radial_2_259" cx="0" cy="0" r="1" gradientUnits="userSpaceOnUse" gradientTransform="translate(11.4902 8.48746) scale(11.946)">
<stop stop-color="#969D9D"/>
<stop offset="0.4601" stop-color="#828B8A"/>
<stop offset="1" stop-color="#C2C9C8"/>
</radialGradient>
<radialGradient id="paint3_radial_2_259" cx="0" cy="0" r="1" gradientUnits="userSpaceOnUse" gradientTransform="translate(16.6439 14.1852) scale(6.64596)">
<stop stop-color="#969D9D"/>
<stop offset="0.6135" stop-color="#828B8A"/>
<stop offset="1" stop-color="#727A79"/>
</radialGradient>
<radialGradient id="paint4_radial_2_259" cx="0" cy="0" r="1" gradientUnits="userSpaceOnUse" gradientTransform="translate(24.8705 11.2127) scale(9.56458 9.56457)">
<stop stop-color="#969D9D"/>
<stop offset="0.6135" stop-color="#828B8A"/>
<stop offset="1" stop-color="#727A79"/>
</radialGradient>
<linearGradient id="paint5_linear_2_259" x1="15.7933" y1="7.27511" x2="16.3991" y2="18.8346" gradientUnits="userSpaceOnUse">
<stop stop-color="white"/>
<stop offset="0.4" stop-color="white"/>
<stop offset="0.5706" stop-color="#A4AAAA"/>
<stop offset="0.6257" stop-color="#8F9697"/>
<stop offset="0.6626" stop-color="#878F90"/>
<stop offset="0.75" stop-color="#969D9D"/>
<stop offset="0.81" stop-color="white"/>
</linearGradient>
<linearGradient id="paint6_linear_2_259" x1="18.4014" y1="18.6361" x2="19.5232" y2="14.251" gradientUnits="userSpaceOnUse">
<stop stop-color="white"/>
<stop offset="0.6258" stop-color="white"/>
<stop offset="0.6768" stop-color="#F1F2F2"/>
<stop offset="0.8952" stop-color="#B7BDBE"/>
<stop offset="1" stop-color="#A0A8AA"/>
</linearGradient>
<linearGradient id="paint7_linear_2_259" x1="14.922" y1="12.5935" x2="12.6651" y2="8.57174" gradientUnits="userSpaceOnUse">
<stop stop-color="#E5EEED"/>
<stop offset="0.2776" stop-color="#CFD7D7"/>
<stop offset="0.5521" stop-color="#B6BCBD"/>
<stop offset="1" stop-color="#A0A8AA"/>
</linearGradient>
<linearGradient id="paint8_linear_2_259" x1="16.8878" y1="8.84001" x2="18.7926" y2="11.5713" gradientUnits="userSpaceOnUse">
<stop stop-color="#E5EEED"/>
<stop offset="0.2776" stop-color="#CFD7D7"/>
<stop offset="0.5521" stop-color="#B6BCBD"/>
<stop offset="1" stop-color="#A0A8AA"/>
</linearGradient>
<linearGradient id="paint9_linear_2_259" x1="9.0733" y1="15.2395" x2="9.0733" y2="9.01022" gradientUnits="userSpaceOnUse">
<stop stop-color="white"/>
<stop offset="0.0629" stop-color="#F6F7F7"/>
<stop offset="0.1635" stop-color="#DFE1E1"/>
<stop offset="0.2891" stop-color="#B9BCBC"/>
<stop offset="0.4336" stop-color="#858A8A"/>
<stop offset="0.5276" stop-color="#5F6666"/>
<stop offset="0.773" stop-color="#4B5050"/>
<stop offset="1" stop-color="#404444"/>
</linearGradient>
<linearGradient id="paint10_linear_2_259" x1="19.6145" y1="16.561" x2="12.7309" y2="14.8001" gradientUnits="userSpaceOnUse">
<stop stop-color="#8B9394"/>
<stop offset="0.1758" stop-color="#7A8182"/>
<stop offset="0.3399" stop-color="#646A6B"/>
<stop offset="0.5698" stop-color="#404444"/>
<stop offset="1" stop-color="#333737"/>
</linearGradient>
<linearGradient id="paint11_linear_2_259" x1="8.43692" y1="18.0074" x2="17.9515" y2="18.0074" gradientUnits="userSpaceOnUse">
<stop stop-color="white"/>
<stop offset="0.9331" stop-color="white"/>
<stop offset="1" stop-color="white"/>
</linearGradient>
<linearGradient id="paint12_linear_2_259" x1="24.2923" y1="9.96311" x2="19.3654" y2="17.5872" gradientUnits="userSpaceOnUse">
<stop stop-color="#ABB3B3"/>
<stop offset="0.3804" stop-color="#727A79"/>
<stop offset="0.4174" stop-color="#575D5C"/>
<stop offset="0.4495" stop-color="#464A4A"/>
<stop offset="0.4724" stop-color="#404444"/>
<stop offset="1" stop-color="#333737"/>
</linearGradient>
<linearGradient id="paint13_linear_2_259" x1="22.6309" y1="8.44727" x2="15.1983" y2="7.44555" gradientUnits="userSpaceOnUse">
<stop stop-color="#4B5050"/>
<stop offset="0.1082" stop-color="#434747"/>
<stop offset="0.3852" stop-color="#323534"/>
<stop offset="0.6758" stop-color="#282A2A"/>
<stop offset="1" stop-color="#252726"/>
</linearGradient>
<linearGradient id="paint14_linear_2_259" x1="24.956" y1="8.73391" x2="27.311" y2="12.6481" gradientUnits="userSpaceOnUse">
<stop stop-color="#252726"/>
<stop offset="0.0676" stop-color="#2B2E2D"/>
<stop offset="0.3252" stop-color="#404444"/>
<stop offset="0.4324" stop-color="#4A4F4F"/>
<stop offset="0.6933" stop-color="#5F6666"/>
<stop offset="0.7433" stop-color="#666D6D"/>
<stop offset="0.8172" stop-color="#798181"/>
<stop offset="0.8712" stop-color="#8B9394"/>
<stop offset="1" stop-color="#A0A8AA"/>
</linearGradient>
<linearGradient id="paint15_linear_2_259" x1="20.3049" y1="18.6053" x2="27.6574" y2="14.0121" gradientUnits="userSpaceOnUse">
<stop stop-color="white"/>
<stop offset="0.7669" stop-color="white"/>
<stop offset="0.8338" stop-color="#E8EBEB"/>
<stop offset="0.9018" stop-color="#CCD4D3"/>
<stop offset="0.9599" stop-color="#AFB7B8"/>
<stop offset="1" stop-color="#A0A8AA"/>
</linearGradient>
<linearGradient id="paint16_linear_2_259" x1="22.9769" y1="8.6322" x2="23.019" y2="8.99488" gradientUnits="userSpaceOnUse">
<stop stop-color="#4B5050"/>
<stop offset="0.0835" stop-color="#6D7373"/>
<stop offset="0.1678" stop-color="#888F8F"/>
<stop offset="0.2527" stop-color="#9CA3A3"/>
<stop offset="0.3378" stop-color="#A7AFAF"/>
<stop offset="0.4233" stop-color="#ABB3B3"/>
<stop offset="0.5767" stop-color="#ABB3B3"/>
<stop offset="0.919" stop-color="#A3ABAC"/>
<stop offset="1" stop-color="#A0A8AA"/>
</linearGradient>
<linearGradient id="paint17_linear_2_259" x1="9.20397" y1="16.9364" x2="9.28237" y2="17.6381" gradientUnits="userSpaceOnUse">
<stop stop-color="#333737"/>
<stop offset="0.0158" stop-color="#494E4E"/>
<stop offset="0.0411" stop-color="#676E6D"/>
<stop offset="0.0552" stop-color="#727A79"/>
<stop offset="0.2185" stop-color="#808888"/>
<stop offset="0.3988" stop-color="#8B9394"/>
<stop offset="0.4757" stop-color="#9BA3A4"/>
<stop offset="0.4969" stop-color="#A0A8AA"/>
<stop offset="0.7853" stop-color="#ABB3B3"/>
<stop offset="0.8536" stop-color="#C2C8C8"/>
<stop offset="0.9966" stop-color="#FDFEFE"/>
<stop offset="1" stop-color="white"/>
</linearGradient>
<linearGradient id="paint18_linear_2_259" x1="24.278" y1="9.61676" x2="24.7671" y2="9.31016" gradientUnits="userSpaceOnUse">
<stop stop-color="#ABB3B3"/>
<stop offset="0.4172" stop-color="#A0A8AA"/>
<stop offset="0.5215" stop-color="#A0A8AA"/>
<stop offset="0.5931" stop-color="#9BA3A5"/>
<stop offset="0.68" stop-color="#8D9496"/>
<stop offset="0.7748" stop-color="#777D7D"/>
<stop offset="0.8753" stop-color="#575B5B"/>
<stop offset="0.9792" stop-color="#2E3030"/>
<stop offset="1" stop-color="#252726"/>
</linearGradient>
<linearGradient id="paint19_linear_2_259" x1="15.0657" y1="7.4469" x2="14.3171" y2="8.24807" gradientUnits="userSpaceOnUse">
<stop stop-color="#252726"/>
<stop offset="0.0228" stop-color="#2D302F"/>
<stop offset="0.1422" stop-color="#565B5B"/>
<stop offset="0.2495" stop-color="#73797A"/>
<stop offset="0.3399" stop-color="#858C8D"/>
<stop offset="0.4026" stop-color="#8B9394"/>
<stop offset="0.8123" stop-color="#98A0A2"/>
<stop offset="1" stop-color="#A0A8AA"/>
</linearGradient>
<linearGradient id="paint20_linear_2_259" x1="17.7075" y1="16.6976" x2="16.1736" y2="18.7984" gradientUnits="userSpaceOnUse">
<stop stop-color="#828B8A"/>
<stop offset="0.515" stop-color="#F4FAFC"/>
<stop offset="0.8083" stop-color="#F8FCFD"/>
<stop offset="1" stop-color="white"/>
</linearGradient>
<linearGradient id="paint21_linear_2_259" x1="8.77087" y1="16.3775" x2="11.6892" y2="9.48796" gradientUnits="userSpaceOnUse">
<stop stop-color="#697070"/>
<stop offset="0.5276" stop-color="#828B8A"/>
<stop offset="1" stop-color="#B2BCBC"/>
</linearGradient>
<linearGradient id="paint22_linear_2_259" x1="8.0082" y1="16.1814" x2="7.15224" y2="16.8123" gradientUnits="userSpaceOnUse">
<stop stop-color="#697070"/>
<stop offset="0.0762" stop-color="#8B9191"/>
<stop offset="0.2002" stop-color="#BDC0C0"/>
<stop offset="0.3091" stop-color="#E1E2E2"/>
<stop offset="0.3974" stop-color="#F7F7F7"/>
<stop offset="0.454" stop-color="white"/>
<stop offset="0.6348" stop-color="white"/>
<stop offset="0.6442" stop-color="white"/>
<stop offset="0.9824" stop-color="white"/>
<stop offset="1" stop-color="white"/>
</linearGradient>
<linearGradient id="paint23_linear_2_259" x1="12.5744" y1="7.68956" x2="12.853" y2="8.23684" gradientUnits="userSpaceOnUse">
<stop stop-color="#404444"/>
<stop offset="0.1607" stop-color="#444848"/>
<stop offset="0.3258" stop-color="#4F5454"/>
<stop offset="0.4724" stop-color="#5F6666"/>
<stop offset="0.522" stop-color="#737B7A"/>
<stop offset="0.5706" stop-color="#828B8A"/>
<stop offset="0.7786" stop-color="#A3ACAC"/>
<stop offset="0.908" stop-color="#B2BCBC"/>
</linearGradient>
<linearGradient id="paint24_linear_2_259" x1="15.6737" y1="7.23378" x2="16.5536" y2="19.3315" gradientUnits="userSpaceOnUse">
<stop stop-color="white"/>
<stop offset="0.0755" stop-color="#F8FAFA"/>
<stop offset="0.1828" stop-color="#E6ECED"/>
<stop offset="0.2638" stop-color="#D3DEE0"/>
<stop offset="0.2946" stop-color="#C9D4D6"/>
<stop offset="0.3474" stop-color="#AFB9BA"/>
<stop offset="0.4159" stop-color="#858D8E"/>
<stop offset="0.4969" stop-color="#4B5050"/>
<stop offset="0.6871" stop-color="#3E4344"/>
<stop offset="0.7344" stop-color="#2F3435"/>
<stop offset="0.816" stop-color="#0D1112"/>
<stop offset="1" stop-color="#0D1112"/>
</linearGradient>
<linearGradient id="paint25_linear_2_259" x1="12.9708" y1="11.0657" x2="15.234" y2="13.1036" gradientUnits="userSpaceOnUse">
<stop offset="0.07" stop-color="#B6BCBD"/>
<stop offset="0.1214" stop-color="#C9CECE"/>
<stop offset="0.2023" stop-color="#E1E3E4"/>
<stop offset="0.2885" stop-color="#F2F3F3"/>
<stop offset="0.3827" stop-color="#FCFCFC"/>
<stop offset="0.5" stop-color="white"/>
<stop offset="0.6129" stop-color="#FCFCFC"/>
<stop offset="0.7036" stop-color="#F2F3F3"/>
<stop offset="0.7865" stop-color="#E1E4E4"/>
<stop offset="0.8644" stop-color="#C9CECE"/>
<stop offset="0.9387" stop-color="#ABB3B3"/>
</linearGradient>
<linearGradient id="paint26_linear_2_259" x1="18.6405" y1="15.4182" x2="16.5551" y2="12.7488" gradientUnits="userSpaceOnUse">
<stop stop-color="#828B8A"/>
<stop offset="0.1227" stop-color="#7A8182"/>
<stop offset="0.1742" stop-color="#6B7272"/>
<stop offset="0.2759" stop-color="#545959"/>
<stop offset="0.3681" stop-color="#454949"/>
<stop offset="0.4417" stop-color="#404444"/>
<stop offset="0.7117" stop-color="#404444"/>
<stop offset="1" stop-color="#333737"/>
</linearGradient>
<linearGradient id="paint27_linear_2_259" x1="18.966" y1="13.4373" x2="19.346" y2="13.9597" gradientUnits="userSpaceOnUse">
<stop stop-color="#3E4344"/>
<stop offset="0.017" stop-color="#555A5A"/>
<stop offset="0.0507" stop-color="#7D8081"/>
<stop offset="0.0877" stop-color="#A0A3A3"/>
<stop offset="0.1278" stop-color="#BEBFC0"/>
<stop offset="0.1719" stop-color="#D6D7D7"/>
<stop offset="0.2217" stop-color="#E8E9E9"/>
<stop offset="0.2804" stop-color="#F5F6F6"/>
<stop offset="0.3568" stop-color="#FDFDFD"/>
<stop offset="0.5153" stop-color="white"/>
<stop offset="0.6539" stop-color="#FDFDFD"/>
<stop offset="0.732" stop-color="#F4F5F5"/>
<stop offset="0.7951" stop-color="#E7E8E8"/>
<stop offset="0.8502" stop-color="#D3D5D5"/>
<stop offset="0.9001" stop-color="#B9BDBD"/>
<stop offset="0.9462" stop-color="#9A9F9F"/>
<stop offset="0.9885" stop-color="#757C7C"/>
<stop offset="1" stop-color="#6A7171"/>
</linearGradient>
<linearGradient id="paint28_linear_2_259" x1="19.4324" y1="17.9116" x2="19.6593" y2="18.376" gradientUnits="userSpaceOnUse">
<stop stop-color="#333737"/>
<stop offset="0.057" stop-color="#5A5F5E"/>
<stop offset="0.1393" stop-color="#8B9191"/>
<stop offset="0.2168" stop-color="#B2BAB9"/>
<stop offset="0.2872" stop-color="#CED6D5"/>
<stop offset="0.3482" stop-color="#DFE8E7"/>
<stop offset="0.3929" stop-color="#E5EEED"/>
<stop offset="0.5373" stop-color="#E9F1F0"/>
<stop offset="0.6811" stop-color="#F5F8F8"/>
<stop offset="0.7607" stop-color="white"/>
</linearGradient>
<linearGradient id="paint29_linear_2_259" x1="17.7973" y1="11.5982" x2="18.4029" y2="6.94523" gradientUnits="userSpaceOnUse">
<stop stop-color="white"/>
<stop offset="0.248" stop-color="#F2F6F6"/>
<stop offset="0.572" stop-color="#E8F0EF"/>
<stop offset="1" stop-color="#E5EEED"/>
</linearGradient>
<linearGradient id="paint30_linear_2_259" x1="13.8516" y1="7.47821" x2="8.58184" y2="16.0175" gradientUnits="userSpaceOnUse">
<stop stop-color="white"/>
<stop offset="0.1338" stop-color="#FCFCFC"/>
<stop offset="0.2307" stop-color="#F3F4F4"/>
<stop offset="0.316" stop-color="#E3E5E5"/>
<stop offset="0.3947" stop-color="#CDD0D0"/>
<stop offset="0.4681" stop-color="#B0B5B5"/>
<stop offset="0.5215" stop-color="#969D9D"/>
<stop offset="1" stop-color="#8B9394"/>
</linearGradient>
<linearGradient id="paint31_linear_2_259" x1="23.9295" y1="9.40732" x2="18.7347" y2="18.2174" gradientUnits="userSpaceOnUse">
<stop stop-color="#D7E0E0"/>
<stop offset="0.0435" stop-color="#C5CDCE"/>
<stop offset="0.101" stop-color="#B4BCBE"/>
<stop offset="0.1727" stop-color="#A9B1B2"/>
<stop offset="0.2732" stop-color="#A2AAAC"/>
<stop offset="0.5521" stop-color="#A0A8AA"/>
<stop offset="0.9367" stop-color="#A0A8AA"/>
<stop offset="1" stop-color="#A0A8AA"/>
</linearGradient>
<linearGradient id="paint32_linear_2_259" x1="8.37857" y1="15.774" x2="19.6013" y2="15.774" gradientUnits="userSpaceOnUse">
<stop stop-color="#8B9394"/>
<stop offset="0.2393" stop-color="#8B9394"/>
<stop offset="0.3579" stop-color="#858C8D"/>
<stop offset="0.5264" stop-color="#737A7B"/>
<stop offset="0.5951" stop-color="#6A7171"/>
<stop offset="1" stop-color="#A0A8AA"/>
</linearGradient>
<linearGradient id="paint33_linear_2_259" x1="9.8027" y1="8.1616" x2="6.62859" y2="15.9434" gradientUnits="userSpaceOnUse">
<stop stop-color="white"/>
<stop offset="0.2377" stop-color="#F8FAFA"/>
<stop offset="0.5752" stop-color="#E6EBEB"/>
<stop offset="0.7791" stop-color="#D7E0E0"/>
<stop offset="1" stop-color="#8B9394"/>
</linearGradient>
<linearGradient id="paint34_linear_2_259" x1="26.3328" y1="10.1834" x2="21.7742" y2="18.7612" gradientUnits="userSpaceOnUse">
<stop stop-color="#D7E0E0"/>
<stop offset="0.1641" stop-color="#D1DAD9"/>
<stop offset="0.2552" stop-color="#CCD4D3"/>
<stop offset="1" stop-color="#A0A8AA"/>
</linearGradient>
<clipPath id="clip0_2_259">
<rect width="31.3955" height="31.3955" fill="white" transform="translate(0.256241 0.802246)"/>
</clipPath>
</defs>
</svg>
