<svg width="11" height="11" viewBox="0 0 11 11" fill="none" xmlns="http://www.w3.org/2000/svg">
<path fill-rule="evenodd" clip-rule="evenodd" d="M5.50002 0.205322C6.70337 0.205322 7.85744 0.683353 8.70834 1.53425C9.55924 2.38515 10.0373 3.53922 10.0373 4.74257C10.0373 6.2923 9.19233 7.56071 8.30202 8.47068C7.85721 8.9204 7.37185 9.32813 6.85212 9.68868L6.63736 9.83488L6.53653 9.90193L6.34647 10.0229L6.17708 10.1263L5.96736 10.2483C5.825 10.3295 5.66393 10.3723 5.50002 10.3723C5.33611 10.3723 5.17503 10.3295 5.03268 10.2483L4.82296 10.1263L4.56081 9.96495L4.46401 9.90193L4.25732 9.7643C3.69663 9.38495 3.17438 8.95168 2.69801 8.47068C1.80771 7.56021 0.962769 6.2923 0.962769 4.74257C0.962769 3.53922 1.4408 2.38515 2.2917 1.53425C3.1426 0.683353 4.29667 0.205322 5.50002 0.205322ZM5.50002 1.2136C4.56408 1.2136 3.66647 1.5854 3.00466 2.24721C2.34285 2.90902 1.97105 3.80663 1.97105 4.74257C1.97105 5.91318 2.61231 6.94062 3.41843 7.76539C3.76504 8.11627 4.13968 8.4383 4.53863 8.7283L4.76952 8.89264C4.84413 8.94474 4.91589 8.99314 4.98479 9.03784L5.1814 9.16387L5.35432 9.26924L5.50002 9.35444L5.7294 9.21882L5.91442 9.10287C6.0129 9.04036 6.11826 8.97028 6.23052 8.89264L6.46141 8.7283C6.86036 8.4383 7.235 8.11627 7.58161 7.76539C8.38773 6.94112 9.02899 5.91318 9.02899 4.74257C9.02899 3.80663 8.65719 2.90902 7.99538 2.24721C7.33357 1.5854 6.43596 1.2136 5.50002 1.2136ZM5.50002 2.72602C6.03484 2.72602 6.54776 2.93847 6.92594 3.31665C7.30412 3.69483 7.51657 4.20775 7.51657 4.74257C7.51657 5.2774 7.30412 5.79032 6.92594 6.16849C6.54776 6.54667 6.03484 6.75913 5.50002 6.75913C4.9652 6.75913 4.45228 6.54667 4.0741 6.16849C3.69592 5.79032 3.48346 5.2774 3.48346 4.74257C3.48346 4.20775 3.69592 3.69483 4.0741 3.31665C4.45228 2.93847 4.9652 2.72602 5.50002 2.72602ZM5.50002 3.73429C5.23261 3.73429 4.97615 3.84052 4.78706 4.02961C4.59797 4.2187 4.49174 4.47516 4.49174 4.74257C4.49174 5.00998 4.59797 5.26644 4.78706 5.45553C4.97615 5.64462 5.23261 5.75085 5.50002 5.75085C5.76743 5.75085 6.02389 5.64462 6.21298 5.45553C6.40207 5.26644 6.5083 5.00998 6.5083 4.74257C6.5083 4.47516 6.40207 4.2187 6.21298 4.02961C6.02389 3.84052 5.76743 3.73429 5.50002 3.73429Z" fill="#043A58"/>
</svg>
