<svg width="20" height="20" viewBox="0 0 20 20" fill="none" xmlns="http://www.w3.org/2000/svg">
<path fill-rule="evenodd" clip-rule="evenodd" d="M13.4626 17.8258C13.4628 18.3503 13.2599 18.8556 12.8946 19.2402C12.5294 19.6248 12.0288 19.8604 11.4931 19.8998L11.3334 19.905H9.2043C8.66714 19.9051 8.14976 19.707 7.75589 19.3504C7.36202 18.9937 7.12076 18.5048 7.08047 17.9817L7.07515 17.8258H13.4626ZM10.2689 0.152527C12.2011 0.152496 14.0577 0.885336 15.4472 2.19646C16.8367 3.50759 17.6504 5.29449 17.7166 7.18024L17.7209 7.42975V11.3428L19.6605 15.1311C19.7452 15.2964 19.7876 15.4793 19.784 15.6641C19.7805 15.8489 19.7311 16.03 19.6402 16.1921C19.5492 16.3542 19.4194 16.4923 19.2618 16.5947C19.1043 16.6971 18.9237 16.7606 18.7354 16.7799L18.613 16.7862H1.92474C1.73542 16.7862 1.5489 16.7415 1.38119 16.6557C1.21347 16.5699 1.06954 16.4457 0.961739 16.2938C0.853938 16.1418 0.785478 15.9665 0.762224 15.7831C0.738971 15.5996 0.761617 15.4133 0.828223 15.2403L0.877194 15.1311L2.81685 11.3428V7.42975C2.81685 5.49971 3.60197 3.64872 4.9995 2.28397C6.39702 0.919232 8.29247 0.152527 10.2689 0.152527ZM10.2689 2.23173C8.8972 2.23181 7.57852 2.74898 6.58781 3.67539C5.5971 4.6018 5.01085 5.86592 4.95132 7.20415L4.946 7.42975V11.3428C4.94601 11.6006 4.89691 11.8562 4.80122 12.0965L4.72137 12.2733L3.47582 14.707H17.063L15.8174 12.2722C15.6993 12.0417 15.626 11.7918 15.6013 11.5351L15.5917 11.3428V7.42975C15.5917 6.05115 15.0309 4.72901 14.0327 3.75419C13.0345 2.77938 11.6806 2.23173 10.2689 2.23173Z" fill="#0455A8"/>
</svg>
