<svg width="21" height="21" viewBox="0 0 21 21" fill="none" xmlns="http://www.w3.org/2000/svg">
<path d="M2.01596 16.8631C2.01596 15.7381 2.46289 14.6591 3.25842 13.8636C4.05395 13.068 5.13293 12.6211 6.25798 12.6211H14.742C15.8671 12.6211 16.946 13.068 17.7416 13.8636C18.5371 14.6591 18.984 15.7381 18.984 16.8631C18.984 17.4256 18.7606 17.9651 18.3628 18.3629C17.965 18.7607 17.4256 18.9841 16.863 18.9841H4.13697C3.57444 18.9841 3.03496 18.7607 2.63719 18.3629C2.23942 17.9651 2.01596 17.4256 2.01596 16.8631Z" stroke="white" stroke-width="2.12101" stroke-linejoin="round"/>
<path d="M10.5 8.37902C12.2571 8.37902 13.6815 6.95461 13.6815 5.1975C13.6815 3.4404 12.2571 2.01599 10.5 2.01599C8.74289 2.01599 7.31848 3.4404 7.31848 5.1975C7.31848 6.95461 8.74289 8.37902 10.5 8.37902Z" stroke="white" stroke-width="2.12101"/>
</svg>
