<svg width="21" height="20" viewBox="0 0 21 20" fill="none" xmlns="http://www.w3.org/2000/svg">
<path fill-rule="evenodd" clip-rule="evenodd" d="M9.57707 -0.00440214C8.15731 -0.00428584 6.75816 0.322295 5.49636 0.948092C4.23456 1.57389 3.14669 2.48076 2.32352 3.59304C1.50036 4.70531 0.965755 5.99075 0.764323 7.34209C0.562891 8.69344 0.70047 10.0715 1.16558 11.3613C1.63069 12.6511 2.40985 13.8153 3.43804 14.7567C4.46624 15.6981 5.71366 16.3894 7.07622 16.773C8.43879 17.1565 9.877 17.2212 11.2709 16.9616C12.6647 16.7021 13.9738 16.1257 15.0889 15.2807L18.9143 18.959C19.1118 19.1425 19.3764 19.244 19.6511 19.2417C19.9257 19.2394 20.1885 19.1335 20.3827 18.9467C20.5769 18.76 20.687 18.5074 20.6894 18.2433C20.6918 17.9792 20.5862 17.7248 20.3954 17.5348L16.57 13.8566C17.6049 12.5942 18.2493 11.0771 18.4294 9.47903C18.6095 7.88095 18.3181 6.26639 17.5884 4.82014C16.8588 3.37388 15.7204 2.15437 14.3036 1.30115C12.8868 0.447934 11.2488 -0.00451007 9.57707 -0.00440214ZM2.76846 8.55672C2.76846 6.82042 3.48579 5.15523 4.76265 3.92748C6.03951 2.69972 7.77131 2.00998 9.57707 2.00998C11.3828 2.00998 13.1146 2.69972 14.3915 3.92748C15.6683 5.15523 16.3857 6.82042 16.3857 8.55672C16.3857 10.293 15.6683 11.9582 14.3915 13.186C13.1146 14.4137 11.3828 15.1035 9.57707 15.1035C7.77131 15.1035 6.03951 14.4137 4.76265 13.186C3.48579 11.9582 2.76846 10.293 2.76846 8.55672Z" fill="#CAC4C4"/>
</svg>
