<svg width="19" height="21" viewBox="0 0 19 21" fill="none" xmlns="http://www.w3.org/2000/svg">
<path d="M15.067 20.2031C14.2336 20.2031 13.5253 19.9115 12.942 19.3281C12.3586 18.7448 12.067 18.0365 12.067 17.2031C12.067 17.0865 12.0753 16.9655 12.092 16.8401C12.1086 16.7148 12.1336 16.6025 12.167 16.5031L5.11696 12.4031C4.83362 12.6531 4.51696 12.8491 4.16696 12.9911C3.81696 13.1331 3.45029 13.2038 3.06696 13.2031C2.23362 13.2031 1.52529 12.9115 0.941956 12.3281C0.358622 11.7448 0.0669556 11.0365 0.0669556 10.2031C0.0669556 9.36979 0.358622 8.66146 0.941956 8.07812C1.52529 7.49479 2.23362 7.20312 3.06696 7.20312C3.45029 7.20312 3.81696 7.27413 4.16696 7.41613C4.51696 7.55813 4.83362 7.75379 5.11696 8.00313L12.167 3.90312C12.1336 3.80312 12.1086 3.69079 12.092 3.56612C12.0753 3.44146 12.067 3.32046 12.067 3.20312C12.067 2.36979 12.3586 1.66146 12.942 1.07812C13.5253 0.494792 14.2336 0.203125 15.067 0.203125C15.9003 0.203125 16.6086 0.494792 17.192 1.07812C17.7753 1.66146 18.067 2.36979 18.067 3.20312C18.067 4.03646 17.7753 4.74479 17.192 5.32812C16.6086 5.91146 15.9003 6.20312 15.067 6.20312C14.6836 6.20312 14.317 6.13246 13.967 5.99113C13.617 5.84979 13.3003 5.65379 13.017 5.40312L5.96696 9.50313C6.00029 9.60313 6.02529 9.71579 6.04196 9.84112C6.05862 9.96646 6.06696 10.0871 6.06696 10.2031C6.06696 10.3191 6.05862 10.4401 6.04196 10.5661C6.02529 10.6921 6.00029 10.8045 5.96696 10.9031L13.017 15.0031C13.3003 14.7531 13.617 14.5575 13.967 14.4161C14.317 14.2748 14.6836 14.2038 15.067 14.2031C15.9003 14.2031 16.6086 14.4948 17.192 15.0781C17.7753 15.6615 18.067 16.3698 18.067 17.2031C18.067 18.0365 17.7753 18.7448 17.192 19.3281C16.6086 19.9115 15.9003 20.2031 15.067 20.2031Z" fill="#0455A8"/>
</svg>
